<svg id="Ebene_1" data-name="Ebene 1" xmlns="http://www.w3.org/2000/svg" viewBox="0 0 2279.41 399.68"><defs><style>.cls-1{fill:#fff;}</style></defs><title>Zeichenfläche 1</title><path class="cls-1" d="M53.8,239.36H85.64l53.8,158.11H112L97.71,354.65h-56L27.44,397.47H0L53.8,239.36Zm-5.49,94.43H91.13L70.27,264.61h-1.1L48.31,333.79ZM157,239.36h26.36V397.47H157Zm60.39,0h47.21c29.65,0,50.5,11,50.5,41.72,0,25.24-14.28,32.93-30.73,36.23v1.1c21.95,4.38,24.14,17.56,27.44,34l9.88,45H294.25l-6.59-34c-5.49-25.26-8.78-34-33-34h-11v68.08H217.39V239.36Zm26.35,71.37h11c16.48,0,34-3.29,34-26.34,0-16.49-8.78-25.25-24.15-25.25H243.77v51.59Zm102.11-71.37h40.63c24.15,0,54.9,4.38,54.9,46.1,0,37.33-34.05,45-54.9,45H372.21v67H345.85V239.36Zm26.36,71.37H386.5c15.37,0,27.46-7.69,27.46-25.25,0-20.86-9.89-26.34-27.46-26.34H372.22Zm82.34,7.69c0-46.12,14.27-81.25,63.69-81.25,48.31,0,63.68,35.13,63.68,81.25s-15.37,81.26-63.68,81.26C468.83,399.66,454.56,364.53,454.56,318.42ZM518.25,381c26.35,0,34-28.55,34-62.58,0-32.94-7.69-62.58-34-62.58-27.45,0-34.05,29.64-34.05,62.58C484.2,352.45,490.8,381,518.25,381Zm91.12-141.64h47.21c29.65,0,50.52,11,50.52,41.72,0,25.24-14.28,32.93-30.74,36.23v1.1c22,4.38,24.15,17.56,28.55,34l8.78,45H687.35l-7.7-34c-5.48-25.26-8.78-34-32.94-34h-11v68.08H609.37Zm26.36,71.37h11c16.47,0,34-3.29,34-26.34,0-16.49-8.78-25.25-24.16-25.25H635.73ZM760.9,260.21H721.38V239.36H826.77v20.85H787.25V397.47H760.9V260.21ZM908,239.36h48.31c17.56,0,45,5.48,45,37.32,0,25.26-17.56,32.93-26.36,36.24,13.18,2.19,34,9.87,34,40.62,0,38.43-29.65,43.93-52.71,43.93H908Zm27.45,64.78h9.89c16.47,0,28.54-2.19,28.54-23.05,0-19.76-11-21.95-28.54-21.95h-9.89Zm0,73.57h9.89c17.56,0,36.22-3.3,36.22-26.36,0-20.84-14.27-28.55-36.22-28.55h-9.89v54.91Zm101-138.35h47.21c29.65,0,50.51,11,50.51,41.72,0,25.24-14.28,32.93-30.74,36.23v1.1c22,4.38,24.15,17.56,27.44,34l9.88,45h-27.44l-6.59-34c-5.48-25.26-8.79-34-32.94-34h-11v68.08h-26.34Zm26.36,71.37h11c16.47,0,34.05-3.29,34.05-26.34,0-16.49-8.78-25.25-24.15-25.25h-20.87v51.59Zm102.09-71.37h91.16v20.85h-64.79v45h61.49V326.1h-61.49v50.5h67v20.87h-93.35Zm119.7,0h36.23l43.91,126.27,43.93-126.27h36.23V397.47H1420.8V273.4h-1.12l-42.81,124.07h-24.16L1308.8,273.4V397.47h-24.16Zm195.43,0h91.14v20.85h-64.77v45h61.49V326.1h-61.49v50.5h67v20.87h-93.34V239.36Zm119.7,0h31.84l61.48,116.37V239.36h24.16V397.47h-29.66l-63.68-121.88V397.47h-24.14V239.36Z"/><path class="cls-1" d="M2127.87,397.47H1806.2L2151,5.49,2279.41,0Z"/></svg>