<svg id="Ebene_1" data-name="Ebene 1" xmlns="http://www.w3.org/2000/svg" viewBox="0 0 82.2 99.54"><defs><style>.cls-1{fill:#fff;}</style></defs><title>Zeichenfläche 1</title><path class="cls-1" d="M82.2,97a.45.45,0,0,0-.51-.5.48.48,0,0,0-.39.18.64.64,0,0,0-.14.45.44.44,0,0,0,.5.5.48.48,0,0,0,.4-.17A.7.7,0,0,0,82.2,97m-1.06-3.85c0-.25-.14-.37-.41-.37a1.09,1.09,0,0,0-.89.58A1.24,1.24,0,0,0,79,93.1a1.78,1.78,0,0,0-1.38.56,1.81,1.81,0,0,0-.52,1.26,1,1,0,0,0,.57,1,2.17,2.17,0,0,0-.61.41.58.58,0,0,0-.16.42.61.61,0,0,0,.39.57,2,2,0,0,0-1,.43.94.94,0,0,0-.36.75c0,.71.6,1.07,1.79,1.07a2.74,2.74,0,0,0,1.64-.43A1.38,1.38,0,0,0,80,97.92c0-.62-.42-1-1.27-1.07l-.79-.09q-.42,0-.42-.24c0-.19.2-.36.59-.52l.26,0a1.76,1.76,0,0,0,1.36-.57,1.89,1.89,0,0,0,.51-1.27,1.07,1.07,0,0,0-.18-.63.81.81,0,0,1,.41-.19c.15,0,.23.1.23.3q.48,0,.48-.51m-3.81,4.4a1.19,1.19,0,0,1,.36-.08l.79.07c.51,0,.77.25.77.61a.85.85,0,0,1-.38.72,2,2,0,0,1-1.1.26c-.77,0-1.15-.23-1.15-.71a.79.79,0,0,1,.21-.56,1.06,1.06,0,0,1,.5-.31m2.13-3.41a1.92,1.92,0,0,1-.29,1,.86.86,0,0,1-.75.47c-.38,0-.57-.23-.57-.68a1.9,1.9,0,0,1,.28-1,.87.87,0,0,1,.76-.47c.38,0,.57.23.57.67m-4.21,1.67.94-4.47H74.65l-.08.35h.1c.38,0,.58.13.58.38a1.71,1.71,0,0,1-.06.37l-.66,3.14a7.56,7.56,0,0,0-.18,1.29.79.79,0,0,0,.19.56.59.59,0,0,0,.48.22,1.71,1.71,0,0,0,1.11-.49L76,96.92a1.2,1.2,0,0,1-.59.21c-.18,0-.27-.14-.27-.41a4.25,4.25,0,0,1,.13-.91m-2.53,1a3.18,3.18,0,0,0,.67-2A1.74,1.74,0,0,0,73,93.53a1.48,1.48,0,0,0-1.14-.43,2.13,2.13,0,0,0-1.76.87,3.2,3.2,0,0,0-.68,2,1.74,1.74,0,0,0,.42,1.24,1.5,1.5,0,0,0,1.16.45,2.11,2.11,0,0,0,1.75-.88m-.18-2.1a4,4,0,0,1-.4,1.78,1.22,1.22,0,0,1-1.08.8c-.54,0-.82-.38-.82-1.13a3.81,3.81,0,0,1,.42-1.79,1.22,1.22,0,0,1,1.08-.8c.53,0,.8.38.8,1.14m-2.12-2.8a.51.51,0,0,0-.26-.45,1.53,1.53,0,0,0-.79-.16q-1.28,0-1.56,1.47l-.09.45-.78.17,0,.29h.74l-.86,4a3.49,3.49,0,0,1-.41,1.17.72.72,0,0,1-.62.34,1.36,1.36,0,0,1-.38-.06l-.07.38a2,2,0,0,0,.47.07,1.49,1.49,0,0,0,1.16-.46,3.22,3.22,0,0,0,.62-1.45l.85-4h.92l.09-.46h-.91l.11-.53a2.08,2.08,0,0,1,.26-.77.55.55,0,0,1,.47-.25c.28,0,.41.26.41.77.46,0,.68-.18.68-.53m-3.94,1.79c0-.38-.22-.56-.67-.56a1.14,1.14,0,0,0-.75.26,2.68,2.68,0,0,0-.64,1h-.09l.17-1.18H63.06l-.08.34h.07c.43,0,.65.13.65.39a2,2,0,0,1-.05.36L63,97.57h.77L64,96.08a5.65,5.65,0,0,1,.63-1.7c.28-.5.55-.74.8-.74s.33.21.33.64c.45,0,.68-.2.68-.62m-4.05-.51.26-1.43H58.56l-.07.34h.1a.81.81,0,0,1,.47.1.4.4,0,0,1,.11.29,1.5,1.5,0,0,1,0,.2l-.86,4a.74.74,0,0,1-.21.4.88.88,0,0,1-.58.14h-.11l-.06.35h4.39l.36-1.43h-.43l-.13.35a.9.9,0,0,1-.93.67H59l.53-2.45h2l.08-.4h-2l.47-2.18h1.37c.39,0,.59.18.59.55,0,0,0,.09,0,.22l0,.25Zm-8.2,4.5a1.6,1.6,0,0,0,1-.47l-.15-.24a.93.93,0,0,1-.52.19c-.2,0-.29-.13-.29-.39a4.21,4.21,0,0,1,.11-.86l.21-1a4.61,4.61,0,0,0,.15-.9.8.8,0,0,0-.88-.91c-.55,0-1,.37-1.49,1.11h-.08l.22-1H51l-.07.34H51c.39,0,.58.13.58.39a2,2,0,0,1-.05.36l-.69,3.3h.76l.45-2.1a3.08,3.08,0,0,1,.61-1.23,1.27,1.27,0,0,1,.93-.61c.25,0,.38.16.38.48a3.63,3.63,0,0,1-.12.77l-.19.84a6.31,6.31,0,0,0-.16,1.11.84.84,0,0,0,.21.6.67.67,0,0,0,.54.22m-4.62-2.46a1.42,1.42,0,0,0,.7-1.15.89.89,0,0,0-.29-.7,1.22,1.22,0,0,0-.81-.24,2.12,2.12,0,0,0-1.75.89,3.13,3.13,0,0,0-.69,2,1.74,1.74,0,0,0,.44,1.24,1.54,1.54,0,0,0,1.16.45,1.68,1.68,0,0,0,1-.29.78.78,0,0,0,.39-.61.23.23,0,0,0-.09-.21,1.44,1.44,0,0,1-1.18.59q-.9,0-.9-1.11a2.44,2.44,0,0,1,0-.34h.29a2.8,2.8,0,0,0,1.68-.49M49.46,94A1.11,1.11,0,0,1,49,95a2,2,0,0,1-1.19.35h-.08A3.83,3.83,0,0,1,48.24,94a.94.94,0,0,1,.74-.49c.32,0,.48.18.48.55m-3-.38c0-.38-.22-.56-.67-.56a1.1,1.1,0,0,0-.74.26,2.68,2.68,0,0,0-.65,1h-.08l.17-1.18H43l-.08.34H43c.44,0,.65.13.65.39a1.86,1.86,0,0,1,0,.36L43,97.57h.76L44,96.08a5.93,5.93,0,0,1,.63-1.7c.28-.5.55-.74.81-.74s.32.21.32.64c.46,0,.68-.2.68-.62m-5,4a1.62,1.62,0,0,0,1-.47l-.15-.24a1,1,0,0,1-.53.19c-.19,0-.28-.13-.28-.39a4.13,4.13,0,0,1,.1-.86l.22-1A4.38,4.38,0,0,0,42,94c0-.6-.29-.91-.87-.91a1.88,1.88,0,0,0-1.52,1.11h-.09c.12-.46.23-.91.33-1.36l.32-1.51H38.61l-.07.35h.06c.39,0,.58.13.58.38a3.93,3.93,0,0,1-.08.43L38,97.57h.76l.44-2.1a3.11,3.11,0,0,1,.61-1.22,1.28,1.28,0,0,1,.94-.62c.25,0,.38.16.38.48a3.63,3.63,0,0,1-.12.77l-.19.84a5.47,5.47,0,0,0-.16,1.11.89.89,0,0,0,.2.6.71.71,0,0,0,.55.22M38,92.06l.08-.34H35.73l-.07.34h.1q.6,0,.6.33a1.31,1.31,0,0,1,0,.23l-.86,4a.71.71,0,0,1-.8.58h-.11l-.06.35h2.38l.07-.35h-.1c-.4,0-.59-.11-.59-.32a1.58,1.58,0,0,1,0-.23l.85-4a.81.81,0,0,1,.23-.44.88.88,0,0,1,.57-.15Zm-5.45,1.6c0-.38-.23-.56-.68-.56a1.1,1.1,0,0,0-.74.26,2.68,2.68,0,0,0-.65,1h-.08l.17-1.18H29.16l-.08.34h.07c.44,0,.65.13.65.39a1.86,1.86,0,0,1,0,.36l-.69,3.3h.76l.31-1.49a6.24,6.24,0,0,1,.63-1.7c.28-.5.55-.74.81-.74s.32.21.32.64c.46,0,.69-.2.69-.62m-5.05,4a1.58,1.58,0,0,0,1-.46L28.43,97a1,1,0,0,1-.53.18c-.18,0-.27-.14-.27-.41a4.73,4.73,0,0,1,.12-.91l.57-2.63h-.79l-.43,2a3.07,3.07,0,0,1-.64,1.29c-.32.4-.62.61-.9.61s-.4-.17-.4-.5a5.48,5.48,0,0,1,.16-1l.54-2.45H24.34l-.07.34h.06q.57,0,.57.39a2.18,2.18,0,0,1-.07.48l-.32,1.44a4.73,4.73,0,0,0-.15.9c0,.61.29.91.88.91a1.34,1.34,0,0,0,.79-.26,3.43,3.43,0,0,0,.79-1h.07a2.9,2.9,0,0,0,0,.48.81.81,0,0,0,.19.56.61.61,0,0,0,.5.22m.54-5.78a.36.36,0,0,0-.41-.41c-.29,0-.44.17-.44.52a.37.37,0,0,0,.41.41c.3,0,.44-.17.44-.52m-1.55,0a.37.37,0,0,0-.42-.41c-.29,0-.44.17-.44.52a.37.37,0,0,0,.41.41c.3,0,.45-.17.45-.52m-1.35,0a.53.53,0,0,0-.26-.45,1.53,1.53,0,0,0-.79-.16q-1.27,0-1.56,1.47l-.09.45-.79.17,0,.29h.74l-.86,4a3.73,3.73,0,0,1-.41,1.17.72.72,0,0,1-.62.34,1.36,1.36,0,0,1-.38-.06l-.08.38a2.14,2.14,0,0,0,.48.07,1.51,1.51,0,0,0,1.16-.46,3.22,3.22,0,0,0,.62-1.45l.85-4h.92l.09-.46h-.91l.11-.53a2.08,2.08,0,0,1,.26-.77.55.55,0,0,1,.47-.25c.27,0,.41.26.41.77.45,0,.68-.18.68-.53m-6.34,2a.65.65,0,0,0-.33-.55,1.71,1.71,0,0,0-1-.23,1.84,1.84,0,0,0-1.14.34,1.09,1.09,0,0,0-.44.88,1.17,1.17,0,0,0,.21.69,1.89,1.89,0,0,0,.79.58,2.28,2.28,0,0,1,.64.41.73.73,0,0,1,.18.5c0,.5-.29.76-.88.76a.85.85,0,0,1-.69-.29,1.17,1.17,0,0,1-.25-.79.53.53,0,0,0-.37.14.56.56,0,0,0-.14.4.79.79,0,0,0,.36.68,1.73,1.73,0,0,0,1,.25,2,2,0,0,0,1.23-.37,1.21,1.21,0,0,0,.47-1,1.38,1.38,0,0,0-1-1.27,2.47,2.47,0,0,1-.63-.38.61.61,0,0,1-.21-.47.67.67,0,0,1,.22-.5.79.79,0,0,1,.58-.2.64.64,0,0,1,.54.25,1,1,0,0,1,.2.66c.41,0,.61-.17.61-.51m-4.42,1.31A1.41,1.41,0,0,0,15.11,94a.89.89,0,0,0-.29-.7A1.22,1.22,0,0,0,14,93.1a2.1,2.1,0,0,0-1.74.89,3.09,3.09,0,0,0-.7,2A1.7,1.7,0,0,0,12,97.2a1.52,1.52,0,0,0,1.15.45,1.73,1.73,0,0,0,1-.29.79.79,0,0,0,.38-.61.26.26,0,0,0-.08-.21,1.46,1.46,0,0,1-1.18.59q-.9,0-.9-1.11a2.93,2.93,0,0,1,0-.34h.29a2.83,2.83,0,0,0,1.69-.49M14.26,94a1.08,1.08,0,0,1-.47.91,2,2,0,0,1-1.19.35h-.08A3.83,3.83,0,0,1,13.05,94a.93.93,0,0,1,.74-.49c.31,0,.47.18.47.55m-4,1.77.95-4.47H9.63l-.07.35h.1c.38,0,.57.13.57.38a2.38,2.38,0,0,1-.05.37l-.67,3.14a7.56,7.56,0,0,0-.18,1.29.79.79,0,0,0,.19.56.61.61,0,0,0,.49.22,1.67,1.67,0,0,0,1.1-.49L11,96.92a1.24,1.24,0,0,1-.59.21c-.18,0-.27-.14-.27-.41a4.83,4.83,0,0,1,.12-.91m-2.49,0,.95-4.47H7.14l-.07.35h.09c.39,0,.58.13.58.38a2.38,2.38,0,0,1,0,.37L7,95.58a7.56,7.56,0,0,0-.18,1.29.79.79,0,0,0,.19.56.59.59,0,0,0,.48.22,1.71,1.71,0,0,0,1.11-.49l-.15-.24a1.21,1.21,0,0,1-.58.21c-.19,0-.28-.14-.28-.41a4.25,4.25,0,0,1,.13-.91m-2,1.76.07-.35H5.74a.53.53,0,0,1-.35-.09.64.64,0,0,1-.14-.34l-.77-5.07H3.84L1,96.58a2,2,0,0,1-.39.53.56.56,0,0,1-.37.11H.07L0,97.57H2l.06-.35H1.9c-.3,0-.45-.09-.45-.29a1,1,0,0,1,.15-.46l.49-.86H4.25l.13.92a2.27,2.27,0,0,1,0,.28c0,.28-.19.41-.58.41h-.2l-.06.35ZM4.19,95.2H2.34l.87-1.51a10.82,10.82,0,0,0,.64-1.22c0,.28,0,.72.13,1.3Z"/><path class="cls-1" d="M23.07,43.58c0-1-.94-1.3-2.06-1.3H19.87v2.65h1.24C22.38,44.93,23.07,44.67,23.07,43.58Z"/><path class="cls-1" d="M21.26,47.21H19.87v3.13h1.28c1.81,0,2.39-.78,2.39-1.57S23.09,47.21,21.26,47.21Z"/><polygon class="cls-1" points="32.81 47.85 35.44 47.85 34.1 43.24 32.81 47.85"/><path class="cls-1" d="M41.1,3.6A114.54,114.54,0,0,1,12.94,0V56.54H69.27V0A117.79,117.79,0,0,1,41.1,3.6ZM38.22,40a1.06,1.06,0,1,1-1,1.06A1.06,1.06,0,0,1,38.22,40Zm-8.29,0a1.06,1.06,0,1,1-1,1.06A1,1,0,0,1,29.93,40Zm-7.71,13H16.4v-13h5.17c2.31,0,4.49.65,4.49,3.12a2.87,2.87,0,0,1-1.27,2.51,3.84,3.84,0,0,1,2.58,3.67C27.37,52,24.9,52.92,22.22,52.92Zm14.72,0-.67-2.27H32l-.69,2.27H27.45l4.7-13H36l4.77,13Zm12.54,0-4.22-5.55v5.55H41.61v-13h3.65v5.44l4-5.44H53.8l-5.19,6.35,5.53,6.65Zm9.94.27a6.85,6.85,0,1,1,6.81-6.93A6.74,6.74,0,0,1,59.42,53.19Z"/><path class="cls-1" d="M59.47,42.7a3.65,3.65,0,1,0,3.61,3.55A3.58,3.58,0,0,0,59.47,42.7Z"/><path class="cls-1" d="M61.27,65c-.23,0-.41.1-.46.53h.82v-.07C61.63,65.21,61.5,65,61.27,65Z"/><path class="cls-1" d="M30.9,64.66a.48.48,0,0,0-.55-.53h-.41v1.18h.26C30.7,65.31,30.9,65.06,30.9,64.66Z"/><path class="cls-1" d="M12.94,59.89V79.21a117.51,117.51,0,0,0,28.28,3.35,117.45,117.45,0,0,0,28.05-3.3V59.89Zm7,7.14h-.5l-.56-1.65-.15-.45h0l-.16.45L18,67h-.5l-.9-3.46h.69l.46,1.81.09.44h0l.13-.44.51-1.47H19l.5,1.47.15.45h0l.11-.45.47-1.81h.66Zm3.46,0h-2V63.57h1.9v.57H22.08V65H23.2v.58H22.08v.88h1.31Zm1.33.06a2.07,2.07,0,0,1-.8-.14l.1-.57a1.87,1.87,0,0,0,.71.14c.34,0,.59-.2.59-.47,0-.67-1.41-.44-1.41-1.49,0-.59.41-1,1.28-1a2.65,2.65,0,0,1,.72.09l-.09.59a2.68,2.68,0,0,0-.63-.11c-.46,0-.62.19-.62.43,0,.61,1.42.43,1.42,1.47A1.12,1.12,0,0,1,24.72,67.08ZM28.59,67h-2V63.57h1.9v.57H27.29V65H28.4v.58H27.29v.88h1.3Zm2.35,0-.64-.88L30,65.66h0V67h-.66V63.57h1.14c.8,0,1.17.41,1.17,1.06a1,1,0,0,1-.86,1.1l1,1.29Zm2.43-1H32V65.5h1.39Zm2.68,1h-2V63.57H36v.57H34.74V65h1.12v.58H34.74v.88h1.31Zm3.77,0h-.65V65.66l0-.59h0l-.29.5-.46.77h-.33l-.47-.79-.27-.48h0l0,.59V67h-.64V63.56h.38l1,1.62.18.3h0l.18-.3,1-1.62h.38Zm1.46.06a2.07,2.07,0,0,1-.8-.14l.1-.57a1.87,1.87,0,0,0,.71.14c.34,0,.59-.2.59-.47,0-.67-1.41-.44-1.41-1.49,0-.59.41-1,1.28-1a2.65,2.65,0,0,1,.72.09l-.09.59a2.68,2.68,0,0,0-.64-.11c-.45,0-.61.19-.61.43,0,.61,1.41.43,1.41,1.47A1.11,1.11,0,0,1,41.28,67.08ZM44.56,66H43.17V65.5h1.39Zm3.8,1h-.65V65.66l0-.59h0l-.29.5-.46.77h-.33l-.47-.79-.27-.48h0l0,.59V67h-.64V63.56h.38l1,1.62.18.3h0l.18-.3,1-1.62h.38Zm1.49,0h-.67V63.57h.67Zm3-2.89H52V67h-.66V64.13h-.88v-.56h2.42Zm2.92,0h-.87V67h-.67V64.13h-.88v-.56H55.8ZM58.38,67h-2V63.57h1.9v.57H57.08V65h1.11v.58H57.08v.88h1.3Zm3.88-1-1.44,0a.57.57,0,0,0,.64.51,1.89,1.89,0,0,0,.57-.09l.08.52a1.82,1.82,0,0,1-.7.12,1.12,1.12,0,0,1-1.27-1.25c0-.84.43-1.3,1.18-1.3s.94.33.94,1.27Zm3.16.93a3,3,0,0,1-1,.15,1.55,1.55,0,0,1-1.66-1.73,1.71,1.71,0,0,1,1.8-1.85,2.82,2.82,0,0,1,.8.11l-.1.61a2.2,2.2,0,0,0-.7-.14,1.06,1.06,0,0,0-1.11,1.21c0,.87.4,1.21,1,1.21l.3,0v-1.2h.64Z"/></svg>