<svg id="Ebene_1" data-name="Ebene 1" xmlns="http://www.w3.org/2000/svg" xmlns:xlink="http://www.w3.org/1999/xlink" viewBox="0 0 1366 338"><defs><style>.cls-1{fill:none;}.cls-2{clip-path:url(#clip-path);}.cls-3{fill:#009ee2;}</style><clipPath id="clip-path"><rect class="cls-1" x="70" y="121.17" width="1225.38" height="89.16"/></clipPath></defs><title>baeko_icons</title><g class="cls-2"><path class="cls-3" d="M727,190v4.4a15.8,15.8,0,0,0,15.62,15.94h34a15.8,15.8,0,0,0,15.62-15.94V190a6.38,6.38,0,0,0-6.31-6.44H782a1.69,1.69,0,0,0,0,3.38H786a3,3,0,0,1,3,3.06v4.4a12.44,12.44,0,0,1-12.3,12.55h-34a12.44,12.44,0,0,1-12.3-12.55V190a3,3,0,0,1,3-3.06h23.08a1.69,1.69,0,0,0,0-3.38H733.35A6.39,6.39,0,0,0,727,190m15.62,12.82a1.7,1.7,0,0,0,0-3.39,5,5,0,0,1-4.93-5,1.66,1.66,0,1,0-3.32,0,8.35,8.35,0,0,0,8.25,8.42m.33-60a2.94,2.94,0,0,1-.06-4.4,1.72,1.72,0,0,0,.06-2.38,1.63,1.63,0,0,0-2.34-.07,6.37,6.37,0,0,0-.08,9.16,3.48,3.48,0,0,1,0,4.87,1.72,1.72,0,0,0,.06,2.39,1.63,1.63,0,0,0,1.14.46,1.66,1.66,0,0,0,1.21-.53,6.86,6.86,0,0,0,0-9.5m17.88,0a2.94,2.94,0,0,1-.07-4.4,1.71,1.71,0,0,0,.06-2.38,1.63,1.63,0,0,0-2.34-.07,6.38,6.38,0,0,0-.07,9.16,3.49,3.49,0,0,1,0,4.87,1.71,1.71,0,0,0,.07,2.39,1.62,1.62,0,0,0,1.13.46,1.65,1.65,0,0,0,1.21-.53,6.87,6.87,0,0,0,0-9.5m17.87,0a3,3,0,0,1-.07-4.4,1.72,1.72,0,0,0,.07-2.38,1.64,1.64,0,0,0-2.35-.07,6.38,6.38,0,0,0-.07,9.16,3.48,3.48,0,0,1,0,4.87,1.71,1.71,0,0,0,.07,2.39,1.63,1.63,0,0,0,2.34-.07,6.85,6.85,0,0,0,0-9.5M789,167.62H773.18a1.66,1.66,0,0,0-1.61,1.29c-1.51,6.33-.45,9.28.48,11.88a12.53,12.53,0,0,1,1,4.45,3.77,3.77,0,1,1-7.54,0,12.11,12.11,0,0,1,.95-4.45c.93-2.6,2-5.55.47-11.88a1.66,1.66,0,0,0-1.61-1.29H730.34V167a5.32,5.32,0,0,1,5.27-5.37,5.19,5.19,0,0,1,3.65,1.51,1.65,1.65,0,0,0,2.31,0,5.18,5.18,0,0,1,7.31,0,1.63,1.63,0,0,0,2.3,0,5.18,5.18,0,0,1,7.31,0,1.64,1.64,0,0,0,2.31,0,5.18,5.18,0,0,1,7.31,0,1.63,1.63,0,0,0,2.3,0,5.18,5.18,0,0,1,7.31,0,1.64,1.64,0,0,0,2.31,0,5.19,5.19,0,0,1,3.65-1.51A5.32,5.32,0,0,1,789,167Zm9.19,9.6a9.61,9.61,0,0,0-5.88-8.9V167a8.67,8.67,0,0,0-8.58-8.75,8.43,8.43,0,0,0-4.81,1.5,8.45,8.45,0,0,0-9.61,0,8.46,8.46,0,0,0-9.62,0,8.45,8.45,0,0,0-9.61,0,8.45,8.45,0,0,0-9.61,0,8.43,8.43,0,0,0-4.81-1.5A8.67,8.67,0,0,0,727,167v1.36a9.68,9.68,0,0,0-4,14.58,1.63,1.63,0,0,0,2.31.36,1.72,1.72,0,0,0,.36-2.37,6.22,6.22,0,0,1,4.9-9.89h33.38a13.79,13.79,0,0,1-.65,8.63,15.59,15.59,0,0,0-1.15,5.61,7.09,7.09,0,1,0,14.17,0,15.38,15.38,0,0,0-1.15-5.61,13.87,13.87,0,0,1-.65-8.63h14.22a6.22,6.22,0,0,1,4.9,9.89,1.72,1.72,0,0,0,.36,2.37,1.62,1.62,0,0,0,2.31-.36,9.59,9.59,0,0,0,1.84-5.68"/><path class="cls-3" d="M322.62,183.81c-5.38-.21-11.47-.45-18.25-.45-6.41,0-12.29.18-17.48.35-11.07.35-20.64.65-22.62-1.68a1.06,1.06,0,0,1-.26-.73c0-10.45,7.36-19.23,18.84-24.06l4.87,10.38a1.38,1.38,0,0,0,1.21.84,1.14,1.14,0,0,0,.67-.22,1.84,1.84,0,0,0,.52-2.26l-4.58-9.77a55.1,55.1,0,0,1,14.5-2.87l5.12,10.9a1.36,1.36,0,0,0,1.2.84,1.17,1.17,0,0,0,.68-.22,1.84,1.84,0,0,0,.52-2.26l-4.4-9.37,1,0a58.52,58.52,0,0,1,14.88,1.86,1,1,0,0,0,.05.16l5.29,11.26a1.35,1.35,0,0,0,1.2.84,1.26,1.26,0,0,0,.68-.21,1.86,1.86,0,0,0,.52-2.27l-4.07-8.67c13,4.52,21.58,13.81,21.62,25.06-.28,3.42-10.22,3-21.72,2.57m15.69,6.26c-1.24,1.61-3.35,2.42-6.27,2.42-.8,0-1.83,0-3.09,0l6.46-4.69a1.38,1.38,0,0,0,.34-.38c1.36,0,2.61-.12,3.73-.25a6.09,6.09,0,0,1-1.17,2.92m2.92,3.79c.06.13.16.31.27.52.45.77.54,1.1.41,1.41-.56,1.29-4.93,5.48-37.65,5.48h-.15c-32.73,0-37.09-4.19-37.65-5.48-.14-.31,0-.63.4-1.41.12-.21.22-.39.28-.52a1.09,1.09,0,0,1,.16-.28,7.9,7.9,0,0,0,4.78,1.33c1.93,0,7,.05,12.09.13h0a1.21,1.21,0,0,0,.18,0l2.61,1.9a1.21,1.21,0,0,0,.71.24,1.2,1.2,0,0,0,.79-.3l2-1.7a1.29,1.29,0,0,0,.19,0l22.6.35,5.45.08,2,1.69a1.22,1.22,0,0,0,.79.3,1.19,1.19,0,0,0,.71-.24l2.2-1.6c3.46,0,6,.07,7.6.07,3.72,0,6.51-1.17,8.3-3.49h0a9.3,9.3,0,0,1,.88,1.54m-53.6-.38L279,187.25c2.4-.05,5-.13,7.92-.22,2.69-.08,5.57-.17,8.61-.24Zm20.87-6.76a1.48,1.48,0,0,0,.42.59l5.81,4.9-1.41,0-19-.29,6-5c.05-.05.07-.11.12-.15,1.29,0,2.6,0,3.95,0s2.78,0,4.13,0m13.09,7.22-8.46-7.13c3.34.09,6.48.21,9.4.33s5.62.21,8.05.27Zm-47.84-6.69.06.08,6,4.32c-3.4,0-6.32-.06-7.69-.06a5.21,5.21,0,0,1-3.68-1.15l0,0a2.41,2.41,0,0,1-.36-.48,5.16,5.16,0,0,1-.32-3.14,42.38,42.38,0,0,0,6.07.46m30.42-37.37c-24.87,0-42.92,13.21-42.92,31.42a4.71,4.71,0,0,0,1.1,3.11A6.13,6.13,0,0,0,265,186.1a9.43,9.43,0,0,0,.44,5,4.53,4.53,0,0,0-.72,1.16l-.12.21a5.3,5.3,0,0,0-.58,4.85c1.36,3.12,7,7.26,40.1,7.26h.15c33.11,0,38.74-4.14,40.1-7.26a5.3,5.3,0,0,0-.58-4.85l-.11-.19a15.09,15.09,0,0,0-1.83-3,10.46,10.46,0,0,0,.44-2.7c3-.83,4.66-2.39,4.81-5.22a.41.41,0,0,0,0-.11c0-18.21-18.06-31.42-42.93-31.42"/><path class="cls-3" d="M913.59,139.34a3.08,3.08,0,0,1-.1-4.22,1.67,1.67,0,0,0-2.41-2.32,6.38,6.38,0,0,0-.1,8.63,3.88,3.88,0,0,1,0,4.86,1.67,1.67,0,0,0,.23,2.36,1.7,1.7,0,0,0,1.06.38,1.66,1.66,0,0,0,1.3-.62,7.2,7.2,0,0,0,0-9.07m16.81-7.06c-3.53-4.41-.47-7.88-.1-8.28a1.67,1.67,0,0,0-2.4-2.33c-2,2-4.49,7.23-.11,12.7,3.68,4.61.15,9.1,0,9.28A1.68,1.68,0,0,0,928,146a1.64,1.64,0,0,0,1.06.38,1.68,1.68,0,0,0,1.3-.61,10.72,10.72,0,0,0,0-13.5M949,139.34a3.07,3.07,0,0,1-.1-4.22,1.67,1.67,0,0,0-2.41-2.32,6.39,6.39,0,0,0-.11,8.63,3.88,3.88,0,0,1,0,4.86,1.67,1.67,0,0,0,.23,2.36,1.7,1.7,0,0,0,1.06.38,1.67,1.67,0,0,0,1.3-.62,7.2,7.2,0,0,0,0-9.07m27.14,46.24c0,5.84-19.3,12.35-47,12.35s-47-6.51-47-12.35c0-2.48,4.23-6.2,15.82-9-.28.6-.55,1.22-.8,1.85-3,.94-6.82,2.53-6.82,5.51,0,7.21,25,9.14,39.7,9.14s39.69-1.93,39.69-9.14c0-3.11-4.21-4.74-7.39-5.69-.1,0-.2,0-.3-.06-.19-.44-.38-.88-.59-1.33,10.78,2.82,14.69,6.42,14.69,8.76m-14.28-1a1.52,1.52,0,0,0,.42-.06,1.67,1.67,0,0,0,1.21-2c0-.13-.07-.25-.11-.38,2.6,1,3,1.77,3,1.77-.62,2-13.64,5.82-36.34,5.82s-35.74-3.79-36.35-5.75c0,0,.24-.6,2.05-1.44a.5.5,0,0,1,0,.13,1.68,1.68,0,0,0,3.23.92c3.45-12,10.76-18.29,16.46-20.12a10.39,10.39,0,0,1,8.1.36c-5.61,1.11-15.71,5.23-19.59,20.38a1.67,1.67,0,0,0,1.21,2,1.48,1.48,0,0,0,.41,0,1.68,1.68,0,0,0,1.63-1.26c4.19-16.37,16-18.1,19.27-18.26a8.15,8.15,0,0,1,.35,4.41c-3.52-.18-10.57,1.21-14.4,14a1.67,1.67,0,0,0,1.12,2.09,1.59,1.59,0,0,0,.48.07,1.69,1.69,0,0,0,1.61-1.2c2.9-9.66,7.45-11.51,10.33-11.61a48.14,48.14,0,0,1-6,10.93,1.67,1.67,0,0,0,1.33,2.69,1.66,1.66,0,0,0,1.33-.65c.57-.74,13.68-18.09,4.36-25.44a12.38,12.38,0,0,0-9.09-2.51,8.17,8.17,0,0,1,5.17-1.74c4.53,0,7.69,1.73,9.42,5.13,2.92,5.77,1.14,15.54-4.14,22.73a1.67,1.67,0,0,0,1.35,2.66,1.65,1.65,0,0,0,1.35-.68c6.07-8.27,7.93-19.29,4.43-26.22l-.1-.17a6.7,6.7,0,0,1,3.62,2.62c3.82,5.54.52,17.58-1.07,21.75a1.68,1.68,0,0,0,1,2.17,1.81,1.81,0,0,0,.6.11,1.68,1.68,0,0,0,1.57-1.08,54.87,54.87,0,0,0,2.25-8c1.34.9,3.2,2.84,4,6.94a1.68,1.68,0,0,0,1.65,1.35l.32,0a1.67,1.67,0,0,0,1.32-2c-1.23-6.37-4.74-8.87-6.72-9.8.1-.85.18-1.73.22-2.6,2.27.2,7.59,1.79,9.74,11.8a1.68,1.68,0,0,0,1.64,1.33,2.2,2.2,0,0,0,.36,0,1.68,1.68,0,0,0,1.28-2c-2.65-12.32-9.89-14.21-13-14.43a20.46,20.46,0,0,0-.39-2.75c4.57.64,13.31,3.62,16.63,16.71a1.68,1.68,0,0,0,1.62,1.27m-66.31,12.88c9.44,2.52,21.69,3.83,33.59,3.83,12.1,0,24.57-1.35,34.07-4-2.75,3.6-10.72,9.66-33.31,9.66-22.21,0-31-5.85-34.35-9.53m83.94-11.87c0-5.23-7-9.72-19.76-12.63a1.7,1.7,0,0,0-.5,0,21.32,21.32,0,0,0-16.83-9.79,9,9,0,0,0-.7-1.2c-2-2.92-5.19-4.44-9.45-4.55a14,14,0,0,0-9.24-3,11.67,11.67,0,0,0-10.63,6.6c-4.8,2.14-9.11,6.24-12.35,11.62-8.16,1.72-21.24,5.63-21.24,13,0,4.3,4.62,7.76,11.78,10.33,1.06,2.69,7.48,14.42,39.33,14.42,31.44,0,36.95-11.46,37.85-14.43,7.14-2.57,11.74-6,11.74-10.32"/><path class="cls-3" d="M1135.72,182.56c.38-1.61.64-3.1.82-4.41h0l.06-.42v0c0-.14,0-.28.05-.41v0c0-.13,0-.26,0-.39v0c0-.13,0-.25,0-.37v0l0-.36v0l0-.33v0c0-.11,0-.21,0-.32v0q0-.17,0-.3v0a2.46,2.46,0,0,1,0-.28v0c0-.09,0-.18,0-.26s0,0,0,0a2,2,0,0,1,0-.25v-.3a1.48,1.48,0,0,1,0-.21v-.26a.91.91,0,0,1,0-.17v-.64a.15.15,0,0,0,0-.07v-.08h0v-.07a1.49,1.49,0,0,0-1.21-1.41,1.39,1.39,0,0,0-.3,0h-2.24a10.94,10.94,0,0,0,.3-13.55,12.72,12.72,0,0,0-2-15.62,13,13,0,0,0-16-1.79,11.19,11.19,0,0,0-13.41,1.78,8.48,8.48,0,0,0-.58.63,12.93,12.93,0,0,0-12-8.05,13,13,0,0,0-8.5,3.16,12.8,12.8,0,0,0-4.09,6.78,11.18,11.18,0,0,0-5.86,3.88,12.84,12.84,0,0,0-5.52,5.55,25,25,0,0,0-3.16,11.91,11.5,11.5,0,0,0,1.31,5.32h-2.17a1.36,1.36,0,0,0-.29,0,1.47,1.47,0,0,0-1.21,1.41.35.35,0,0,0,0,.07h0v1a.08.08,0,0,0,0,0v.22a1.48,1.48,0,0,0,0,.21v0a1.85,1.85,0,0,0,0,.23v0c0,.08,0,.17,0,.25v0c0,.09,0,.18,0,.27v0c0,.09,0,.18,0,.28v0c0,.1,0,.21,0,.31v0l0,.32v0l0,.34v0c0,.12,0,.24,0,.36v0c0,.13,0,.25,0,.38v0c0,.13,0,.26,0,.4h0a48.5,48.5,0,0,0,1.12,6,43.46,43.46,0,0,0,12,21.06,20.81,20.81,0,0,0,14.34,6h21.44a20.83,20.83,0,0,0,14.35-6,44,44,0,0,0,12-21.06l.15-.62h0l0-.14m-21-39.63a1.52,1.52,0,0,0,1.77,0,10,10,0,0,1,12.93.92,9.77,9.77,0,0,1,1,12.73,1.47,1.47,0,0,0,.11,1.89,8,8,0,0,1-.23,11.17,7.81,7.81,0,0,1-1.65,1.27h-23.16l2.76-2.8a6.18,6.18,0,0,1,6.6,1.34,1.5,1.5,0,0,0,1.1.48,1.5,1.5,0,0,0,1.11-2.51,9.3,9.3,0,0,0-5.48-2.68l2.47-2.5a.9.9,0,0,0,.19-.15c2.9-2.88,7-.33,7.19-.21a1.51,1.51,0,0,0,2.08-.43,1.48,1.48,0,0,0-.43-2.07,10.87,10.87,0,0,0-4.63-1.59l4-4.07a1.5,1.5,0,0,0,0-2.12,1.53,1.53,0,0,0-2.14,0l-3.9,4a10.67,10.67,0,0,0-1.58-4.37,1.51,1.51,0,0,0-2.08-.43,1.49,1.49,0,0,0-.45,2.07c.11.16,2.48,3.89.15,6.73l-3,3.07a9.17,9.17,0,0,0-2.7-5.47,1.52,1.52,0,0,0-2.14.08,1.48,1.48,0,0,0,.09,2.11,6.05,6.05,0,0,1,1.21,6.86l-4.39,4.45a1.37,1.37,0,0,0-.19.23h-2.18l0-.17,0-.18,0-.29c0-.06,0-.12,0-.17s0-.24,0-.36a.31.31,0,0,0,0-.1c0-.15,0-.3,0-.45l2-2.22a1.49,1.49,0,0,0,0-2,7.11,7.11,0,0,1,.43-9.66c.17-.16.36-.33.55-.48a1.51,1.51,0,0,0,.4-1.81l-.18-.38,0-.07a8.11,8.11,0,0,1-.16-5.68l0-.09.11-.3,0-.1c0-.11.09-.22.14-.33a8.06,8.06,0,0,1,1.61-2.26,8.16,8.16,0,0,1,10.44-.89m-41.08,27.95a3.63,3.63,0,1,1,.9,0Zm8.14,0v0c0-.13-.06-.26-.09-.39a.44.44,0,0,0,0-.1c0-.1,0-.2,0-.3s0-.08,0-.13a2.64,2.64,0,0,1,0-.28.49.49,0,0,1,0-.12c0-.14,0-.27,0-.41s0-.28,0-.41a.37.37,0,0,1,0-.11c0-.11,0-.21,0-.32s0-.07,0-.11,0-.21.05-.32l0-.08c0-.14,0-.27.08-.4h0a8,8,0,0,1,.26-.83v0l.15-.36,0-.06.15-.31a.3.3,0,0,0,0-.08c.06-.11.12-.22.19-.33l0,0,.21-.33.1-.14.13-.17.13-.17.11-.13.15-.18.09-.09a4.68,4.68,0,0,1,.39-.38l0,0,.2-.17.1-.09.2-.15.12-.09a7.72,7.72,0,0,1,1.46-.82h0a7.05,7.05,0,0,1,1-.34h0l.29-.07h.06c.22,0,.45-.08.68-.1h.08l.26,0h1.17l.16,0,.2,0,.17,0,.19,0,.16,0,.19,0,.16,0,.18,0,.16.06.18.06.15.05.18.07.14.06.18.09.13.06.19.09.11.07.2.11.1.06.2.13.08.05.22.15.06,0,.22.17,0,0,.22.19a.08.08,0,0,1,0,0l.23.21,0,0,.23.24h0a7.23,7.23,0,0,1,1.67,3.06c0,.11.06.22.08.33h0a7.31,7.31,0,0,1,.14,1.06h0a.76.76,0,0,1,0,.15c0,.09,0,.19,0,.28s0,.27,0,.41a.49.49,0,0,0,0,.12l0,.28c0,.05,0,.09,0,.13s0,.2,0,.3,0,.07,0,.1,0,.26-.08.39v0Zm6.61-12h-.15l-.37,0-.15,0-.37,0-.13,0-.38.07-.1,0-.4.09-.07,0-.43.12h0a8.14,8.14,0,0,0-.87.31c0-.19-.11-.38-.16-.57s0-.12,0-.18l-.12-.42-.07-.21-.12-.38a1.72,1.72,0,0,1-.07-.21l-.15-.43a1.21,1.21,0,0,1,0-.14c-.07-.19-.15-.38-.22-.56l-.06-.15-.17-.41a1.54,1.54,0,0,0-.08-.19l-.15-.33a1.4,1.4,0,0,0,.46.16s3.82.73,4.71,3.25h-.26m-9.85-11.93a1.5,1.5,0,0,0,1.24-1.26,9.91,9.91,0,0,1,19.58-.11,1.46,1.46,0,0,0,.12.39v0a10.92,10.92,0,0,0,.08,7.31l-.22.23-.1.12-.17.19-.14.16-.12.15a1.84,1.84,0,0,1-.17.22l-.08.12-.19.26-.07.11-.18.28,0,0c-.15.25-.29.51-.42.77l0,0a10.1,10.1,0,0,0-1,4c0,.12,0,.24,0,.36v.12a1.93,1.93,0,0,1,0,.24v.14c0,.08,0,.15,0,.23a.57.57,0,0,0,0,.13,2.29,2.29,0,0,0,0,.25s0,.07,0,.11,0,.22,0,.33v0l.06.35s0,.07,0,.11a.85.85,0,0,0,0,.17l-.23-.25-.07-.08a3.19,3.19,0,0,0-.26-.26l-.1-.11-.26-.24-.13-.12-.25-.22-.15-.12-.25-.19-.18-.13-.24-.18-.21-.13-.23-.15-.28-.16-.18-.1c-.15-.08-.3-.16-.46-.23l-.16-.07-.33-.15-.19-.07a1.75,1.75,0,0,0-.32-.12l-.2-.07-.21-.07v-.25c.76-2.66,4.73-3.44,4.78-3.45a1.49,1.49,0,0,0,1.21-1.73,1.5,1.5,0,0,0-1.75-1.2,12.3,12.3,0,0,0-3.54,1.31,9.47,9.47,0,0,0-.82.51l-.14-5.42a1.51,1.51,0,0,0-3,.08l.14,5.34a8,8,0,0,0-.81-.51,12.3,12.3,0,0,0-3.54-1.31,1.5,1.5,0,0,0-1.75,1.2.09.09,0,0,0,0,.05l-.14-.25-.1-.16c-.06-.12-.13-.23-.19-.33l-.11-.18-.21-.32a1.3,1.3,0,0,0-.1-.15c-.1-.15-.2-.31-.31-.46l-.27-.37-.07-.09-.27-.34h0l-.29-.34-.07-.08-.27-.31h0l-.29-.3-.07-.07-.29-.28h0l-.3-.27-.07-.06-.29-.24v0l-.31-.23-.07-.05-.29-.21h0l-.31-.2-.07,0-.29-.17,0,0-.32-.16-.08,0-.29-.13,0,0-.32-.12-.08,0-.29-.1h0a8.36,8.36,0,0,1,2.41-.81m-13.07,18.62a21.88,21.88,0,0,1,2.77-10.44c1.54-2.7,3.43-4.35,5.27-4.64h0l.16,0h.4l.32,0h.11l.21,0,.13,0,.19,0,.14,0,.19.06.14.06.18.07.14.06.18.09.14.08a1,1,0,0,1,.17.1l.15.09.17.11.14.1.17.12.15.12.16.13a.86.86,0,0,1,.14.13l.17.15.14.13.16.16a1.85,1.85,0,0,1,.14.14l.16.18.14.14a1.46,1.46,0,0,0,.16.19l.13.16.16.2.12.16a1.77,1.77,0,0,1,.16.22l.12.16.16.24.11.16.16.26.11.16.16.28.1.15.18.34.06.11c.17.31.33.63.48.95a1.12,1.12,0,0,1,0,.13c.06.12.12.24.17.37s0,.12.07.17a3.45,3.45,0,0,1,.14.34c0,.06.05.13.08.2l.12.32.08.21.11.32c0,.07,0,.15.08.23s.06.2.1.31,0,.16.07.24l.09.31c0,.09,0,.17.07.25l.09.32.06.25c0,.11,0,.21.08.32a2,2,0,0,1,.05.26,1,1,0,0,1,0,.17l-.27.24v0l-.34.31,0,0-.3.32,0,0-.29.33,0,.06-.27.33,0,.06c-.22.3-.43.61-.62.92,0,0,0,.09-.07.13a6.66,6.66,0,0,0-12.45,3.22,6.46,6.46,0,0,0,1.07,3.57h-1.17a8.5,8.5,0,0,1-1.87-5.32m1.18,8.31h6.83l.61,0,.61,0h59.23a44.76,44.76,0,0,1-.91,7h-69l0-.06-.09-.46s0,0,0-.07l-.09-.46a.5.5,0,0,1,0-.12c0-.15-.06-.3-.08-.45s0-.07,0-.1,0-.26-.06-.39,0-.06,0-.08l-.06-.42s0-.08,0-.12l-.06-.4s0-.07,0-.11,0-.23,0-.34a.15.15,0,0,0,0-.07c0-.13,0-.26,0-.38a.41.41,0,0,1,0-.11c0-.12,0-.24,0-.35a.34.34,0,0,1,0-.1l0-.31a.13.13,0,0,1,0-.06l0-.33s0-.06,0-.09,0-.21,0-.31v-.07c0-.1,0-.2,0-.29v0c0-.09,0-.19,0-.28v-.06c0-.09,0-.18,0-.26v-.06c0-.09,0-.17,0-.25Zm54.84,28.36a17.8,17.8,0,0,1-12.25,5.11h-21.44a17.8,17.8,0,0,1-12.25-5.11,40.59,40.59,0,0,1-10.8-18.38h67.54a40.34,40.34,0,0,1-10.8,18.38"/><path class="cls-3" d="M476.12,162.19a1.89,1.89,0,1,0-1.89-1.88,1.89,1.89,0,0,0,1.89,1.88m-15.59,6.6a1.89,1.89,0,1,0-1.89-1.88,1.89,1.89,0,0,0,1.89,1.88m-14.83-5.25a1.89,1.89,0,1,0-1.9-1.89,1.89,1.89,0,0,0,1.9,1.89m43,38.73-54.79,0,0-27.46a2.24,2.24,0,0,1,1.08.32l.22.11a5.38,5.38,0,0,0,7.16,0,2.21,2.21,0,0,1,2.7,0,5.38,5.38,0,0,0,7.17,0,2.19,2.19,0,0,1,2.7,0,5,5,0,0,0,3.31,1.34l.27,0h0l.29,0a5.08,5.08,0,0,0,3.29-1.35,2.21,2.21,0,0,1,2.69,0,5.38,5.38,0,0,0,7.17,0,2.22,2.22,0,0,1,2.7,0,5.38,5.38,0,0,0,7.17,0,2.22,2.22,0,0,1,2.7,0,4.49,4.49,0,0,0,1.67,1h0a5.48,5.48,0,0,0,2.5.3Zm-53.13-51.89a1.56,1.56,0,0,1,1.22-.65,5.62,5.62,0,0,1,1,.14,5.25,5.25,0,0,0,4.9-1c1.47-1.24,1.21-3.09,1-4.58-.3-2.09-.3-3,1-3.82,1.14-.71,1.75-.39,3.34.66,1.39.91,3.3,2.16,5.84,1.5,2.75-.72,3.59-3.29,4.25-5.36.74-2.29,1.17-3.24,2.43-3.35s1.84.71,2.91,3.41c.87,2.17,2,4.88,4.85,5,2.24.13,4.12-1,5.8-2,2.3-1.4,3.36-1.89,4.57-1.06.88.6.58,1.79-.46,4.39-.25.65-.51,1.3-.7,1.93a15.34,15.34,0,0,0-8-2.25,14.74,14.74,0,0,0-3.33.41l-5.64-4.8-10.14,8.44a15.23,15.23,0,0,0-10.09,4.2,6.26,6.26,0,0,0-.94.1l-.37.09a7.1,7.1,0,0,0-.86.27l-.42.17a8.23,8.23,0,0,0-.86.49,3.53,3.53,0,0,0-.32.21,5.55,5.55,0,0,0-1,1s0,0,0,0c-.52-1.42-.65-2.75.08-3.53m24.15,1.15a12.25,12.25,0,0,1,6.46-4.55l.1,0,.43-.12a11.94,11.94,0,0,1,2.81-.34,12.23,12.23,0,0,1,9.88,5Zm-4.93-3.67,5.74-4.78,2.18,1.85-.33.19a15.65,15.65,0,0,0-2.09,1.32l-.42.32c-.33.27-.65.56-1,.86-.13.11-.24.24-.36.36-.31.31-.61.62-.89,1l-.36-.16-.57-.25q-.62-.25-1.26-.45c-.19-.07-.39-.14-.58-.19l-.1,0m.89,3.67h-9.71a12.23,12.23,0,0,1,5.43-1c.32,0,.64,0,.95.07l.58.09a9.18,9.18,0,0,1,1,.23l.38.09a11.7,11.7,0,0,1,1.33.49m26.26,3.16H482a3.47,3.47,0,0,1,1.67.37.18.18,0,0,0,.07.05,2.11,2.11,0,0,1,.37.28,2.22,2.22,0,0,1,.3.31l0,.05a3.7,3.7,0,0,1,.59,1.41l.07.33c0,.13,0,.24,0,.33V172h0a5.61,5.61,0,0,0-1.29-.29l-.32,0a5.82,5.82,0,0,0-1.32.06h0a5,5,0,0,0-1.26.4l-.28.13a4.78,4.78,0,0,0-1.07.75,2.19,2.19,0,0,1-2.69,0,5.38,5.38,0,0,0-7.17,0,2.21,2.21,0,0,1-2.7,0,5.37,5.37,0,0,0-7.17,0,2.19,2.19,0,0,1-2.7,0,4.2,4.2,0,0,0-.93-.68,5.46,5.46,0,0,0-5.26,0,4.27,4.27,0,0,0-1,.7,2.21,2.21,0,0,1-2.69,0,5.38,5.38,0,0,0-7.17,0,1.47,1.47,0,0,1-.6.34h0a2.41,2.41,0,0,1-.72.11h-.07a2.48,2.48,0,0,1-.68-.11.91.91,0,0,1-.17-.09,1.71,1.71,0,0,1-.42-.24V157.86a3,3,0,0,1,3.13-3.14Zm.92-4.21c1.77-.36,2.51-.4,3.21.54a2.94,2.94,0,0,1,.43,2.25c-.09-.09-.2-.16-.3-.25l-.37-.31c-.2-.14-.41-.27-.62-.39a4.52,4.52,0,0,0-.49-.25,6.21,6.21,0,0,0-.76-.27c-.17-.05-.33-.1-.52-.14l-.29,0c-.19-.36-.36-.73-.58-1.07l.29-.06m8.11,22.44a1.58,1.58,0,0,0-1.66.15,2.09,2.09,0,0,1-1,.35v-15.6c0-.19,0-.39-.05-.59,1.56-2.33,2.17-5.67.37-8.1-2-2.66-4.63-2.12-6.39-1.76-1.24.25-1.72.3-1.87.12a8.54,8.54,0,0,1,.79-2.68c1-2.41,2.42-6.05-.69-8.19s-5.8-.39-8,1c-1.4.86-2.75,1.66-4,1.59-.82,0-1.33-1.18-2.07-3-1-2.41-2.27-5.75-6.15-5.39-3.49.3-4.46,3.32-5.17,5.53-.6,1.85-1,3-2,3.26s-2-.22-3.3-1.08c-1.62-1.07-3.84-2.52-6.76-.7-3.18,2-2.73,5.11-2.46,7a6,6,0,0,1,.12,1.68c-.73.62-1.19.56-2.25.35a4.9,4.9,0,0,0-5.16,1.46c-2.93,3.14-.5,7.86,1,10.14V171.7a5.44,5.44,0,0,0-2.58.41,1.59,1.59,0,0,0-1,1.46l0,30.34a1.59,1.59,0,0,0,1.59,1.59l58-.05a1.59,1.59,0,0,0,1.59-1.59l0-29.52a1.62,1.62,0,0,0-.89-1.42"/><path class="cls-3" d="M607.1,186.77l-1.22-1.22a1.72,1.72,0,1,0-2.43,2.43l1.22,1.22a1.72,1.72,0,1,0,2.43-2.43m-27.24,7.15h-2.7a1.72,1.72,0,1,0,0,3.43h2.7a1.72,1.72,0,0,0,0-3.43m9.68-34.51a1.72,1.72,0,1,0-3.43,0v2.19a1.71,1.71,0,0,0,.5,1.23,1.68,1.68,0,0,0,1.2.5,1.73,1.73,0,0,0,1.73-1.71Zm19.52,8.26a1.72,1.72,0,0,0-2.43,0l-1.27,1.27a1.71,1.71,0,0,0,2.43,2.42l1.27-1.27a1.71,1.71,0,0,0,0-2.42M603,179.33a8.58,8.58,0,0,0,12.1,0,1.74,1.74,0,0,0,0-2.43,1.72,1.72,0,0,0-2.43,0,5.12,5.12,0,0,1-7.24,0,1.72,1.72,0,1,0-2.43,2.43m-17.57,6.76a1.73,1.73,0,0,0-.26-2.42,2.53,2.53,0,0,1-.94-1.74,2.56,2.56,0,0,1,.56-1.9,1.72,1.72,0,1,0-2.67-2.16,6,6,0,0,0,.42,8,4.79,4.79,0,0,0,.47.43,1.73,1.73,0,0,0,2.42-.25m9.49-.08a1.7,1.7,0,0,0-1.84,1.58,2.59,2.59,0,0,1-2.77,2.39,1.72,1.72,0,0,0-1.35,2.93,1.76,1.76,0,0,0,1.09.5,6,6,0,0,0,6.45-5.57,1.69,1.69,0,0,0-1.58-1.83M591,169.29a3.55,3.55,0,1,1,0,5,3.54,3.54,0,0,1,0-5m7.45,7.45a7,7,0,1,0-9.88,0,7,7,0,0,0,9.88,0m34.76,15.93a4.89,4.89,0,0,1-5.59-3.78,53,53,0,0,0-7.82-19.18,54.14,54.14,0,0,0-15.23-15.23,53,53,0,0,0-19.18-7.82,4.77,4.77,0,0,1,1.81-9.37,63.88,63.88,0,0,1,11.67,3.46,62.2,62.2,0,0,1,11,5.77,63.82,63.82,0,0,1,17.94,17.93,62.65,62.65,0,0,1,5.77,11A63.65,63.65,0,0,1,637,187.08a4.76,4.76,0,0,1-3.78,5.59m-65.08,13.45,16-56.28a6.36,6.36,0,0,0,.62.19,49.64,49.64,0,0,1,9.25,2.74,49.84,49.84,0,0,1,30.26,36.78c0,.21.11.42.17.63Zm71-13.54a8.17,8.17,0,0,0,1.26-6.15,66.2,66.2,0,0,0-9.73-23.87,67.43,67.43,0,0,0-18.91-18.91,66.2,66.2,0,0,0-23.87-9.73,8.17,8.17,0,0,0-6.83,14.28l-17,59.94a1.71,1.71,0,0,0,.44,1.68h0a1.71,1.71,0,0,0,1.68.44l60-17a5.15,5.15,0,0,0,.43.5,8.2,8.2,0,0,0,12.6-1.2"/><path class="cls-3" d="M1276.62,193h0c-1.54,1.29-8.31,3.27-20.15,3.27-12.08,0-19-2.26-20.16-3.27h0a35.38,35.38,0,0,1-14.56-20.93c5.12,2.35,14.12,3.59,22.74,4.16h.12l1.3.08.86,0,1.35.07,1.44.06.78,0,1.61.05h.31l1.9,0h4.64l1.86,0h.38l1.55-.05.79,0,1.37-.06,1.45-.07.83,0,1.3-.08h.16c8.61-.57,17.59-1.82,22.69-4.16A35.34,35.34,0,0,1,1276.62,193m-20.15,13.85c-11.54,0-18.22-1.78-19.4-2.79v-6.91c4.17,1.56,11.44,2.56,19.4,2.56,8.21,0,15.28-1,19.4-2.53v6.87c-1.18,1-7.85,2.8-19.4,2.8M1223.28,166a7.73,7.73,0,0,0-1,2.65c-.77-.4-1.24-.78-1.36-1.11.07-.12.49-.74,2.32-1.54m8.93-.54a1.71,1.71,0,0,0,0-1.88s-1-1.68-.14-2.64c1.1-1.21,3.32-.19,3.33-.18a1.76,1.76,0,0,0,1.49,0,1.72,1.72,0,0,0,.93-1.15s.54-1.63,3.6-1.63h0a4.8,4.8,0,0,1,4.55,5,1.72,1.72,0,1,0,3.44,0,8.63,8.63,0,0,0-4.5-7.55,1.64,1.64,0,0,1,1.21-.95,4.77,4.77,0,0,1,.78-.07,2.55,2.55,0,0,1,1.28.29,1.72,1.72,0,0,0,3-1.57A5.36,5.36,0,0,1,1251,150a2.54,2.54,0,0,1,2.9-1.77,4.43,4.43,0,0,1,3.2,2.2,4.88,4.88,0,0,0-.58.34,5.09,5.09,0,0,0-2.12,3.48,5.9,5.9,0,0,0,.71,4.15,5.16,5.16,0,0,0-2.83,2.94,1.72,1.72,0,0,0,3.19,1.27c.77-1.94,3.73-1.22,3.85-1.18a1.72,1.72,0,0,0,1.07-3.26l-.22-.09c-1.74-.66-2.69-1.4-2.38-3.27a1.62,1.62,0,0,1,.66-1.2,2.53,2.53,0,0,1,1.2-.37l1.52.08a1.7,1.7,0,0,0,.68-.09h0a1.68,1.68,0,0,0,.42-.22,1.74,1.74,0,0,0,.66-.9s0-.1,0-.16h0v0a1.25,1.25,0,0,1,1.36-.95c1.75,0,2.08,2.6,2.09,2.7a1.71,1.71,0,0,0,3,1l-1.53,5.59a4.52,4.52,0,0,0-1.67-1,1.72,1.72,0,0,0-1.08,3.26c1.06.35,1.07,2.43,1,3a1.8,1.8,0,0,0,1.48,2,1.62,1.62,0,0,0,1.89-1.4c.11-.23,1-.85,3.48-.71,3.14.18,3.45,2.29,3.48,2.72a1.77,1.77,0,0,0,1.77,1.63,1.73,1.73,0,0,0,1.66-1.78,6.24,6.24,0,0,0-3.22-5.06l.7-1.81a1.7,1.7,0,0,0,1.81.23,4.47,4.47,0,0,1,2.76-.07c1,.41,1.19.94,1.25,1.11a4,4,0,0,1-.41,2.66,1.72,1.72,0,0,0,1.5,2.55,2.33,2.33,0,0,1,1.58.81,2.21,2.21,0,0,1,.5,1.82c-5.23,1.45-14,2.8-25.9,3a8,8,0,0,0-6.93-7.57,1.69,1.69,0,0,0-1.86,1.56,1.72,1.72,0,0,0,1.57,1.86,4.56,4.56,0,0,1,3.81,4.19h-.83c-1.3,0-2.57,0-3.81,0H1252c-12.39-.3-21.38-1.78-26.41-3.3a4.16,4.16,0,0,1,1.26-3,5,5,0,0,1,3.59-.74,1.69,1.69,0,0,0,1.74-.71m47.41-35a2.82,2.82,0,0,1,2.69-1.92,2.72,2.72,0,0,1,.89.14,2.81,2.81,0,0,1,1.64,1.42,2.77,2.77,0,0,1,.18,2.06l-11.65,29.8h-.16a13.41,13.41,0,0,0-2.23,0ZM1292,167.49c-.15.44-.92,1-2.19,1.51a5.57,5.57,0,0,0-1.29-2.92,5.78,5.78,0,0,0-1-.93c3.82,1.21,4.47,2.23,4.53,2.34m3.35-.59c-.41-2.32-3.25-4.11-8.82-5.57l0-.14a5.44,5.44,0,0,0-3.28-3.2,8.58,8.58,0,0,0-2.38-.41,6.19,6.19,0,0,0-.67-3.55l8.11-20.74a6.16,6.16,0,0,0-.34-4.76,6.25,6.25,0,0,0-3.62-3.15,6.32,6.32,0,0,0-8,4l-5.71,20.87a7.24,7.24,0,0,0-1.5.44,5.18,5.18,0,0,0-4.76-3.2,4.62,4.62,0,0,0-3.87,1.86,8,8,0,0,0-6.24-4.59,6,6,0,0,0-6.46,4,6.6,6.6,0,0,0-.31,2.08,8.93,8.93,0,0,0-1.81.09,5.16,5.16,0,0,0-4,3.52h-.16c-3.4,0-5.18,1.38-6.08,2.57a5.78,5.78,0,0,0-5.81,1.51,4.64,4.64,0,0,0-1.13,2.24c-6.92,1.53-10.4,3.49-10.84,6.09a6.39,6.39,0,0,0,0,1.16,38.7,38.7,0,0,0,16.06,27.27v9.21c.07,1,1.51,5.76,22.83,5.76s22.75-4.8,22.83-5.88v-9.09a38.71,38.71,0,0,0,16.07-27.27,6.93,6.93,0,0,0,0-1.19"/><path class="cls-3" d="M151.57,166a1.68,1.68,0,0,0,1.3.61,1.7,1.7,0,0,0,1.06-.38,1.68,1.68,0,0,0,.23-2.36,3.87,3.87,0,0,1,0-4.86,6.37,6.37,0,0,0-.11-8.63,1.68,1.68,0,0,0-2.41,2.33,3,3,0,0,1-.09,4.21,7.19,7.19,0,0,0,0,9.08m-10.38-8.1a1.68,1.68,0,0,0,.24,2.36,1.62,1.62,0,0,0,1.06.38,1.67,1.67,0,0,0,1.29-.61,10.7,10.7,0,0,0,0-13.5c-3.54-4.41-.48-7.88-.11-8.28a1.67,1.67,0,0,0-2.4-2.33c-1.95,2-4.49,7.23-.11,12.7,3.68,4.61.16,9.1,0,9.28m-54-1.32a2.06,2.06,0,1,0,2.06,2.06,2.06,2.06,0,0,0-2.06-2.06m.46,44.88a2.07,2.07,0,1,0,2.06,2.07,2.07,2.07,0,0,0-2.06-2.07M120,198.75a2.07,2.07,0,1,0,2.06,2.06,2.06,2.06,0,0,0-2.06-2.06m-.74-52a2.06,2.06,0,1,0,2.07,2.06,2.06,2.06,0,0,0-2.07-2.06m-20.36-5.25a2.07,2.07,0,1,0,2.06,2.06,2.06,2.06,0,0,0-2.06-2.06M90.81,179.4a8.22,8.22,0,1,1,5.55,10.22,8.23,8.23,0,0,1-5.55-10.22m-3.29-1a11.66,11.66,0,0,0,7.86,14.48,11.46,11.46,0,0,0,3.3.48,11.65,11.65,0,1,0-11.16-15m95.37,10.95c-.44,4.23-4.47,6.75-7.78,7.61l-1.6.41-3.79,1a28,28,0,0,0,6.24-16,8.8,8.8,0,0,1,5.63,2.4,5.84,5.84,0,0,1,1.3,4.62m-24.23,13.49a3.44,3.44,0,0,0-1.92,3.08v.74H138.82V206a3.41,3.41,0,0,0-1.92-3.08,24.87,24.87,0,0,1-7.88-6v-19h43.57v2.71a24.68,24.68,0,0,1-13.93,22.29M105,153.17a5.36,5.36,0,0,1,1,.09c8.67,1.59,12.22,10.85,13.67,18.35,1.6,8.25-1.76,16.14-9.45,22.23-5.35,4.24-14.82,3.76-19.6,1.79-2.16-.89-2.81-1.8-2.86-2.16-.74-6.24-2.85-8.34-4.89-10.36a16.49,16.49,0,0,1-4.37-6.51,7.45,7.45,0,0,1-.29-.92v-2.55a3.35,3.35,0,0,1,.19-.53c1.27-2.65,5.53-4,8.08-4.81a15.64,15.64,0,0,0,2.09-.75c3.7-1.83,6.06-4.39,7-7.6.75-2.53,5.52-6.27,9.43-6.27m21.66,5.57-1.08.43v43.71a3.82,3.82,0,0,1-4,4H82.22a3.83,3.83,0,0,1-4-4V183.09a25.65,25.65,0,0,0,2.24,2.45c1.91,1.91,3.3,3.28,3.91,8.33.23,2,1.94,3.7,5,4.94a25.46,25.46,0,0,0,6.82,1.59,2,2,0,0,0,3.87.13c4.34-.14,8.89-1.25,12.35-4,8.75-6.92,12.54-16,10.69-25.58-2.37-12.25-8-19.53-16.42-21.07a10.94,10.94,0,0,0-5.92.74,2.57,2.57,0,0,0-4.39,1.81,2.36,2.36,0,0,0,.14.65,12,12,0,0,0-4.16,5.38c-.67,2.26-2.43,4.11-5.24,5.5a16.81,16.81,0,0,1-1.61.56,25.34,25.34,0,0,0-7.23,3.26v-8.61l-1.07-.43c-2.59-1.05-3.7-2.59-3.7-5.17a10.5,10.5,0,0,1,3-7,2.06,2.06,0,1,0,2.25-2.1c5.21-4.11,13.75-6.85,23.2-6.85,15.43,0,28.47,7.29,28.47,15.91,0,2.58-1.11,4.12-3.7,5.17m57.49,23.73c-1.8-2-4.59-3.21-8.13-3.56v-2.76a1.72,1.72,0,0,0-1.72-1.71H129v-13a8.26,8.26,0,0,0,4.77-7.86c0-10.85-14-19.34-31.9-19.34S70,142.72,70,153.57a8.26,8.26,0,0,0,4.77,7.86v11.16a8,8,0,0,0,0,3.52v26.77a7.24,7.24,0,0,0,7.45,7.45h39.35a7.25,7.25,0,0,0,7.45-7.45v-1.23a28.51,28.51,0,0,0,6.37,4.3v2.46a1.71,1.71,0,0,0,1.71,1.71h21.35a1.72,1.72,0,0,0,1.72-1.71V206a29.47,29.47,0,0,0,3.63-2.12h0c1.79-.89,7.7-2.39,10.55-3.11l1.61-.41c4.38-1.15,9.71-4.61,10.34-10.59a9.17,9.17,0,0,0-2.16-7.26"/></g></svg>