<svg id="Ebene_1" data-name="Ebene 1" xmlns="http://www.w3.org/2000/svg" viewBox="0 0 2046.52 372.1"><defs><style>.cls-1{fill:#fff;}</style></defs><title>Zeichenfläche 1</title><path class="cls-1" d="M1989.84,167.49c-1.7-6.52-4.25-13.88-6.23-17.56,0,0,1.13-1.15,3.4.27s16.71,11.34,16.71,11.34c7.37,10.77,11.9,55,12.18,70.84-6.8-3.12-16.43-8.5-22.67-14.46Zm-43.64-41.1a322.16,322.16,0,0,1-31.47-39.66c6.24-11.92,10.78-43.37,7.94-55.55-1.13-3.7-11.34-17.3-13-19.28C1907.08,9.35,1898.87,0,1894.9,0a3.34,3.34,0,0,0-2,.57l1.14,10.49c-11.06,7.08-25.51,16.72-38.55,26.35,0,3.68.28,9.34.57,11.34a20.77,20.77,0,0,0,6.8,4c5.1-.86,21-4.83,25.22-4.26L1872.52,72l-17.87,12.75-22.38-7.07a3.52,3.52,0,0,0-3.69,1.13l-16.43,17.86a4.43,4.43,0,0,0-1.42,3.67l-.57,20.14s-.28,3.1-.28,6.51c0,14.45,6.51,21.25,6.51,21.25l10.78-15.6a48.76,48.76,0,0,1-4.55-11.31c0-.58.29-17.3.29-17.3l10.49-7.66,27.77,19.56s7.65,14.18,15,22.68c4.81,5.95,28.89,22.1,40.51,28.9a164.57,164.57,0,0,0,5.67,21.81l34,34.87-20.12,25.21c-7.08,4.54-13.9,12.76-13.33,20.42h23.25l2.55-13.33,27.78-30.88c1.41-1.7,1.41-2.56.57-5.11l-7.95-26.63c4-4.55,12.46-15.86,12.46-29.48,0-24.66-26.92-30.89-35.42-38ZM1820.92,75.66c-.85.29-21.53,6-21.53,6s-9.64,3.69-13.89,6.52-9.08,7.65-9.35,10.2l18.41,4.25a88.83,88.83,0,0,1,8.79-8.79l4.25-2,15.3-15.59a1.87,1.87,0,0,0-2-.57Zm87,159.28L1934,210l10.77,10.76-28.06,23.81c-2.26,2.83-4,7.37-5.38,10.2h-20.68C1891.79,247.12,1902.55,237.49,1907.93,234.94Zm138.59,52.7H1769.63v-9.07h276.89Zm-776-129.8c0-17-5.39-30.32-20.11-30.32s-20.71,13.33-20.71,30.32v112H1247v17.85h-94.67V269.79h17.56V115.63h-17.56V98.33h74.54v28.91h.84c7.09-15.86,23.53-32.57,49.89-32.57,27.78,0,44.77,17,50.16,39.37,2,8.79,2.56,23.24,2.56,30.6V269.79H1353v17.85h-82.47V157.84Zm-384.59,0c0-17-5.38-30.32-20.11-30.32s-20.69,13.33-20.69,30.32v112h17.29v17.85H767.76V269.79h17.58V115.63H767.76V98.33h74.55v28.91h.83c7.1-15.86,23.54-32.57,49.89-32.57,27.78,0,44.78,17,50.16,39.37,2,8.79,2.56,23.24,2.56,30.6V269.79h22.68v17.85H885.94V157.84Zm547.27-42.21v140c0,9.64,6.24,11.91,12.18,11.91a36.73,36.73,0,0,0,11.08-2v17.27s-11.36,7.1-36.57,7.1c-29.47,0-46.77-14.47-46.77-45.07V115.63H1353V102.87c22.38-17.85,48.46-38.27,69.15-55.54h11v51h28.92v17.29ZM252,0s45.64,45.62,66.6,69.14V87C299,66.31,258.47,49,220.77,49,135.47,49,81.9,113.35,81.9,193c0,79.34,50.73,143.68,138.87,143.68,43.93,0,79.08-20.7,98.63-41.93v17c-26.65,36.57-75.38,60.38-136,60.38C74.81,372.1,0,293.31,0,193S83.05,14.16,183.37,14.16A205.52,205.52,0,0,1,252,25.5V0Zm871.78,237.21c-8.51,9.91-21.82,17.56-41.67,17.56-17.29,0-43.93-9.64-45-53.56h101.17c.28-3.4.56-10.21.56-13.62,0-53.26-21.81-92.92-78.78-92.92-57.25,0-86.45,43.91-86.45,98.61S1002.71,291,1060,291c36.85,0,60.08-17.28,73.69-44.5l-9.92-9.33ZM1037,182.79c0-49.88,4-68.58,21-68.58,17.31,0,20.71,18.13,21.25,68.58Zm-834.37,9.63c0-57.81,5.38-83.31,24.93-83.31s25,25.5,25,83.31-5.4,83.31-25,83.31S202.64,250.24,202.64,192.42Zm-70.29.57c0,57.25,35.13,103.73,95.22,103.73S322.8,250.24,322.8,193,287.65,89.28,227.57,89.28,132.35,135.74,132.35,193Zm324.5-35.15c0-17-5.38-30.32-20.11-30.32S416,140.85,416,157.84v112h17.3v17.85H338.67V269.79h17.58V115.63H338.67V98.34h74.54v28.9h.85c7.08-15.86,23.53-32.57,49.88-32.57,27.78,0,44.79,17,50.16,39.37,2,8.79,2.55,23.25,2.55,30.61V269.79h22.69v17.86H456.85ZM668.57,48.17c0,16.72,15,27.78,36.56,27.78s36.56-11.06,36.56-27.78-15-27.77-36.56-27.77-36.56,11.07-36.56,27.77Zm-49,67.46v140c0,9.64,6.23,11.91,12.19,11.91a36.39,36.39,0,0,0,11-2v17.27s-11.32,7.1-36.54,7.1c-29.48,0-46.77-14.47-46.77-45.07V115.63H539.33V102.87C561.73,85,587.8,64.6,608.47,47.33h11.06v51h23.24v17.29Zm1105.6,154.16h23.23v17.85h-83v-242h-20.68V28.35h80.49V269.79Zm-159.86-76c-1.7-1.7-5.39-4-13-4-17.84,0-21.81,17.59-21.81,35.72,0,17.85,5.38,32.3,20.68,32.3,7.37,0,11.91-3.12,14.17-5.67V193.84Zm2.56,71.13H1567c-11,15.58-25.78,26.07-48.46,26.07-30.89,0-50.17-26.35-50.17-57.8,0-38,26.93-62.08,70-62.08,17.57,0,26.92,4,26.92,4V163.22c0-22.94-14.18-35.13-34.85-35.13-28.64,0-43.36,22.11-43.36,22.11l-10.49-12.75c19-29.49,48.16-42.78,75.38-42.78,45.93,0,73.12,27.19,73.12,68.55V269.79h19.26v17.85h-76.5V265ZM657.52,287.64V269.79h17.29V115.63H657.52V98.33h77.09V269.79h17.57v17.85"/></svg>