<svg id="Ebene_1" data-name="Ebene 1" xmlns="http://www.w3.org/2000/svg" viewBox="0 0 2493.36 830.83"><defs><style>.cls-1{fill:#fff;}</style></defs><title>Zeichenfläche 1</title><path class="cls-1" d="M1272.7,352.79c-.88,0-.88,0-1.77-.88a3.07,3.07,0,0,1-.88-1.76l10.59-73.21c0-.88.88-1.76,2.64-1.76h130.54c.88-3.53,13.23-90,14.11-95.26H1297.39c-.88,0-.88,0-1.76-.88a3.07,3.07,0,0,1-.88-1.76l9.7-67c0-.88.88-1.77,2.65-1.77h156.11C1464.09,105,1479.08,6.17,1480,1.76H1198.61c-.88,3.53-68.79,453.34-69.67,458.63h281.35c.88-3.52,15.87-102.31,16.76-106.72-5.3-.88-154.35-.88-154.35-.88Z"/><path class="cls-1" d="M2042.67,0c-19.41,143.76-108.49,268.12-109.37,269.89,0,.88-.88.88-1.76.88h-1.77a2.81,2.81,0,0,1-2.64-2.65S1917.43,4.41,1917.43,0H1794c-.88,2.65-106.72,263.71-106.72,263.71a1.9,1.9,0,0,1-1.76,1.77h-2.65c-.88,0-1.76-.89-2.65-1.77,0,0-19.4-258.42-20.28-262.83H1530.24c.88,5.29,50.27,455.1,51.15,458.63h119.95c.88-2.64,104.08-261.95,104.08-261.95a1.89,1.89,0,0,1,1.76-1.76h1.76c.89,0,2.65.88,2.65,1.76,0,0,17.64,256.66,17.64,261.07h114.66c7.93-9.7,179.92-224.91,207.26-458.63Z"/><path class="cls-1" d="M2476.6,107.6c.88-3.53,15.88-102.31,16.76-106.72H2212c-.88,3.53-68.8,453.34-69.68,458.63h281.35c.89-3.53,15.88-102.31,16.76-106.72H2286.09c-.88,0-.88,0-1.76-.88a3.07,3.07,0,0,1-.88-1.76L2294,276.94c0-.88.88-1.76,2.65-1.76h131.41c.89-3.53,13.23-90,14.12-95.26H2311.67c-.88,0-.88,0-1.76-.88a3.07,3.07,0,0,1-.88-1.76l9.7-67c0-.88.88-1.77,2.64-1.77-.88-.88,151.7-.88,155.23-.88Z"/><path class="cls-1" d="M100.55,278.71H0c139.35,289.29,395.13,478,702.94,518.6,2.64,0,2.64,0,0-.88C431.29,727.63,217.85,543.3,100.55,278.71Z"/><path class="cls-1" d="M942.84,815.83C662.37,752.33,456,571.52,328.1,278.71H187.86c144.65,321,451.58,525.66,825.54,552.12,3.52,0,4.41-.89.88-.89C991.35,825.53,962.24,820.24,942.84,815.83Z"/><path class="cls-1" d="M1822.17,605a721.22,721.22,0,0,1-467.45,172c-305.16,0-584.75-200.21-695-498.32h-224C578.58,613,896.09,828.18,1246.24,828.18c211.67,0,416.29-79.38,576.81-223.14,1.77,0,2.65-3.53-.88,0Z"/></svg>