<svg id="Ebene_1" data-name="Ebene 1" xmlns="http://www.w3.org/2000/svg" viewBox="0 0 283.46 60.36"><defs><style>.cls-1{fill:#fff;}</style></defs><title>Zeichenfläche 1</title><path class="cls-1" d="M4.12,32.12A19,19,0,0,1,0,31.75v-6.1a7.9,7.9,0,0,0,2.64.42c2,0,3.14-.89,3.14-3.75V.46H13V22.55C13,27.59,10.92,32.12,4.12,32.12Zm25.66,0c8.17,0,11.73-4.34,11.73-9.8V7.63h-7V21.26c0,3.24-1.3,4.94-4.3,4.94s-4.44-1.43-4.44-4.85V7.63H18.64V23.06C18.64,28.47,22.1,32.12,29.78,32.12Zm25.09-7.76c0,1.2-1.06,2-2.77,2a13.45,13.45,0,0,1-4.76-.78l-.23,6.14a22.53,22.53,0,0,0,4.39.51c7.25,0,11.13-3.6,11.13-8.73,0-7.26-8.78-6.24-8.78-8.88,0-1.1.79-1.85,2.73-1.85a15.69,15.69,0,0,1,4.21.61L61,7.48a26.88,26.88,0,0,0-4.11-.36c-7,0-10.63,3.33-10.63,8.23C46.23,23.29,54.87,21.44,54.87,24.36Zm15.29,7.3h7.11V13.77H83.1V7.63H64.29v6.14h5.87ZM98,32.12c8.18,0,11.74-4.34,11.74-9.8V7.63h-7V21.26c0,3.24-1.29,4.94-4.3,4.94S94,24.77,94,21.35V7.63H86.88V23.06C86.88,28.47,90.35,32.12,98,32.12Zm25.09-7.76c0,1.2-1.06,2-2.77,2a13.45,13.45,0,0,1-4.76-.78l-.23,6.14a22.62,22.62,0,0,0,4.39.51c7.26,0,11.14-3.6,11.14-8.73,0-7.26-8.78-6.24-8.78-8.88,0-1.1.78-1.85,2.72-1.85a15.69,15.69,0,0,1,4.21.61l.18-5.88a26.88,26.88,0,0,0-4.11-.36c-7,0-10.63,3.33-10.63,8.23C114.47,23.29,123.11,21.44,123.11,24.36Zm34.78,7.81a29.61,29.61,0,0,0,11-2V15h-7.21V25.23a9.44,9.44,0,0,1-3,.42c-5.82,0-8.87-3.6-8.87-9.38,0-6.1,3.79-9.84,9.7-9.84A22.68,22.68,0,0,1,167.78,8l1.12-6.65a32.19,32.19,0,0,0-9-1.34C148.84,0,142,6.89,142,16.82,142,26.29,147.77,32.17,157.89,32.17Zm23.86-.51h-7.11v-24c2.12-.15,6.42-.19,9.56-.19,6.1,0,9.89,2.31,9.89,7.3a6.87,6.87,0,0,1-4.94,6.8c.37.64,1,1.62,1.66,2.72l4.48,7.4h-8.55L182,22.88h-.23Zm0-13.45c.51.05,1.11.05,1.67.05a2.83,2.83,0,0,0,3.09-2.87c0-1.52-1.29-2.5-3.32-2.5a14.25,14.25,0,0,0-1.44,0Zm15.72,1.71c0-7.76,6.33-12.76,13.31-12.76,6.75,0,12.43,3.66,12.43,12.11,0,7.91-6.28,12.85-13.35,12.85C202,32.12,197.47,27.36,197.47,19.92Zm7.63-.37c0,3.79,1.85,6.24,5.13,6.24,2.81,0,5.36-1.8,5.36-6.15,0-4.06-2.17-6.19-5.27-6.19C207.55,13.45,205.1,15.53,205.1,19.55ZM235,24.36c0,1.2-1.06,2-2.77,2a13.45,13.45,0,0,1-4.76-.78l-.23,6.14a22.44,22.44,0,0,0,4.39.51c7.25,0,11.13-3.6,11.13-8.73,0-7.26-8.78-6.24-8.78-8.88,0-1.1.79-1.85,2.73-1.85a15.69,15.69,0,0,1,4.21.61l.18-5.88A26.88,26.88,0,0,0,237,7.12c-7,0-10.63,3.33-10.63,8.23C226.32,23.29,235,21.44,235,24.36Zm20.09,0c0,1.2-1.06,2-2.77,2a13.45,13.45,0,0,1-4.76-.78l-.23,6.14a22.62,22.62,0,0,0,4.39.51c7.26,0,11.14-3.6,11.14-8.73,0-7.26-8.78-6.24-8.78-8.88,0-1.1.78-1.85,2.72-1.85a15.69,15.69,0,0,1,4.21.61l.18-5.88A26.88,26.88,0,0,0,257,7.12c-7,0-10.63,3.33-10.63,8.23C246.41,23.29,255.05,21.44,255.05,24.36Zm28.41-11.14V7.63H267.84v24h15.62V26H275V22.14h8V16.73h-8V13.22ZM0,42H283.45V60.36H0Zm241,9.49c0,3.19,1.94,5.17,5.35,5.17a10,10,0,0,0,3.69-.69V50.83h-2.43v3.44a3.31,3.31,0,0,1-1,.14c-2,0-3-1.22-3-3.16a3.06,3.06,0,0,1,3.27-3.32,7.49,7.49,0,0,1,2.79.53l.38-2.24a10.75,10.75,0,0,0-3-.46C243.33,45.76,241,48.09,241,51.44Zm-13.78,5h2.33v-4c0-1,0-2.06-.08-2.84a19.63,19.63,0,0,0,1.1,2.31l2.47,4.53h3.1V45.92h-2.33v3.46c0,1,0,2.38.1,3.29-.37-.82-.81-1.72-1.27-2.59l-2.31-4.16h-3.11Zm-14.13-3.7c0,2.1.82,3.91,4.17,3.91,2.79,0,4.45-1.37,4.45-4.33V45.92h-2.4v6.53c0,1.57-.53,2.15-1.9,2.15s-1.88-.78-1.88-2V45.92h-2.44Zm-10,3.7h5.61V54.29H205.6V45.92h-2.43Zm-12.85,0h2.43V51.5l2.85,4.93h3.15L195.1,51l3.47-5.06h-2.94l-2.88,4.64V45.92h-2.43Zm-12.56-4.87c0,2.38,1,5,4.92,5a8.29,8.29,0,0,0,2.6-.42L185,54a5,5,0,0,1-1.84.37c-1.9,0-2.74-1.13-2.74-3.2,0-1.91.92-3.14,2.62-3.14a7.05,7.05,0,0,1,1.91.28l.29-2.2a8.86,8.86,0,0,0-2.15-.25C179.61,45.85,177.76,48.15,177.76,51.56Zm-7.31,4.87h2.43V45.92h-2.43ZM151.63,45.92l2.6,10.51H157l1.27-5a15.6,15.6,0,0,0,.38-2.32h0a18.25,18.25,0,0,0,.39,2.4l1.25,5h2.94l2.63-10.51h-2.43l-1.18,5c-.16.67-.28,1.4-.39,2.21h0a16.25,16.25,0,0,0-.42-2.16l-1.37-5.1h-2.51l-1.37,5.19a18.62,18.62,0,0,0-.4,2.13h0a15,15,0,0,0-.34-2.19l-1.23-5.13ZM140.24,48h2.52v8.44h2.42V48h2.52V45.92h-7.46Zm-13.39,8.44h2.34v-4c0-1,0-2.06-.08-2.84a21.17,21.17,0,0,0,1.09,2.31l2.48,4.53h3.1V45.92h-2.34v3.46c0,1,0,2.38.11,3.29-.37-.82-.81-1.72-1.28-2.59L130,45.92h-3.12Zm-11,0h5.92V54.35h-3.49V52h3.3v-2h-3.3V48h3.49v-2h-5.92ZM104,48h2.52v8.44h2.42V48h2.52V45.92H104ZM91.81,56.43h2.43V51.5l2.85,4.93h3.15L96.59,51l3.48-5.06H97.12l-2.88,4.64V45.92H91.81Zm-11,0h5.93V54.35H83.23V52h3.3v-2h-3.3V48h3.49v-2H80.79Zm-9.89,0a6.32,6.32,0,0,0,1.39.12c2.29,0,3-1.53,3-3.22V45.92H72.85v7.37c0,1-.39,1.26-1.06,1.26a2.59,2.59,0,0,1-.89-.14ZM57.34,51.31c0,3.3,1.59,5.33,4.85,5.33,2.91,0,5.22-2.17,5.22-5.62,0-3.7-2.07-5.3-4.85-5.3A5.22,5.22,0,0,0,57.34,51.31ZM45.61,56.43H48V52.32h.09l2.49,4.11h3l-2.22-3.37c-.25-.39-.53-.79-.81-1.19A3,3,0,0,0,52.87,49c0-2.23-1.5-3.11-4-3.11-1.27,0-2.4,0-3.29.07Zm-11.78,0h2.43V52.94c.22,0,.44,0,.56,0C39.5,53,41,51.27,41,49.22s-1.46-3.37-4.14-3.37c-1.09,0-2.09,0-3,.07Zm16.5-7.27c0-.83-.48-1.33-1.62-1.33a5.58,5.58,0,0,0-.67,0v2.69a4.39,4.39,0,0,0,.61,0C49.67,50.6,50.33,50.05,50.33,49.16Zm-11.87.17c0-.89-.49-1.51-1.69-1.51h-.51v3.09l.42,0A1.62,1.62,0,0,0,38.46,49.33Zm23.87,5.08c1.15,0,2.51-.86,2.51-3.24,0-2.12-.86-3.24-2.46-3.24-1.27,0-2.47,1-2.47,3.18C59.91,53.13,60.66,54.41,62.33,54.41Z"/></svg>