<svg id="Ebene_1" data-name="Ebene 1" xmlns="http://www.w3.org/2000/svg" xmlns:xlink="http://www.w3.org/1999/xlink" viewBox="0 0 1366 794"><defs><style>.cls-1,.cls-3{fill:none;}.cls-2{clip-path:url(#clip-path);}.cls-3{stroke:#00b0b2;stroke-width:5.54px;}</style><clipPath id="clip-path"><path class="cls-1" d="M683.29,107q-23.32,0-40.8,17.4T625,165V339H451q-23.21,0-40.6,17.4T393,397q0,23.21,17.4,40.6T451,455H625V629q0,23.21,17.49,40.6t40.8,17.4q23.31,0,40.8-17.4T741.58,629V455h174q23.19,0,40.6-17.4t17.4-40.6q0-23.19-17.4-40.6T915.58,339h-174V165q0-23.19-17.49-40.6T683.29,107Z"/></clipPath></defs><title>klages_plus</title><g class="cls-2"><line class="cls-3" x1="862.66" y1="-41.06" x2="190.24" y2="631.37"/><line class="cls-3" x1="852.2" y1="-51.52" x2="179.77" y2="620.91"/><line class="cls-3" x1="841.73" y1="-61.99" x2="169.3" y2="610.44"/><line class="cls-3" x1="831.27" y1="-72.45" x2="158.84" y2="599.97"/><line class="cls-3" x1="820.8" y1="-82.92" x2="148.37" y2="589.51"/><line class="cls-3" x1="810.33" y1="-93.38" x2="137.91" y2="579.04"/><line class="cls-3" x1="799.87" y1="-103.85" x2="127.44" y2="568.58"/><line class="cls-3" x1="789.4" y1="-114.32" x2="116.97" y2="558.11"/><line class="cls-3" x1="778.94" y1="-124.78" x2="106.51" y2="547.65"/><line class="cls-3" x1="768.47" y1="-135.25" x2="96.04" y2="537.18"/><line class="cls-3" x1="758" y1="-145.71" x2="85.58" y2="526.71"/><line class="cls-3" x1="747.54" y1="-156.18" x2="75.11" y2="516.25"/><line class="cls-3" x1="737.07" y1="-166.64" x2="64.65" y2="505.78"/><line class="cls-3" x1="726.61" y1="-177.11" x2="54.18" y2="495.32"/><line class="cls-3" x1="716.14" y1="-187.58" x2="43.71" y2="484.85"/><line class="cls-3" x1="705.68" y1="-198.04" x2="33.25" y2="474.39"/><line class="cls-3" x1="873.13" y1="-30.59" x2="200.7" y2="641.84"/><line class="cls-3" x1="883.59" y1="-20.12" x2="211.17" y2="652.3"/><line class="cls-3" x1="894.06" y1="-9.66" x2="221.63" y2="662.77"/><line class="cls-3" x1="904.53" y1="0.81" x2="232.1" y2="673.24"/><line class="cls-3" x1="914.99" y1="11.27" x2="242.56" y2="683.7"/><line class="cls-3" x1="925.46" y1="21.74" x2="253.03" y2="694.17"/><line class="cls-3" x1="935.92" y1="32.21" x2="263.5" y2="704.63"/><line class="cls-3" x1="946.39" y1="42.67" x2="273.96" y2="715.1"/><line class="cls-3" x1="956.85" y1="53.14" x2="284.43" y2="725.56"/><line class="cls-3" x1="967.32" y1="63.6" x2="294.89" y2="736.03"/><line class="cls-3" x1="977.79" y1="74.07" x2="305.36" y2="746.5"/><line class="cls-3" x1="988.25" y1="84.53" x2="315.83" y2="756.96"/><line class="cls-3" x1="998.72" y1="95" x2="326.29" y2="767.43"/><line class="cls-3" x1="1009.18" y1="105.47" x2="336.76" y2="777.89"/><line class="cls-3" x1="1019.65" y1="115.93" x2="347.22" y2="788.36"/><line class="cls-3" x1="1030.12" y1="126.4" x2="357.69" y2="798.82"/><line class="cls-3" x1="1040.58" y1="136.86" x2="368.15" y2="809.29"/><line class="cls-3" x1="1051.05" y1="147.33" x2="378.62" y2="819.76"/><line class="cls-3" x1="1061.51" y1="157.8" x2="389.09" y2="830.22"/><line class="cls-3" x1="1071.98" y1="168.26" x2="399.55" y2="840.69"/><line class="cls-3" x1="1082.44" y1="178.73" x2="410.02" y2="851.15"/><line class="cls-3" x1="1092.91" y1="189.19" x2="420.48" y2="861.62"/><line class="cls-3" x1="1103.38" y1="199.66" x2="430.95" y2="872.09"/><line class="cls-3" x1="1113.84" y1="210.12" x2="441.42" y2="882.55"/><line class="cls-3" x1="1124.31" y1="220.59" x2="451.88" y2="893.02"/><line class="cls-3" x1="1134.77" y1="231.06" x2="462.35" y2="903.48"/><line class="cls-3" x1="1145.24" y1="241.52" x2="472.81" y2="913.95"/><line class="cls-3" x1="1155.71" y1="251.99" x2="483.28" y2="924.41"/><line class="cls-3" x1="1166.17" y1="262.45" x2="493.74" y2="934.88"/><line class="cls-3" x1="1176.64" y1="272.92" x2="504.21" y2="945.35"/><line class="cls-3" x1="1187.1" y1="283.39" x2="514.68" y2="955.81"/><line class="cls-3" x1="1197.57" y1="293.85" x2="525.14" y2="966.28"/><line class="cls-3" x1="1208.03" y1="304.32" x2="535.61" y2="976.74"/><line class="cls-3" x1="1218.5" y1="314.78" x2="546.07" y2="987.21"/><line class="cls-3" x1="1228.97" y1="325.25" x2="556.54" y2="997.68"/><line class="cls-3" x1="1239.43" y1="335.71" x2="567" y2="1008.14"/><line class="cls-3" x1="1249.9" y1="346.18" x2="577.47" y2="1018.61"/><line class="cls-3" x1="1260.36" y1="356.65" x2="587.94" y2="1029.07"/><line class="cls-3" x1="1270.83" y1="367.11" x2="598.4" y2="1039.54"/><line class="cls-3" x1="1281.29" y1="377.58" x2="608.87" y2="1050"/></g></svg>