<svg id="Ebene_1" data-name="Ebene 1" xmlns="http://www.w3.org/2000/svg" xmlns:xlink="http://www.w3.org/1999/xlink" viewBox="0 0 1366 320"><defs><style>.cls-1,.cls-10,.cls-11,.cls-4,.cls-5,.cls-8,.cls-9{fill:none;}.cls-2{clip-path:url(#clip-path);}.cls-3{fill:#00b0b2;}.cls-10,.cls-11,.cls-4,.cls-5,.cls-8,.cls-9{stroke:#fff;}.cls-11,.cls-4,.cls-5,.cls-8,.cls-9{stroke-linecap:round;}.cls-4,.cls-5,.cls-8,.cls-9{stroke-linejoin:round;}.cls-10,.cls-11,.cls-4,.cls-8,.cls-9{stroke-width:3px;}.cls-5{stroke-width:6px;}.cls-6{clip-path:url(#clip-path-3);}.cls-7{fill:#fff;}.cls-8{stroke-dasharray:2.15 3.15;}.cls-9{stroke-dasharray:2.06 3.06;}.cls-10,.cls-11{stroke-miterlimit:10;}.cls-12{clip-path:url(#clip-path-8);}</style><clipPath id="clip-path"><rect class="cls-1" x="144" y="102.44" width="1078.52" height="110.56"/></clipPath><clipPath id="clip-path-3"><path class="cls-1" d="M163.83,158a35.42,35.42,0,0,0,26.52,34.27c-2.37,2.72-6.5,5.74-13.67,7.19,0,0,14.87,3.45,26.12-6.19a35.45,35.45,0,1,0-39-35.27"/></clipPath><clipPath id="clip-path-8"><rect class="cls-1" x="962.24" y="148.28" width="51.03" height="17.01"/></clipPath></defs><title>klages_icons</title><g class="cls-2"><path class="cls-3" d="M448.55,157.72a55.28,55.28,0,1,1-55.28-55.27,55.28,55.28,0,0,1,55.28,55.27"/><path class="cls-4" d="M407.57,125.41a35.62,35.62,0,0,0-47.15,19m-1.8,5.65a35.16,35.16,0,0,0-.91,8m0,0a35.42,35.42,0,0,0,2.67,13.54m2.94,5.62a35.67,35.67,0,0,0,7.87,8.7"/><path class="cls-5" d="M428.64,153.74A35.6,35.6,0,0,0,414,129.08"/><path class="cls-4" d="M374.86,139.84h20.38m-20.38,6.36h27.62m-27.62,6.36H387.2m28.21,33.32a35.58,35.58,0,0,0,8.25-9.3m2.66-5.26a35.23,35.23,0,0,0,2.47-10.59"/><path class="cls-5" d="M395.24,174.45a1.94,1.94,0,1,1-1.93-1.94A1.93,1.93,0,0,1,395.24,174.45Z"/></g><line class="cls-4" x1="393.3" y1="174.45" x2="416.51" y2="147.08"/><g class="cls-2"><path class="cls-3" d="M254.55,157.72a55.28,55.28,0,1,1-55.28-55.28,55.28,55.28,0,0,1,55.28,55.28"/></g><g class="cls-6"><polygon class="cls-7" points="207.7 146.31 207.7 156.65 218.03 156.65 207.7 146.31"/><polygon class="cls-4" points="207.7 146.31 207.7 156.65 218.03 156.65 207.7 146.31"/><path class="cls-4" d="M188.46,179.29h13.08m-13.08-6.56h20.9m-20.9-6.54h20.9m-1.66-19.88H180.52v52.8H218V156.64Z"/></g><g class="cls-2"><path class="cls-4" d="M163.83,158a35.45,35.45,0,1,1,39,35.27c-11.25,9.64-26.12,6.19-26.12,6.19,7.17-1.45,11.3-4.47,13.67-7.19A35.42,35.42,0,0,1,163.83,158Z"/><path class="cls-3" d="M642.35,157.72a55.28,55.28,0,1,1-55.28-55.28,55.28,55.28,0,0,1,55.28,55.28"/><path class="cls-4" d="M624.32,157.72a37.25,37.25,0,1,1-37.25-37.25A37.26,37.26,0,0,1,624.32,157.72Z"/></g><line class="cls-5" x1="587.07" y1="157.72" x2="587.07" y2="138.95"/><line class="cls-4" x1="587.07" y1="157.72" x2="561.83" y2="174.02"/><g class="cls-2"><path class="cls-5" d="M589,157.72a1.94,1.94,0,1,1-1.94-1.93A1.94,1.94,0,0,1,589,157.72Z"/><path class="cls-8" d="M591.71,130.54a27.56,27.56,0,0,1,22.76,24.11"/><path class="cls-8" d="M614.26,162.36a27.6,27.6,0,0,1-24.12,22.77"/><path class="cls-9" d="M582.53,184.93A27.54,27.54,0,0,1,570,179.39"/><path class="cls-4" d="M568.85,178.41c-.38-.33-.74-.67-1.1-1m20.82,7.87c-.49,0-1,0-1.5,0s-1,0-1.5,0m29-29c0,.5,0,1,0,1.5s0,1,0,1.5m-27.53-29.07c.51,0,1,0,1.5,0"/><path class="cls-3" d="M835.86,157.72a55.28,55.28,0,1,1-55.28-55.27,55.28,55.28,0,0,1,55.28,55.27"/></g><polyline class="cls-3" points="804.99 146.81 804.99 182.36 756.17 182.36 756.17 146.81"/><polyline class="cls-4" points="804.99 146.81 804.99 182.36 756.17 182.36 756.17 146.81"/><polyline class="cls-4" points="749.98 153.39 780.58 122.79 811.18 153.39"/><path class="cls-5" d="M792.37,157.33H768.8m11.78-11.79v23.58"/><g class="cls-2"><path class="cls-3" d="M1222.52,157.72a55.28,55.28,0,1,1-55.28-55.27,55.28,55.28,0,0,1,55.28,55.27"/><path class="cls-10" d="M1158,191.93l19-2.49m-19-2.74,19-2.49m-19-5.13h19M1189,152.51a21.51,21.51,0,0,0-43,0c0,11.09,5.47,15.1,9.75,21.88,2,3.21,2.53,4.85,2.53,15.21a9.26,9.26,0,0,0,18.51,0c0-10.36.45-12,2.48-15.21C1183.49,167.6,1189,163.6,1189,152.51Z"/></g><path class="cls-11" d="M1141.25,179.46l5.29-5.29m42-42,5.29-5.3m-52.54,0,5.29,5.29m42,42,5.29,5.29m-26.28-55.94V116m-37.14,37.15h7.48m59.34,0h7.48"/><g class="cls-2"><path class="cls-3" d="M1029.62,157.72a55.28,55.28,0,1,1-55.27-55.27,55.28,55.28,0,0,1,55.27,55.27"/></g><path class="cls-4" d="M962.52,128.43v57.71m-21-57.71h62.7m-62.7,58.21h62.7"/><rect class="cls-5" x="935.42" y="148.29" width="77.84" height="17.01"/><g class="cls-12"><path class="cls-10" d="M994.42,143.23l-26.68,26.69m51.74-26.69L992.8,169.92M1007,143.23l-26.68,26.69m1.62-26.69-26.68,26.69"/></g></svg>