<svg id="Ebene_1" data-name="Ebene 1" xmlns="http://www.w3.org/2000/svg" viewBox="0 0 1341.8 1326.92"><defs><style>.cls-1{fill:#fff;}</style></defs><title>Zeichenfläche 1</title><path class="cls-1" d="M670.81,1326.92C300.29,1326.9-.06,1029.81,0,663.38S300.47,0,671,0s670.86,297.14,670.81,663.56S1041.34,1327,670.81,1326.92ZM120.71,981.79l11.79-9.36C97.83,908.91,67.3,813.55,65.59,811.56,64.81,814.25,78.8,902.83,120.71,981.79ZM680.17,65.93l91.15,530.52-95.19,55.92-3.3-586.22c0-7.05-5-7-5.7,0l-54,556.07-40-23.22L658.89,66.05C326.63,68.13,64.25,334.91,64.21,664.61,64.2,768.74,97,878,144.11,963.3L562.72,615.08l40.13,23-470.2,338c-11.28,7.85-7.89,11.78,4.6,4.84L662.12,677.79V786.94L155.36,980.24c106,173.39,294.18,283.77,513.7,283.79,219.2,0,410.45-110.62,516.6-283.55L679.59,787.3V678.12l504.78,291.15c11.46,6.46,14.92,2.94,4.1-4.79L738.86,638.33l40.1-23,418.46,348.55c47.9-85.82,79.65-195.37,79.67-300.4,0-325.43-270.62-588.68-596.92-597.56ZM1313,548c-25.41-142.51-98.49-247.8-98.49-247.8C1098.6,128.24,901.05,16,672.17,16,308.94,16,15.29,310.41,15.24,673.66c0,85.55,21.81,167.27,51.52,242.26,13.64,34.43,71.54,133.71,74.16,135.84-.28-3.14-41.13-82.58-62.62-135.42C59.88,871,37,780.74,37,676c0-352.39,285.75-638,638.12-638,184.13,0,357.12,89.92,463.28,206.46,22.62,24.82,42.17,47.35,59.68,70.25,0,0,46.16,43.19,115,233.21ZM1292.48,661.8c0,109.07-34.18,222.1-84.57,310.78,2.82,7.31.18,11.07-8.36,13.24-109.79,176.89-305.86,292.65-529.07,292.62-209.41,0-376.92-112.52-429.88-170.65-43-47.17-74.83-82.45-99.44-122.5l-14.41,5.55C221,1171,418.61,1301.93,670.71,1302c357.78,0,643.45-289.27,643.48-638.48,0,0,11.09-112.24-86.36-272,0,0,67.94,123.67,64.65,270.29Zm-663.41-8.16-89.28,72.9s-18.85,15.56,8.2,1.63l108.11-59-27-15.56Zm9-18,26.22-398.08s2.45-48.32,4.91.82c2.41,48.3-4.91,414.46-4.91,414.46Zm47.51,33.58,28.68-16.38,339.09,226.91s25.41,17.19-3.27,2.45Z"/></svg>