<svg id="Ebene_1" data-name="Ebene 1" xmlns="http://www.w3.org/2000/svg" viewBox="0 0 432.67 134.26"><defs><style>.cls-1{fill:#fff;}</style></defs><title>Zeichenfläche 1</title><path class="cls-1" d="M134.26,67.13A67.13,67.13,0,1,0,17.23,112V66.9L67.13,17V35.06L30,72.16v50.91A66.88,66.88,0,0,0,46.33,131V79.09L89.27,36.15V54.21L59.12,84.35v49.43a67.27,67.27,0,0,0,16.29,0V91.26l35.43-35.42v18L88.21,96.52v34.36a67.18,67.18,0,0,0,46.05-63.75"/><polygon class="cls-1" points="320.41 107.23 306.37 77.34 306.32 77.23 298.62 77.23 298.62 126.28 306.39 126.28 306.39 94.42 317.5 117.35 317.55 117.46 323.27 117.46 334.15 94.44 334.15 126.28 341.93 126.28 341.93 77.23 334.22 77.23 320.41 107.23"/><path class="cls-1" d="M191.4,112c0,4.41-3.06,7.25-7.8,7.25H172.19V105H183.6c4.81,0,7.8,2.54,7.8,7M172.19,98.07V84.25h10.73c4.84,0,7.73,2.53,7.73,6.77s-2.89,7-7.73,7Zm20,3.27a11.66,11.66,0,0,0,6.25-10.59c0-8.34-5.71-13.52-14.89-13.52H164.41v49.05h19.88c9.18,0,14.89-5.34,14.89-13.94a11.47,11.47,0,0,0-7-11"/><polygon class="cls-1" points="353.62 126.28 385.11 126.28 385.11 119.25 361.4 119.25 361.4 105.03 381.63 105.03 381.63 98.07 361.4 98.07 361.4 84.25 385.11 84.25 385.11 77.23 353.62 77.23 353.62 126.28"/><path class="cls-1" d="M236.23,91.71c0,4.55-3.09,7.38-8.07,7.38H217.42V84.25h10.74c4.9,0,8.07,2.93,8.07,7.46m7.78-.07c0-8.62-6.15-14.41-15.3-14.41H209.65v49.05h7.77v-20.5h8.91l10.25,20.5h9.06l-11.25-21.6c6-1.76,9.62-6.61,9.62-13"/><polygon class="cls-1" points="424.9 77.23 424.9 110.93 402.78 77.32 402.72 77.23 395.65 77.23 395.65 126.28 403.43 126.28 403.43 92.51 425.54 126.19 425.6 126.28 432.67 126.28 432.67 77.23 424.9 77.23"/><polygon class="cls-1" points="256.18 126.28 287.67 126.28 287.67 119.25 263.96 119.25 263.96 105.03 284.19 105.03 284.19 98.07 263.96 98.07 263.96 84.25 287.67 84.25 287.67 77.23 256.18 77.23 256.18 126.28"/><path class="cls-1" d="M324.3,50.43c-5.4,0-9.08-1.38-12.29-4.59l-.14-.14-5.2,5.13.13.14c4.48,4.54,9.67,6.48,17.37,6.48,10.74,0,17.69-5.68,17.69-14.48,0-4.33-1.4-7.83-4-10.12-2.16-2-4.83-3-9.19-3.67l-5.54-.82a10.74,10.74,0,0,1-5.36-2.21A5.58,5.58,0,0,1,316,21.79c0-4.49,3.41-7.39,8.68-7.39,4.55,0,7.78,1.14,10.46,3.7l.14.14,5-4.93-.15-.14c-4.2-3.92-8.75-5.59-15.24-5.59-10,0-16.46,5.68-16.46,14.48,0,4.06,1.18,7.14,3.61,9.44a16.94,16.94,0,0,0,9.34,3.94l5.74.83c2.8.4,4,.86,5.22,2a6.35,6.35,0,0,1,1.85,4.91c0,4.6-3.59,7.25-9.85,7.25"/><polygon class="cls-1" points="385.11 50.02 361.4 50.02 361.4 35.79 381.63 35.79 381.63 28.83 361.4 28.83 361.4 15.02 385.11 15.02 385.11 7.99 353.63 7.99 353.63 57.04 385.11 57.04 385.11 50.02"/><polygon class="cls-1" points="186.2 37.99 172.11 7.99 164.41 7.99 164.41 57.04 172.19 57.04 172.19 25.18 183.29 48.11 183.34 48.23 189.06 48.23 199.94 25.2 199.94 57.04 207.72 57.04 207.72 7.99 200.01 7.99 186.2 37.99"/><polygon class="cls-1" points="221.26 57.04 252.75 57.04 252.75 50.02 229.04 50.02 229.04 35.79 249.27 35.79 249.27 28.83 229.04 28.83 229.04 15.02 252.75 15.02 252.75 7.99 221.26 7.99 221.26 57.04"/><path class="cls-1" d="M293.82,32.85c-2.16-2-4.82-3-9.19-3.67l-5.53-.82a10.73,10.73,0,0,1-5.37-2.21A5.58,5.58,0,0,1,272,21.79c0-4.49,3.41-7.39,8.69-7.39,4.55,0,7.77,1.14,10.45,3.7l.14.14,5-4.93-.15-.14c-4.19-3.92-8.75-5.59-15.24-5.59-10,0-16.46,5.68-16.46,14.48,0,4.06,1.18,7.14,3.62,9.44a17,17,0,0,0,9.33,4l5.74.82c2.8.4,4,.86,5.23,2a6.37,6.37,0,0,1,1.84,4.91c0,4.6-3.59,7.25-9.84,7.25-5.41,0-9.08-1.38-12.3-4.59l-.14-.14-5.2,5.13.14.14c4.48,4.54,9.67,6.48,17.36,6.48,10.75,0,17.69-5.68,17.69-14.48,0-4.32-1.39-7.83-4-10.12"/></svg>