<svg id="Ebene_1" data-name="Ebene 1" xmlns="http://www.w3.org/2000/svg" viewBox="0 0 483.26 38.34"><defs><style>.cls-1{fill:#fff;}</style></defs><title>Zeichenfläche 1</title><rect class="cls-1" y="30.01" width="1.48" height="8.15"/><polygon class="cls-1" points="13.88 32.11 13.88 38.16 12.48 38.16 12.48 30.01 14.14 30.01 18.55 36.76 22.94 30.01 24.6 30.01 24.6 38.16 23.13 38.16 23.13 32.08 19.14 38.21 17.85 38.21 13.88 32.11"/><polygon class="cls-1" points="36.94 32.11 36.94 38.16 35.53 38.16 35.53 30.01 37.2 30.01 41.6 36.76 46 30.01 47.65 30.01 47.65 38.16 46.19 38.16 46.19 32.08 42.2 38.21 40.91 38.21 36.94 32.11"/><path class="cls-1" d="M68.76,34.09c0-2.52-1.35-3-4.56-3s-4.51.46-4.51,3,1.32,3,4.53,3,4.54-.47,4.54-3m-10.67,0c0-3.51,2.28-4.3,6.13-4.3s6.14.76,6.14,4.27-2.29,4.28-6.16,4.28-6.11-.76-6.11-4.25"/><path class="cls-1" d="M87.56,37c1.35,0,1.82-.12,1.82-1.18s-.47-1.18-1.82-1.18H82.25V37Zm-.41-3.52c1.35,0,1.81-.07,1.81-1.11s-.46-1.1-1.81-1.1h-4.9v2.21ZM80.8,30h6.4c2.37,0,3.24.4,3.24,2.14a1.58,1.58,0,0,1-1.5,1.77,1.75,1.75,0,0,1,1.91,2c0,1.64-.77,2.27-3.25,2.27H80.8Z"/><rect class="cls-1" x="101.41" y="30.01" width="1.48" height="8.15"/><polygon class="cls-1" points="113.89 30.01 115.36 30.01 115.36 36.91 122.87 36.91 122.87 38.16 113.89 38.16 113.89 30.01"/><rect class="cls-1" x="132.94" y="30.01" width="1.48" height="8.15"/><polygon class="cls-1" points="145.42 30.01 154.41 30.01 154.41 31.27 146.89 31.27 146.89 33.29 151.96 33.29 151.96 34.54 146.89 34.54 146.89 36.91 154.41 36.91 154.41 38.16 145.42 38.16 145.42 30.01"/><polygon class="cls-1" points="164.83 30.01 166.45 30.01 173.58 36.19 173.58 30.01 175.01 30.01 175.01 38.16 173.83 38.16 166.26 31.59 166.26 38.16 164.83 38.16 164.83 30.01"/><path class="cls-1" d="M192.72,37c1.34,0,1.81-.12,1.81-1.18s-.47-1.18-1.81-1.18H187.4V37Zm-.42-3.52c1.35,0,1.81-.07,1.81-1.11s-.46-1.1-1.81-1.1h-4.9v2.21ZM186,30h6.4c2.37,0,3.24.4,3.24,2.14a1.58,1.58,0,0,1-1.5,1.77,1.75,1.75,0,0,1,1.91,2c0,1.64-.77,2.27-3.25,2.27H186Z"/><polygon class="cls-1" points="206.5 30.01 215.49 30.01 215.49 31.27 207.98 31.27 207.98 33.29 213.04 33.29 213.04 34.54 207.98 34.54 207.98 36.91 215.49 36.91 215.49 38.16 206.5 38.16 206.5 30.01"/><path class="cls-1" d="M232.47,34.09c1.32,0,1.85-.17,1.85-1.41s-.56-1.43-1.87-1.43h-5.08v2.84Zm4.06,4.07h-1.92l-3.37-2.9h-3.87v2.9h-1.45V30h6.63c2.24,0,3.25.67,3.25,2.61,0,1.67-.89,2.43-2.75,2.55Z"/><path class="cls-1" d="M251.37,31.22l-2.55,4.07h5.09ZM247,38.16h-1.57L250.62,30h1.6l5.15,8.21h-1.66l-1-1.65h-6.63Z"/><polygon class="cls-1" points="269.29 31.27 264.57 31.27 264.59 30.01 275.49 30.01 275.49 31.27 270.77 31.27 270.77 38.16 269.29 38.16 269.29 31.27"/><polygon class="cls-1" points="285.55 30.01 294.54 30.01 294.54 31.27 287.03 31.27 287.03 33.29 292.09 33.29 292.09 34.54 287.03 34.54 287.03 36.91 294.54 36.91 294.54 38.16 285.55 38.16 285.55 30.01"/><path class="cls-1" d="M311.51,34.09c1.32,0,1.86-.17,1.86-1.41s-.56-1.43-1.88-1.43h-5.07v2.84Zm4.06,4.07h-1.91l-3.37-2.9h-3.87v2.9H305V30h6.63c2.25,0,3.26.67,3.26,2.61,0,1.67-.9,2.43-2.75,2.55Z"/><path class="cls-1" d="M338,37.74l.27-1.18a21.18,21.18,0,0,0,4.95.56c3.31,0,3.58-.27,3.58-1.21s-.34-1.13-3.8-1.24c-4-.13-4.89-.56-4.89-2.45s.92-2.4,4.78-2.4a20.66,20.66,0,0,1,4.95.52l-.28,1.19a25.08,25.08,0,0,0-4.65-.51c-2.82,0-3.27.2-3.27,1.13s.43,1.13,3.48,1.22c4.13.14,5.21.49,5.21,2.49s-1,2.44-5.1,2.44a19.11,19.11,0,0,1-5.23-.56"/><polygon class="cls-1" points="358.74 30.01 367.73 30.01 367.73 31.27 360.22 31.27 360.22 33.29 365.29 33.29 365.29 34.54 360.22 34.54 360.22 36.91 367.73 36.91 367.73 38.16 358.74 38.16 358.74 30.01"/><rect class="cls-1" x="378.21" y="30.01" width="1.47" height="8.15"/><polygon class="cls-1" points="394.54 31.27 389.82 31.27 389.83 30.01 400.73 30.01 400.73 31.27 396.01 31.27 396.01 38.16 394.54 38.16 394.54 31.27"/><polygon class="cls-1" points="424.74 31.25 421.95 31.25 421.95 30.01 426.2 30.01 426.2 38.16 424.74 38.16 424.74 31.25"/><path class="cls-1" d="M442.44,31.07c-3.12,0-3.5.2-3.5,1.61,0,1.08.27,1.27,3,1.27a22.18,22.18,0,0,0,4.31-.37c-.08-2.38-.85-2.51-3.78-2.51m-.63,4.06c-3.38,0-4.33-.3-4.33-2.49,0-2.39.93-2.85,5-2.85,3.8,0,5.23.54,5.23,4.25,0,1.49-.15,2.36-.76,3-1,1.06-3.2,1.18-8.57,1.24l0-1.26c5.09-.06,6.71-.12,7.4-.8a1.89,1.89,0,0,0,.46-1.45,25,25,0,0,1-4.4.38"/><polygon class="cls-1" points="460.3 31.25 457.52 31.25 457.52 30.01 461.77 30.01 461.77 38.16 460.3 38.16 460.3 31.25"/><path class="cls-1" d="M478,31.07c-3.12,0-3.5.2-3.5,1.61,0,1.08.27,1.27,3,1.27a22.3,22.3,0,0,0,4.32-.37c-.08-2.38-.85-2.51-3.78-2.51m-.64,4.06c-3.38,0-4.33-.3-4.33-2.49,0-2.39.93-2.85,5-2.85,3.8,0,5.23.54,5.23,4.25,0,1.49-.14,2.36-.76,3-1,1.06-3.2,1.18-8.56,1.24l0-1.26c5.08-.06,6.7-.12,7.4-.8a1.93,1.93,0,0,0,.45-1.45,25,25,0,0,1-4.4.38"/><path class="cls-1" d="M90.94,7.72c2.37,0,3.34-.3,3.34-2.53s-1-2.57-3.38-2.57H81.77v5.1ZM98.24,15H94.8L88.73,9.83h-7V15H79.15V.38H91.08c4,0,5.85,1.21,5.85,4.71,0,3-1.61,4.36-5,4.58Z"/><path class="cls-1" d="M124,7.72c0-4.52-2.43-5.39-8.2-5.39s-8.11.83-8.11,5.35,2.38,5.39,8.15,5.39S124,12.23,124,7.72m-19.18,0c0-6.31,4.1-7.72,11-7.72s11,1.37,11,7.68-4.12,7.68-11.08,7.68-11-1.36-11-7.64"/><path class="cls-1" d="M147.41,12.87c2.42,0,3.26-.22,3.26-2.11s-.84-2.13-3.26-2.13h-9.55v4.24Zm-.74-6.33c2.43,0,3.26-.13,3.26-2s-.83-2-3.26-2h-8.81v4ZM135.25.38h11.5c4.26,0,5.83.73,5.83,3.86a2.83,2.83,0,0,1-2.69,3.18c2.35.08,3.44,1.35,3.44,3.54,0,3-1.39,4.08-5.86,4.08H135.25Z"/><polygon class="cls-1" points="161.78 0.38 177.96 0.38 177.96 2.65 164.44 2.65 164.44 6.29 173.55 6.29 173.55 8.53 164.44 8.53 164.44 12.79 177.96 12.79 177.96 15.04 161.78 15.04 161.78 0.38"/><path class="cls-1" d="M198.06,7.72c2.37,0,3.34-.3,3.34-2.53s-1-2.57-3.38-2.57h-9.13v5.1Zm7.3,7.32h-3.44l-6.07-5.21h-7V15h-2.62V.38H198.2c4,0,5.85,1.21,5.85,4.71,0,3-1.61,4.36-5,4.58Z"/><polygon class="cls-1" points="219.35 2.65 210.86 2.65 210.88 0.38 230.49 0.38 230.49 2.65 222 2.65 222 15.04 219.35 15.04 219.35 2.65"/><path class="cls-1" d="M248.06,7.72c0-6,3.88-7.7,9.95-7.7a27.81,27.81,0,0,1,8.71,1.21l-.62,2.23A31.12,31.12,0,0,0,258,2.37c-5,0-7,1.09-7,5.31S253,13,258,13a32.39,32.39,0,0,0,8.13-1l.58,2.19A28.41,28.41,0,0,1,258,15.35c-6.07,0-9.91-1.68-9.91-7.63"/><rect class="cls-1" x="275.28" y="12.11" width="4.04" height="2.94"/><path class="cls-1" d="M296,14.3l.48-2.13a38.8,38.8,0,0,0,8.91,1c5.95,0,6.44-.48,6.44-2.17s-.61-2-6.84-2.23c-7.14-.24-8.79-1-8.79-4.41,0-3.19,1.65-4.32,8.59-4.32a36.14,36.14,0,0,1,8.91,1l-.51,2.13a45.12,45.12,0,0,0-8.36-.91c-5.07,0-5.87.36-5.87,2s.76,2,6.25,2.2c7.42.24,9.37.88,9.37,4.48s-1.79,4.39-9.17,4.39a34.75,34.75,0,0,1-9.41-1"/><path class="cls-1" d="M334.67,8.19c2.34,0,3.32-.33,3.32-2.8s-1-2.78-3.35-2.78h-9.11V8.19ZM322.89.38h11.93c4,0,5.83,1.09,5.83,5s-1.83,5-5.87,5h-9.25V15h-2.64Z"/><rect class="cls-1" x="348.93" y="0.38" width="2.66" height="14.66"/><polygon class="cls-1" points="360.91 0.38 377.08 0.38 377.08 2.65 363.56 2.65 363.56 6.29 372.67 6.29 372.67 8.53 363.56 8.53 363.56 12.79 377.08 12.79 377.08 15.04 360.91 15.04 360.91 0.38"/><path class="cls-1" d="M384.35,14.3l.48-2.13a38.8,38.8,0,0,0,8.91,1c6,0,6.44-.48,6.44-2.17s-.6-2-6.84-2.23c-7.14-.24-8.79-1-8.79-4.41,0-3.19,1.65-4.32,8.59-4.32a36.14,36.14,0,0,1,8.91,1l-.5,2.13a45.35,45.35,0,0,0-8.37-.91c-5.07,0-5.87.36-5.87,2s.76,2,6.25,2.2c7.42.24,9.37.88,9.37,4.48s-1.78,4.39-9.16,4.39a34.85,34.85,0,0,1-9.42-1"/></svg>