<svg id="Ebene_1" data-name="Ebene 1" xmlns="http://www.w3.org/2000/svg" viewBox="0 0 2499.38 815"><defs><style>.cls-1{fill:#fff;}</style></defs><title>Zeichenfläche 1</title><path class="cls-1" d="M679.78,252.07h-63.2V468.86h63.2c61,0,96.27-38.21,98.48-108.76C778.26,290.28,740.78,252.07,679.78,252.07Zm0,192.54H647.44V277.79h32.34c40.42,0,63.2,27.19,63.2,83C742.25,417.42,720.2,444.61,679.78,444.61Zm155.8-163.88c9.55,0,20.57-9.55,20.57-17.64,0-12.49-9.55-20.57-20.57-20.57A21,21,0,0,0,815,263.09C815,274.12,826,280.73,835.58,280.73Zm-12.5,189.6h30.13V311.6h-50v20.57c5.15,0,14.7,2.94,20.58,2.94C823.08,334.38,823.08,470.33,823.08,470.33Zm199.9-2.94-5.15-22.78c-9.55,2.94-25.72,5.15-38.21,5.15-30.13,0-45.57-17.64-47.77-50h98.47V379.21c0-47.77-22.78-73.49-63.2-73.49-43.36,0-67.61,32.33-67.61,83s27.19,83,75.7,83c19.84.74,35.27.74,47.77-4.41ZM967.12,330.7c22.79,0,32.34,14.7,32.34,40.42h-2.94v8.09H928.91C931.85,348.34,945.08,330.7,967.12,330.7ZM1192,447.55c-25.72,0-50-9.55-55.85-12.49l-8.08,25.72a186.46,186.46,0,0,0,67.61,12.49c47.76,0,75.69-22.78,75.69-63.2,0-43.36-30.13-52.91-61-65.4-27.19-9.56-47.76-17.64-47.76-38.22s14.69-32.33,43.35-32.33c22.79,0,45.57,8.08,52.92,9.55V256.48c-8.09-2.94-25.72-8.09-52.92-8.09-45.56,0-73.49,22.79-73.49,61,0,40.42,32.34,52.91,55.86,61,27.19,9.55,50,17.64,50,43.36,2.2,18.37-11,33.8-46.3,33.8Zm252.07-58.79c0-52.91-22.78-80.84-61-80.84-25.72,0-38.21,12.49-45.56,25.72V310.86h-27.19V532.8h30.13V459.31c9.55,8.08,22.78,12.49,40.42,12.49,44.09.74,66.14-30.13,63.2-83Zm-102.88,43.36V391.7c0-32.34,12.49-58.06,38.21-58.06,27.19,0,38.21,22.78,38.21,52.92,0,12.49-2.93,22.78-5.14,32.33-5.14,17.64-17.64,27.19-38.21,27.19C1361,447.55,1351.47,441.67,1341.19,432.12Zm231.49,38.21H1605V361.57c0-38.22-20.57-52.91-61-52.91-20.58,0-35.28,2.94-50,8.08v25.72c12.5-2.94,25.73-8.08,43.36-8.08,25.72,0,35.28,9.55,35.28,30.13v8.08H1558c-20.58,0-32.34,2.94-45.56,8.09-22.79,8.08-32.34,25.72-32.34,47.76,0,35.28,22.78,47.77,47.77,47.77,22.78,0,38.21-9.55,45.56-17.63Zm-35.28-20.57c-17.63,0-25.72-12.5-25.72-25.72,0-25.73,14.7-32.34,50-32.34h9.56v43.36C1566.06,441.67,1553.57,449.76,1537.4,449.76Zm141.84-108V310.86h-27.19V469.6h30.13V384.35c0-20.58,14.7-45.56,45.56-45.56h8.09V311.6h-12.5c-19.11-.74-36.74,12.49-44.09,30.13Zm147,39.68,65.4-67.61h-35.27l-58.06,61V241.05h-30.13v230h30.13V392.43c25.72,25.73,47.77,55.86,63.2,78.64V474h38.22C1879.13,439.47,1850.47,404.19,1826.22,381.41Zm151.39-73.49c-20.58,0-35.28,2.94-50,8.09v25.72c12.5-2.94,25.72-8.09,43.36-8.09,25.72,0,35.28,9.56,35.28,30.13v8.09h-14.7c-20.58,0-32.34,2.94-45.56,8.08-22.79,8.09-32.34,25.72-32.34,47.77,0,35.27,22.78,47.77,47.77,47.77,22.78,0,38.21-9.56,45.56-17.64v12.49h32.34V361.57C2037.87,324.09,2017.29,307.92,1977.61,307.92Zm27.19,127.14a50.41,50.41,0,0,1-35.28,14.7c-17.64,0-25.72-12.5-25.72-25.72,0-25.73,14.7-32.34,50-32.34h9.56v43.36ZM2141.49,377c-22.78-8.08-38.22-12.49-38.22-25.72s9.56-20.58,30.13-20.58c17.64,0,32.34,2.94,45.57,8.09V313.07c-9.56-2.94-25.72-5.15-45.57-5.15-35.27,0-58.05,14.7-58.05,45.57,0,27.19,17.63,38.21,43.36,45.56,22.78,8.08,40.42,12.49,40.42,27.19S2149.57,449,2123.85,449c-22.78,0-38.21-8.08-45.56-9.55l-8.09,22.78c8.09,2.94,27.19,9.55,55.85,9.55,38.22,0,63.21-14.69,63.21-47.76,0-29.4-20.58-40.42-47.77-47Zm146.24,0c-22.78-8.08-38.21-12.49-38.21-25.72s9.55-20.58,30.13-20.58c17.64,0,32.33,2.94,45.56,8.09V313.07c-9.55-2.94-25.72-5.15-45.56-5.15-35.28,0-58.06,14.7-58.06,45.57,0,27.19,17.64,38.21,43.36,45.56,22.78,8.08,40.42,12.49,40.42,27.19S2295.82,449,2270.09,449c-22.78,0-38.21-8.08-45.56-9.55l-8.08,22.78c8.08,2.94,27.19,9.55,55.85,9.55,38.21,0,63.2-14.69,63.2-47.76,0-29.4-19.84-40.42-47.77-47Zm211.65,2.21c0-47.77-22.78-73.49-63.2-73.49-43.36,0-67.61,32.33-67.61,83s27.19,83,75.69,83c20.58,0,35.28,0,47.77-5.14l-5.14-22.78c-9.55,2.94-25.72,5.14-38.22,5.14-30.13,0-45.56-17.64-47.76-50h98.47V379.21Zm-32.33-8.09v8.09h-67.61c2.94-30.13,14.69-47.77,38.21-47.77,22.78,0,32.34,14.7,32.34,40.42h-2.94Zm-1734.36,319c9.56-8.09,22.78-20.58,22.78-45.57s-17.63-52.91-65.4-52.91H616.58v216.8h75.69c52.91,0,78.64-27.2,78.64-65.41C770.17,714.32,758.41,699.62,732.69,690.07ZM659.2,626.13h20.58c25.72,0,32.33,9.56,32.33,25.72,0,12.5-8.08,25.72-32.33,25.72H659.2Zm25.72,146.25H659.2v-61h25.72c30.13,0,40.42,9.55,40.42,30.13-.73,19.11-13.23,30.87-40.42,30.87ZM893.63,648.91c-14.69,0-30.13,9.56-40.42,30.13V651.85H812.8V810.59h43.35V729.75c0-20.58,12.5-43.36,38.22-43.36,5.14,0,12.49,0,12.49,5.15V651.12c0-2.21-7.35-2.21-13.23-2.21Zm104.36,0c-47.77,0-73.49,35.28-73.49,83.05,0,50,27.19,83,78.63,83,20.58,0,35.28-2.94,52.92-8.08L1048,774.58c-8.08,2.94-25.72,5.14-38.21,5.14-25.72,0-38.22-12.49-40.42-38.21h93.33v-14.7c.73-50-22.05-77.9-64.67-77.9Zm25,65.41H970.06c0-25.72,9.56-38.22,27.19-38.22,14.7,0,25.73,9.56,25.73,32.34v5.88Zm249.86-70.55c-20.58,0-35.27,9.55-45.56,22.78-8.09-14.7-20.58-22.78-43.36-22.78-20.58,0-35.28,9.55-43.36,22.78V648.91h-40.42V807.65h43.36V716.52c0-20.57,12.49-35.27,27.19-35.27s20.58,8.08,20.58,25.72V808.39h43.36V717.26c0-20.58,12.49-35.28,27.19-35.28s20.57,8.09,20.57,25.73V809.12h40.42v-111C1323.55,664.35,1305.91,643.77,1272.84,643.77Zm166.82,5.14c-47.77,0-73.49,35.28-73.49,83.05,0,50,27.19,83,78.64,83,20.57,0,35.27-2.94,52.91-8.08l-8.09-32.34c-8.08,2.94-25.72,5.14-38.21,5.14-25.72,0-38.21-12.49-40.42-38.21h93.33v-14.7c.74-50-22-77.9-64.67-77.9Zm22.78,65.41h-52.91c0-25.72,9.55-38.22,27.19-38.22,14.7,0,25.72,9.56,25.72,32.34v5.88Zm166.09-70.55c-20.58,0-38.21,9.55-45.56,22.78V648.91h-40.42V807.65h43.36V716.52c0-20.57,14.69-35.27,30.13-35.27,12.49,0,22.78,8.08,22.78,27.19v96.27h40.42V696c0-31.6-17.64-52.18-50.71-52.18Zm-1328-485H61c-32.34,0-61,27.19-61,61V351.28H274.85v35.28H.73v22.78c0,32.33,27.2,61,61,61H301.31c32.33,0,61-27.19,61-61V277.79H83.78V242.52H361.57V219.73c0-32.33-27.93-61-61-61ZM179.31,122c32.34,0,61-27.19,61-61,0-32.34-27.19-61-61-61-32.33,0-61,27.19-61,61,.73,32.33,28.66,61,61,61Zm295.43,35.28h22.78V809.12H474.74Z"/></svg>