<svg id="Ebene_1" data-name="Ebene 1" xmlns="http://www.w3.org/2000/svg" viewBox="0 0 253.53 94.73"><defs><style>.cls-1{fill:#fff;}</style></defs><title>Zeichenfläche 1</title><path class="cls-1" d="M212.33,89.49c-4-4-7.31-5.68-12.37-8.31-9.66-5-26.66-6.31-29-6.47V83c2.53.18,18.29-.09,27.61,3.87,5.57,2.37,9.56,3.88,13.73,7.86,4.26-4,7.55-5.4,13.15-7.74,10.26-4.29,28.11-3.83,28.11-4V74.72s-18.88,1.2-29.42,6.57C219,83.89,216.41,85.45,212.33,89.49Zm0-10.14c-5.13-6.7-9.93-9.18-17.53-12.87-9-4.38-21.57-6.37-23.83-6.67V68c2.3.33,16.6,1.48,25,5.4,6.89,3.21,11.42,5.2,16.32,10.95l0,0c5-5.86,9.09-7.68,16-10.88,8.59-4,23.19-5.2,25.24-5.51V59.78c-2.43.33-14.89,2.48-23.92,6.82C221.93,70.28,217.55,72.65,212.29,79.35Zm0-10.25c-4.51-7.9-10.19-11.06-18.19-15.83-8.39-5-21-8-23.16-8.4v8.24c2.21.35,16.58,2,26.38,8.24,6.45,4.08,10.42,6.42,15,12.54,4.68-6.12,8.34-8.35,14.87-12.42,9.67-6,23.61-8,26.37-8.38V44.87c-2.72.5-14.76,3.67-23,8.51S216.93,61.2,212.28,69.1Zm0-11c-5.27-8.43-9.64-12.53-17.85-18.2-9.75-6.73-22.52-9.81-23.52-10v8.25c1.5.38,13.79,2.3,23.34,8.39,8.13,5.18,13.2,9.45,18,17,5-7.52,10-11.68,18.21-16.86,9-5.65,20.27-8,23-8.54V29.91a77.69,77.69,0,0,0-23.08,10.14C222.2,45.67,217.67,49.87,212.3,58.14Zm0-11.25c-3.68-7.52-8.81-13.47-16.69-19.82C184.87,18.41,171,15,170.93,15v8.22c0,.41,9.67,1,22.23,9.12,9.15,5.89,14.1,11.3,19.14,20.3,5.22-9,10.32-14.3,19.6-20.19a66.45,66.45,0,0,1,21.63-9.2V15a75.37,75.37,0,0,0-24,12.21C221.54,33.54,216.14,39.37,212.3,46.89Zm13.37-30c-6.18,6.39-9.53,10.84-13.38,18.85-3.69-8-6.54-12.57-12.59-19C187.29,3.71,170.93,0,170.93,0V8.28c1.11.5,17.12,4,27.46,14,6.71,6.5,10.06,10.81,13.91,19.34,4-8.53,7.72-12.73,14.57-19.22,9.21-8.74,22.66-12.87,26.66-14.12V0A68.21,68.21,0,0,0,225.67,16.93Zm-81.4-8.65h8.26V0h-8.26Zm0,14.94h8.26V15h-8.26Zm0,15h8.26V29.91h-8.26Zm0,14.94h8.26V44.85h-8.26Zm0,14.94h8.26V59.79h-8.26Zm0,15h8.26V74.74h-8.26ZM44,73.29A4.28,4.28,0,0,0,47.82,69a4.33,4.33,0,0,0-1.45-3.29c-1.16-1-2.63-1.36-5.86-1.36H36.32a17.78,17.78,0,0,1,.17,2.86V80.42a17.18,17.18,0,0,1-.17,2.84h5.52a8.39,8.39,0,0,0,3.8-.68,5.12,5.12,0,0,0,2.77-4.73C48.41,75.16,46.83,73.52,44,73.29Zm-4.48-6.68H41c2.55,0,3.66.82,3.66,2.69s-1.31,3-3.66,3h-1.5Zm1.73,14.3H39.52V74.42h1.33c3,0,4.36,1,4.36,3.31S43.89,80.91,41.25,80.91Zm14.93-9.37v-2.1h-3a18.48,18.48,0,0,1,.17,2.86v8.12a18.37,18.37,0,0,1-.17,2.84h3.28a18,18,0,0,1-.2-2.84v-6C57.45,72.69,58.5,72,59.71,72a1.94,1.94,0,0,1,.4,0V69.13A5.49,5.49,0,0,0,56.18,71.54Zm12.21,9.57c-1.78,0-2.86-1.56-2.86-4.11v-.14l.28,0,1.48-.06H69c1.62,0,3.23,0,4.39.06l.26,0c0-.48,0-.65,0-1,0-4.27-1.95-6.73-5.35-6.73S62.5,72,62.5,76.49s2,7,5.41,7a9.53,9.53,0,0,0,5.83-2.44l-1.27-1.69A7,7,0,0,1,68.39,81.11Zm-.11-9.86c1.5,0,2.29,1.16,2.43,3.6a25.76,25.76,0,0,0-2.66-.06c-1,0-1.13,0-2.29,0l-.23,0C65.7,72.61,66.72,71.25,68.28,71.25Zm27.11,2.29c0-3.19-.82-4.41-2.94-4.41-1.36,0-2.67.68-4.37,2.29a2.59,2.59,0,0,0-2.69-2.29c-1.33,0-2.51.59-4.13,2.12l-.22.2v-2h-3a17.3,17.3,0,0,1,.17,2.86v8.12a17.18,17.18,0,0,1-.17,2.84h3.23a21.68,21.68,0,0,1-.17-2.84V73.86a5.28,5.28,0,0,1,3.09-2c.87,0,1.13.62,1.13,2.49v6.08a18.1,18.1,0,0,1-.17,2.84h3.25a19.11,19.11,0,0,1-.17-2.84V73.77a5.93,5.93,0,0,1,3.09-1.92c.85,0,1.16.68,1.16,2.46v6.11a17.18,17.18,0,0,1-.17,2.84h3.23a17.92,17.92,0,0,1-.17-2.84Zm10.44,7.57c-1.78,0-2.86-1.56-2.86-4.11v-.14l.29,0,1.47-.06h1.66c1.62,0,3.23,0,4.39.06l.26,0c0-.48,0-.65,0-1,0-4.27-2-6.73-5.35-6.73S99.94,72,99.94,76.49s2,7,5.41,7a9.53,9.53,0,0,0,5.83-2.44l-1.27-1.69A7,7,0,0,1,105.83,81.11Zm-.11-9.86c1.5,0,2.29,1.16,2.43,3.6a25.76,25.76,0,0,0-2.66-.06c-1,0-1.13,0-2.29,0l-.23,0C103.14,72.61,104.16,71.25,105.72,71.25Zm20.6,2.38c0-3.31-.79-4.5-2.95-4.5a7.19,7.19,0,0,0-4.81,2.26v-2H115.5a17.3,17.3,0,0,1,.17,2.86v8.12a17.18,17.18,0,0,1-.17,2.84h3.29a16.84,16.84,0,0,1-.2-2.84V73.91a5.88,5.88,0,0,1,3.54-2.06c1,0,1.27.59,1.27,2.49v6.08a16.66,16.66,0,0,1-.2,2.84h3.29a17.67,17.67,0,0,1-.17-2.84ZM7.67,45a4.35,4.35,0,0,0,2.38-7.56c-1.16-1-2.63-1.36-5.86-1.36H0a18.94,18.94,0,0,1,.17,2.86V52.11A18.22,18.22,0,0,1,0,54.94H5.52a8.39,8.39,0,0,0,3.8-.68,5.12,5.12,0,0,0,2.77-4.72C12.09,46.84,10.5,45.2,7.67,45ZM3.2,38.29H4.7c2.55,0,3.65.82,3.65,2.69s-1.3,3-3.65,3H3.2Zm1.73,14.3H3.2V46.11H4.53c3,0,4.36,1,4.36,3.31S7.56,52.59,4.93,52.59ZM20.11,41.13H16.82A17.22,17.22,0,0,1,17,44v8.12a17,17,0,0,1-.17,2.83h3.29a17.82,17.82,0,0,1-.2-2.83V44A17.86,17.86,0,0,1,20.11,41.13Zm-.2-6.46H17v3h2.92Zm13,6.15a5.8,5.8,0,0,0-4.31,2V37.53a24,24,0,0,1,.17-2.86H25.53a18.48,18.48,0,0,1,.17,2.86V52.11A18.37,18.37,0,0,1,25.53,55h3V53.61A4.33,4.33,0,0,0,32,55.2c3.29,0,5.21-2.8,5.21-7.53C37.16,43.3,35.61,40.82,32.89,40.82Zm-1.33,12a3.7,3.7,0,0,1-3-1.53v-6a4.7,4.7,0,0,1,3.43-2c1.44,0,2.12,1.5,2.12,4.59S33.23,52.85,31.56,52.85ZM41.74,55H45a18.28,18.28,0,0,1-.19-2.84V37.53A18.48,18.48,0,0,1,45,34.67H41.74a18.48,18.48,0,0,1,.17,2.86V52.11A18.37,18.37,0,0,1,41.74,55Zm8.7,0h3.29a16.7,16.7,0,0,1-.2-2.83V44a16.76,16.76,0,0,1,.2-2.86H50.44A18.39,18.39,0,0,1,50.61,44v8.12A18.22,18.22,0,0,1,50.44,54.94Zm3.09-20.27H50.61v3h2.92ZM70.27,47.86c0-4.33-2.26-7-5.8-7-3.71,0-6.18,2.91-6.18,7.36,0,4.3,2.24,7,5.84,7C67.89,55.2,70.27,52.34,70.27,47.86Zm-9,.06c0-3.06,1.1-4.81,3-4.81s2.94,1.81,2.94,5.07c0,3-1.08,4.7-3,4.7S61.3,51.15,61.3,47.92Zm21.43,5.3-1-1.78a4.47,4.47,0,0,1-2.37,1.32c-.6,0-.8-.45-.8-1.92V43.17h2.13a12.21,12.21,0,0,1,1.58.08V41.07a10.73,10.73,0,0,1-1.61.06h-2.1l.09-4-2.55.46-.45,3.51H73.36v2H75.6v8.38c0,2.63.73,3.68,2.6,3.68C79.53,55.23,80.78,54.66,82.73,53.22Zm14.16-7.79a8.23,8.23,0,0,0-.29-2.89,2.65,2.65,0,0,0-2.69-1.72A7.59,7.59,0,0,0,89.16,43V37.53a18.77,18.77,0,0,1,.19-2.86H86.07a18.48,18.48,0,0,1,.17,2.86V52.11A18.37,18.37,0,0,1,86.07,55h3.28a18.19,18.19,0,0,1-.19-2.84V45.52a5.84,5.84,0,0,1,3.54-2c1,0,1.27.6,1.27,2.5v6.08A17.84,17.84,0,0,1,93.8,55h3.29a16.66,16.66,0,0,1-.2-2.84Zm10.44,7.36c-1.79,0-2.86-1.55-2.86-4.1v-.14l.28,0,1.47-.06h1.67c1.61,0,3.23,0,4.39.06l.25,0c0-.48,0-.65,0-1,0-4.27-2-6.73-5.35-6.73s-5.78,2.85-5.78,7.36,2,7,5.41,7a9.63,9.63,0,0,0,5.84-2.44l-1.28-1.69A7.05,7.05,0,0,1,107.33,52.79Zm-.12-9.85c1.5,0,2.29,1.16,2.43,3.59-.62-.05-1-.05-2.66-.05-1,0-1.13,0-2.29,0l-.22,0C104.63,44.3,105.65,42.94,107.21,42.94Zm15.16,4.33,3.83-4,.65-.68c.59-.62,1-1,1.44-1.44H124.7a7.94,7.94,0,0,1-1.22,1.61l-3.4,3.82v-9a18.26,18.26,0,0,1,.2-2.86H117a17.3,17.3,0,0,1,.17,2.86V52.11A17.18,17.18,0,0,1,117,55h3.29a18.07,18.07,0,0,1-.2-2.84V48.23l3.06,4.36A23.2,23.2,0,0,1,124.58,55h4c-.5-.52-1.33-1.48-2.26-2.64ZM66,24.7a8.32,8.32,0,0,1-3.93-1l-.63,2.49a14.62,14.62,0,0,0,4.87.85c4,0,6.69-2.29,6.69-5.81A4.71,4.71,0,0,0,72.45,19c-.62-1.24-1.69-2.18-4.07-3.45-2.95-1.58-3.57-2.21-3.57-3.48,0-1.47,1.33-2.55,3.23-2.55a7.38,7.38,0,0,1,3.06.76l.59-2.37a12.76,12.76,0,0,0-3.91-.63c-3.62,0-6.08,2.13-6.08,5.24a4.48,4.48,0,0,0,.62,2.38c.62,1,1.64,1.87,3.94,3.09,2.8,1.49,3.59,2.32,3.59,3.76C69.85,23.55,68.35,24.7,66,24.7ZM78.1,23.24c0,2.63.74,3.67,2.61,3.67,1.33,0,2.57-.56,4.53-2l-1-1.79a4.45,4.45,0,0,1-2.38,1.33c-.59,0-.79-.45-.79-1.92V14.85h2.12a12.1,12.1,0,0,1,1.59.09V12.75a10.88,10.88,0,0,1-1.61.06H81l.09-4-2.55.45-.46,3.51H75.87v2H78.1Zm20.7-6.18c0-2.1-.09-2.55-.6-3.25a4.22,4.22,0,0,0-3.42-1.31,13.38,13.38,0,0,0-6.32,1.87l1,2a10.05,10.05,0,0,1,4.89-1.56c1.14,0,1.56.54,1.56,1.89v1C90.7,18,87.76,20,87.76,23.15a3.49,3.49,0,0,0,3.45,3.74c1.59,0,3-.68,4.76-2.24v2h3a17.82,17.82,0,0,1-.2-2.83Zm-2.92,5.35a6.35,6.35,0,0,1-3.82,2.13c-.91,0-1.42-.6-1.42-1.7,0-1.87,1.9-3,5.24-3.28Zm19.2-16h-3.25A17.81,17.81,0,0,1,112,9.22v4.64a4.57,4.57,0,0,0-3.42-1.36c-3.23,0-5.16,2.78-5.16,7.45,0,4.36,1.56,6.94,4.25,6.94a5.77,5.77,0,0,0,4.39-2.1v1.84h3a19.06,19.06,0,0,1-.17-2.83V9.22A19.41,19.41,0,0,1,115.08,6.36Zm-3.06,16a4.67,4.67,0,0,1-3.42,2q-2.13,0-2.13-4.5c0-3.26.91-5,2.61-5a3.84,3.84,0,0,1,2.94,1.5Zm9.22.89c0,2.63.74,3.67,2.61,3.67,1.33,0,2.57-.56,4.53-2l-1-1.79A4.45,4.45,0,0,1,125,24.45c-.59,0-.79-.45-.79-1.92V14.85h2.12a12.1,12.1,0,0,1,1.59.09V12.75a10.88,10.88,0,0,1-1.61.06h-2.1l.09-4-2.55.45-.46,3.51H119v2h2.23Z"/></svg>