<svg id="Ebene_1" data-name="Ebene 1" xmlns="http://www.w3.org/2000/svg" viewBox="0 0 283.46 111.48"><defs><style>.cls-1,.cls-2{fill:#fff;}.cls-2{fill-rule:evenodd;}</style></defs><title>Zeichenfläche 2</title><path class="cls-1" d="M4.37,95.33v16.15H54c12.18,0,21.14-9.69,21.14-24.23,0-14.82-9-23-26-23H30.68c-6.61,0-9.69-2.05-9.69-6.89,0-6.46,4.85-7.06,14.1-7.06H68.15V34.11H27.31C8.66,34.11,0,41.74,0,58.33,0,76.39,7.93,80.21,26.72,80.21H44.34c7.34,0,11,2.2,11,7.64s-3.67,7.48-11,7.48Z"/><path class="cls-2" d="M239.79,50.85c15.85,0,22.76,5.72,22.76,22.45,0,16.16-6,21.59-21.15,21.59H227.31v-44ZM227.31,0H206.9V111.48h39.35c23.93,0,37.21-15,37.21-39.64,0-10.28-2.78-18.8-8.36-25.84-7.35-9.25-16.23-11.89-30.17-11.89H227.31V0Z"/><path class="cls-1" d="M196.19,34.56l0-.4h-20.6s0,.49,0,.56c0,2.24-.36,34.09-16.11,54.67-.48-1.75-12.95-48.16-12.95-48.16H129.63L116.37,91C101,70.92,100.49,38.8,100.49,35c0-.23,0-.81,0-.81H79.88l0,.39a97.14,97.14,0,0,0,4.61,34.11c9.51,31.08,20.2,42.2,20.3,42.31l23.1,0S137.25,71.66,138,68.46c.77,3.2,10.16,42.49,10.16,42.49H171c.4-.22,10.86-10.67,20.38-41.76A103.43,103.43,0,0,0,196.19,34.56Z"/></svg>