<svg id="Ebene_1" data-name="Ebene 1" xmlns="http://www.w3.org/2000/svg" viewBox="0 0 2279.38 948.29"><defs><style>.cls-1{fill:#fff;}</style></defs><title>Zeichenfläche 1</title><path class="cls-1" d="M2078,860.43c-5.18,4.23-12.2,8.18-19.88,11.88-12.71,6.33-26.52,12.81-39.09,12.81-8.61,0-14.86-2.33-19.66-6.28a31.76,31.76,0,0,1-5.16-5.52c-1.07-1.41-2-2.84-3-4.15-3.29-4.23-6.59-10.36-9.78-18-20,19.71-55.68,36.38-107.58,36.38-43.9,0-78.62-11.14-103.49-34.68-24.21-22.93-38-55.92-38-101.45v-260c0-11,2.24-18.47,10.11-24.38,8.13-6.24,23.71-8.34,43.54-8.34,19.32,0,34.95,2.14,43.06,8.43,7.78,5.9,10,13.33,10,24.29v248c0,36.94,15.13,55.15,58.72,55.15s69.48-26,69.48-61.71V491.4c0-11,2.2-18.47,10.07-24.38,8.11-6.23,23-8.34,43-8.34,19.35,0,35,2.14,43.08,8.43,7.78,5.9,10,13.33,10,24.29V780.07a97.91,97.91,0,0,0,3.29,24.87,115.71,115.71,0,0,0,4.89,14.54c3.54,7.12,6.75,14.06,6.75,23.33,0,7.81-5.33,13.66-10.2,17.62ZM1602.34,559.66V847.91c0,11-2.23,18.47-10.11,24.4-8.13,6.22-23.68,8.34-42.94,8.34-19.91,0-35.56-2.13-43.67-8.43-7.81-5.9-10-13.32-10-24.3V567.36l-49.19,3.54c-44,3.19-45.72-34.17-45.72-54.95,0-41.07,15.15-55.8,42.39-55.81h212c20.77,0,36.45,6.62,42.63,36.32,6.83,33,4,56-32.93,58.65l-62.5,4.55Zm667,313.53c-8.1,6.22-23.68,8.34-42.94,8.34-19.91,0-35.54-2.13-43.64-8.43-7.81-5.9-10-13.32-10-24.29V491.4c0-11,2.21-18.47,10.08-24.38,8.16-6.24,23.73-8.34,43.54-8.34,19.35,0,35,2.14,43.06,8.43,7.81,5.88,10,13.33,10,24.29V848.79c0,11-2.19,18.5-10.09,24.4ZM56.38,264.17H338.47c27.65,0,48.51,8.73,56.72,48,9.13,43.62,5.37,74-43.79,77.47l-88.57,6.32C328,807.3,709.15,941.41,916.66,498.32,951,425,962.24,411.63,999.87,421c51,12.63,58,38.83,33.68,112.78C854.14,1080,251.12,1134.71,132.8,405.27l-72,5.17C2.31,414.64,0,365.31,0,337.86c0-54.24,20.16-73.69,56.38-73.69ZM1082.15,0A104.58,104.58,0,1,1,977.57,104.58h0A104.58,104.58,0,0,1,1082.15,0Z"/></svg>