<svg id="Ebene_1" data-name="Ebene 1" xmlns="http://www.w3.org/2000/svg" viewBox="0 0 2078.28 2078.29"><defs><style>.cls-1{fill:#fff;}</style></defs><title>Zeichenfläche 1</title><path class="cls-1" d="M1039.57,0c572.16,0,1038.71,466.57,1038.71,1039.57,0,571.29-466.57,1038.72-1038.71,1038.72S0,1610.86,0,1039.57C0,466.56,467.42,0,1039.57,0Zm0,132h0c-498.94,0-906.75,407.82-906.75,907.6,0,498.93,407.81,905.91,906.75,905.91s906.76-407,906.76-905.9C1946.33,539.79,1538.49,132,1039.57,132Zm0,128.55c68.1,0,135.36,8.52,199.22,25.54L1042.12,830.12,844.59,285.22A774.47,774.47,0,0,1,1039.57,260.52Zm-373.78,1461c-241.8-132-405.27-389.09-405.27-682,0-91.1,15.33-177.95,44.28-258.83l361,940.8Zm373.78,96.21c-72.38,0-142.19-9.38-208.6-28.09l.85-16.19,200.92-521.06,201,521.06,2.53,19.59A787.66,787.66,0,0,1,1039.57,1817.75Zm149.84-730.51H876.94L757.75,1395.46,432.5,551.71h0c61.31-75.77,135.38-139.63,219.67-188.17l229,630.9H1203l228.17-628.33a783.52,783.52,0,0,1,206,175.38l-328.66,854ZM1398,1730.06l370.38-966.35c32.34,86,49.36,178.8,49.36,275.87C1817.74,1339.27,1646.63,1599.79,1398,1730.06Z"/></svg>