<svg id="Ebene_1" data-name="Ebene 1" xmlns="http://www.w3.org/2000/svg" xmlns:xlink="http://www.w3.org/1999/xlink" viewBox="0 0 1200 600"><defs><style>.cls-1{fill:none;}.cls-2{clip-path:url(#clip-path);}.cls-3{fill:#96694c;}</style><clipPath id="clip-path"><rect class="cls-1" x="234.06" y="97" width="731.54" height="406.22"/></clipPath></defs><title>Zeichenfläche 1</title><g class="cls-2"><path class="cls-3" d="M500.43,296c2.71-1.78,5.44-3.33,9.5-3.33s6.79,1.75,9.83,3.77c3.24,2.15,6.91,4.58,12.64,4.58,5.41,0,9-2.36,12.1-4.44s5.88-3.91,10.38-3.91c4.17,0,6.79,1.75,9.83,3.77,3.24,2.15,6.91,4.58,12.65,4.58,5.4,0,9-2.36,12.09-4.44,2.6-1.73,5.08-3.36,8.58-3.79v24.44c-4.72.45-8,2.58-10.84,4.49-3,2-5.67,3.77-9.83,3.77-4.51,0-7.36-1.9-10.38-3.91s-6.7-4.44-12.1-4.44c-5.74,0-9.41,2.43-12.64,4.58-3,2-5.67,3.77-9.84,3.77-5.41,0-10.18-2.1-14.91-6.52a114.83,114.83,0,0,1-17.06-23m-10.05-23.8c3.82-.66,6.64-2.5,9.17-4.18,3-2,5.88-3.91,10.38-3.91,4.17,0,6.79,1.75,9.83,3.77,3.24,2.15,6.91,4.58,12.64,4.58,5.41,0,9-2.36,12.1-4.44s5.88-3.91,10.38-3.91c4.17,0,6.79,1.75,9.83,3.77,3.24,2.15,6.91,4.58,12.65,4.58,5.4,0,9-2.36,12.09-4.44,2.6-1.73,5.08-3.36,8.58-3.79v24.44c-4.72.45-8,2.58-10.84,4.49-3,2-5.67,3.77-9.83,3.77-4.51,0-7.36-1.9-10.38-3.91s-6.7-4.44-12.1-4.44c-5.74,0-9.41,2.44-12.64,4.58-3,2-5.67,3.77-9.84,3.77-4.5,0-7.35-1.9-10.37-3.91s-6.7-4.44-12.1-4.44c-5.05,0-8.49,1.88-11.45,3.8a112.52,112.52,0,0,1-8.1-20.18m-4.56-29.78H598v17.69c-4.72.45-8,2.58-10.84,4.5-3,2-5.67,3.76-9.83,3.76-4.51,0-7.36-1.9-10.38-3.91s-6.7-4.44-12.1-4.44c-5.74,0-9.41,2.44-12.64,4.59-3,2-5.67,3.76-9.84,3.76-4.5,0-7.35-1.9-10.37-3.91s-6.7-4.44-12.1-4.44c-5.74,0-9.41,2.44-12.65,4.59-2.57,1.7-4.85,3.2-8,3.63a113.89,113.89,0,0,1-3.45-25.82M578,227.07v11.25h-7.62V227.07a3.81,3.81,0,0,1,7.62,0m11.72,0v11.25h-7.62V227.07a3.81,3.81,0,0,1,7.62,0m-50-2.32a7.41,7.41,0,0,0,6.16-7.51v-4.43H654v4.43a7.41,7.41,0,0,0,6.16,7.51v13.57H633.64V227.07a7.88,7.88,0,0,0-13.77-5.26,7.88,7.88,0,0,0-13.76,5.26v11.25H593.8V227.07A7.88,7.88,0,0,0,580,221.81a7.88,7.88,0,0,0-13.77,5.26v11.25H539.75Zm50-26.55v10.52h-7.62V198.2a3.81,3.81,0,0,1,7.62,0m28.12,0v10.52H610.2V198.2a3.82,3.82,0,0,1,7.63,0m-61.56-3.06a7.41,7.41,0,0,0,6.16-7.5v-4.43h75.05v4.43a7.41,7.41,0,0,0,6.16,7.5v13.58H621.92V198.2a7.91,7.91,0,1,0-15.81,0v10.52H593.8V198.2a7.91,7.91,0,1,0-15.81,0v10.52H556.27Zm16.52-29.6A7.41,7.41,0,0,0,579,158V153.6h42V158a7.4,7.4,0,0,0,6.15,7.51v13.57H572.79Zm16.52-29.61a7.4,7.4,0,0,0,6.15-7.5V124h9v4.43a7.41,7.41,0,0,0,6.15,7.5v13.58H589.31Zm32.61,102.39V227.07a3.81,3.81,0,1,1,7.62,0v11.25Zm-11.72,0V227.07a3.82,3.82,0,0,1,7.63,0v11.25Zm65.54,4.1-73.61,61.41V242.42Zm38.11,0a115,115,0,0,1-1.26,15.07H695.41v11.26H682.05V280H668.69v11.26H655.34v11.27H642V313.8H628.63v11.26H615.27v11.26H602.13V309.16l80-66.74ZM602.13,354.16V340.41h17.24V329.15h13.35V317.89h13.36V306.63h13.36V295.37h13.35V284.11h13.36V272.85H699.5V261.59h12.35a114.23,114.23,0,0,1-109.72,92.57m-4.1,0a113.47,113.47,0,0,1-69.27-24.9,23.22,23.22,0,0,0,3.64.31c5.41,0,9-2.36,12.1-4.44s5.88-3.91,10.38-3.91c4.17,0,6.79,1.75,9.83,3.76,3.24,2.16,6.91,4.59,12.65,4.59,5.4,0,9-2.36,12.09-4.44,2.6-1.73,5.08-3.36,8.58-3.79Zm-84.62-33.44c.38.38.76.72,1.14,1.08A118.11,118.11,0,1,0,635.82,127.66l-1.25,3.9a113.63,113.63,0,0,1,79.3,106.76H664.25V220.85h-2c-1.23,0-4.1-.35-4.1-3.61v-4.43h4.1v-4.09h-4.1V191.25H654v17.47h-6.27V191.25h-2c-1.24,0-4.11-.35-4.11-3.61v-4.43h4v-4.1h-4V161.65h-4.1v17.46h-6.26V161.65h-2.05c-1.24,0-4.11-.36-4.11-3.62V153.6h4.11v-4.09h-4.11V132H621v17.47H614.7V132h-2.05c-1.23,0-4.1-.35-4.1-3.61V124H613v-4.1H602.12V97H598v22.9H586.87V124h4.5v4.43c0,3.26-2.88,3.61-4.11,3.61h-2v17.47H579V132h-4.1v17.47h-4.11v4.09h4.11V158c0,3.26-2.87,3.62-4.11,3.62h-2v17.46h-6.27V161.65h-4.1v17.46h-4v4.1h4v4.43c0,3.26-2.87,3.61-4.11,3.61h-2v17.47h-6.27V191.25h-4.1v17.47h-4.1v4.09h4.1v4.43c0,3.26-2.87,3.61-4.1,3.61h-2.05v17.47H485.8a113.63,113.63,0,0,1,79.29-106.79l-1.25-3.9a118,118,0,0,0-50.37,193Zm80.32-145.67h4.09V159.17h-4.09Zm-8.52,0h4.1V159.17h-4.1Zm25.54,0h4.1V159.17h-4.1Zm-8.51,0h4.09V159.17h-4.09ZM247.3,480.73h-5.74V459.91h4.62c6.7,0,15.32,1.76,15.32,10.21s-7.26,10.61-14.2,10.61M241.56,434h2.07c7,0,12.76,1.44,12.76,9.89,0,8.61-5.82,10.05-12.92,10.05h-1.91ZM257,455.36v-.15c4.07-1.92,6.46-7,6.46-11.41,0-13.56-10.69-16.51-22-16.51h-7.34v60.13h14c10.6,0,20.89-4.78,20.89-16.82,0-7-4.94-14-12-15.24m320.55,2a24.12,24.12,0,1,1-24.12-24,24.07,24.07,0,0,1,24.12,24m-55.62,0A31.5,31.5,0,1,0,553.38,426a31.42,31.42,0,0,0-31.5,31.33M381.52,480.57H363.26V427.29h-7.5v60.13h25.76Zm91.07,6.85h32.3v-6.85h-24.8V457.84h24.08V451H480.09V434.15h24.8v-6.86h-32.3Zm374.1-60.13H839.2v60.13h7.49Zm26.4,60.13h32.3v-6.85h-24.8V457.84h24.08V451H880.59V434.15h24.8v-6.86h-32.3ZM299.38,465.49l10.68-24.32,10.69,24.32Zm-18,21.93h8.06l6.86-15.07h27.59l6.86,15.07h8l-28.71-62.68Zm656.74-31.66H935.7V434h2c7.42,0,16.35,1.36,16.35,10.77,0,9.57-8.3,11-15.95,11m8.53,5.51c8.69-1,14.44-8.22,14.44-16.83a16.68,16.68,0,0,0-7.9-14.36c-4.78-2.71-10.53-2.79-15.87-2.79H928.2v60.13h7.5V462h3.11l17.7,25.44h9.09Zm-202.48-5.51h-2.4V434h2c7.41,0,16.35,1.36,16.35,10.77,0,9.57-8.3,11-16,11m23-11.32a16.67,16.67,0,0,0-7.89-14.36c-4.78-2.71-10.53-2.79-15.87-2.79h-9.09v60.13h7.49V462h3.11l17.71,25.44h9.09l-19-26.15c8.69-1,14.43-8.22,14.43-16.83M453.21,457.12H429.37V464h15.55c-.32,9.81-10.37,17.86-19.7,17.86-13,0-23.37-12-23.37-24.56a23.71,23.71,0,0,1,42.91-14.59l5.26-5a31.3,31.3,0,0,0-55.66,19.86c0,16.67,13.55,31.18,30.38,31.18s28.47-12.68,28.47-29.19Zm226.25,8.37,10.69-24.32,10.68,24.32Zm-18,21.93h8l6.86-15.07h27.59l6.86,15.07h8.06l-28.71-62.68Zm-59.38,8.8c-9.3-9-20.58-10.42-32.08-4-6.89,3.83-17.8,7.08-29.08.79l-3.26,5.77a34.26,34.26,0,0,0,16.86,4.46A39.18,39.18,0,0,0,573.57,498c8.66-4.82,16.57-3.85,23.52,2.87Zm46.62-68.93h-7.5v35.49c0,9.81-2.95,18.9-14.51,18.9s-14.52-9.09-14.52-18.9V427.29h-7.49v38c0,13.24,8.21,23.37,22,23.37s22-10.13,22-23.37Zm147.93,60.13h7.5V434.15h14.27v-6.86h-36v6.86h14.27Z"/></g></svg>