<svg id="Ebene_1" data-name="Ebene 1" xmlns="http://www.w3.org/2000/svg" viewBox="0 0 1200 845"><defs><style>.cls-1,.cls-15,.cls-21,.cls-9{font-size:77.65px;fill:#96694c;font-family:Futura-Medium, Futura;}.cls-1{letter-spacing:0.14em;}.cls-2{letter-spacing:0.13em;}.cls-3{letter-spacing:0.15em;}.cls-4{letter-spacing:0.14em;}.cls-5{letter-spacing:0.13em;}.cls-6{letter-spacing:0.13em;}.cls-7{letter-spacing:0.14em;}.cls-8{letter-spacing:0em;}.cls-10,.cls-15{letter-spacing:0.13em;}.cls-11{letter-spacing:0.13em;}.cls-12{letter-spacing:0.12em;}.cls-13{letter-spacing:0.12em;}.cls-14,.cls-21{letter-spacing:0.13em;}.cls-16{letter-spacing:0.12em;}.cls-17{letter-spacing:0.13em;}.cls-18{letter-spacing:0.13em;}.cls-19{letter-spacing:0.14em;}.cls-20{letter-spacing:0.13em;}.cls-22{letter-spacing:0.1em;}.cls-23{letter-spacing:0.05em;}.cls-24{letter-spacing:0.09em;}.cls-25{letter-spacing:0.13em;}.cls-26{letter-spacing:0em;}.cls-27{letter-spacing:0.11em;}.cls-28{letter-spacing:0.13em;}.cls-29{letter-spacing:0.12em;}.cls-30{letter-spacing:0.13em;}.cls-31{letter-spacing:0.12em;}.cls-32{letter-spacing:0.13em;}.cls-33{letter-spacing:0.13em;}.cls-34{letter-spacing:0.13em;}</style></defs><title>Zeichenfläche 1</title><text class="cls-1" transform="translate(-0.36 207.51)">E<tspan class="cls-2" x="54.46" y="0">I</tspan><tspan class="cls-3" x="87.69" y="0">N </tspan><tspan class="cls-4" x="200.5" y="0">S</tspan><tspan class="cls-5" x="256.95" y="0">T</tspan><tspan class="cls-6" x="304.58" y="0">Ü</tspan><tspan class="cls-7" x="371.73" y="0">C</tspan><tspan class="cls-8" x="437.01" y="0">K</tspan></text><text class="cls-9" transform="translate(488.33 207.51)"> </text><text class="cls-9" transform="translate(-0.36 309.42)"><tspan class="cls-10">B</tspan><tspan class="cls-11" x="56.01" y="0">R</tspan><tspan class="cls-12" x="112.46" y="0">E</tspan><tspan class="cls-13" x="165.61" y="0">M</tspan><tspan class="cls-14" x="249.27" y="0">E</tspan><tspan x="303.65" y="0">R</tspan></text><text class="cls-9" transform="translate(350.28 309.42)"> </text><text class="cls-15" transform="translate(-0.36 411.34)">G<tspan class="cls-16" x="75.5" y="0">E</tspan><tspan class="cls-11" x="128.33" y="0">S</tspan><tspan class="cls-7" x="183.31" y="0">C</tspan><tspan class="cls-17" x="248.58" y="0">H</tspan><tspan class="cls-18" x="315.94" y="0">I</tspan><tspan class="cls-19" x="349.08" y="0">C</tspan><tspan class="cls-20" x="414.36" y="0">HT</tspan><tspan class="cls-8" x="529.11" y="0">E</tspan></text><text class="cls-9" transform="translate(573.04 411.34)"> </text><text class="cls-21" transform="translate(-0.36 513.25)">E<tspan class="cls-22" x="54.39" y="0">R</tspan><tspan class="cls-23" x="109.06" y="0">W</tspan><tspan class="cls-24" x="195.37" y="0">A</tspan><tspan class="cls-19" x="259.87" y="0">C</tspan><tspan class="cls-25" x="325.15" y="0">H</tspan><tspan class="cls-26" x="392.27" y="0">T</tspan></text><text class="cls-9" transform="translate(429.58 513.25)"> </text><text class="cls-9" transform="translate(-0.36 615.16)"><tspan class="cls-27">Z</tspan><tspan class="cls-3" x="57.3" y="0">U </tspan><tspan class="cls-28" x="161.92" y="0">N</tspan><tspan class="cls-29" x="237.81" y="0">E</tspan><tspan class="cls-30" x="291.34" y="0">U</tspan><tspan class="cls-31" x="358.95" y="0">E</tspan><tspan x="412.17" y="0">M</tspan></text><text class="cls-9" transform="translate(486.7 615.16)"> </text><text class="cls-9" transform="translate(-0.36 717.08)"><tspan class="cls-32">L</tspan><tspan class="cls-33" x="44.29" y="0">E</tspan><tspan class="cls-10" x="98.67" y="0">B</tspan><tspan class="cls-14" x="154.68" y="0">E</tspan><tspan class="cls-34" x="209.07" y="0">N</tspan><tspan x="284.64" y="0">.</tspan></text></svg>