<?xml version="1.0" encoding="utf-8"?>
<!-- Generator: Adobe Illustrator 25.0.1, SVG Export Plug-In . SVG Version: 6.00 Build 0)  -->
<svg version="1.1" id="Ebene_1" xmlns="http://www.w3.org/2000/svg" xmlns:xlink="http://www.w3.org/1999/xlink" x="0px" y="0px"
	 viewBox="0 0 165 174.14" style="enable-background:new 0 0 165 174.14;" xml:space="preserve">
<style type="text/css">
	.st0{fill:#EAE5DF;}
	.st1{clip-path:url(#SVGID_2_);fill:#A09696;}
	.st2{clip-path:url(#SVGID_2_);fill:none;stroke:#A09696;stroke-width:1.7;}
</style>
<rect y="22.77" class="st0" width="165" height="151.45"/>
<g>
	<defs>
		<rect id="SVGID_1_" y="0.86" width="165" height="173.36"/>
	</defs>
	<clipPath id="SVGID_2_">
		<use xlink:href="#SVGID_1_"  style="overflow:visible;"/>
	</clipPath>
	<path class="st1" d="M100.05,50.76c0.33-0.21,0.49-0.51,0.49-0.89l1.46-32.31c0-0.5-0.2-0.75-0.59-0.75
		c-0.12,0-0.24,0.04-0.38,0.12c-0.26,0.13-0.39,0.38-0.39,0.73l-0.91,14.92l-3.91,0.89c-2.74,0.55-4.7,0.83-5.9,0.83
		c-0.84,0-1.28-0.14-1.3-0.43l9.45-30.2c0.05-0.24,0.08-0.45,0.08-0.65c0-0.4-0.12-0.71-0.36-0.95c-0.24-0.24-0.53-0.35-0.86-0.35
		c-0.74,0-1.33,0.46-1.78,1.38c-0.95,5.49-2.06,10.45-3.34,14.88c-1.28,4.43-2.42,8.12-3.43,11.07c-1.18,3.5-1.78,5.57-1.78,6.2
		c0,0.2,0.04,0.34,0.12,0.41c0.14,0.15,0.5,0.22,1.07,0.22c1.09,0,2.97-0.27,5.62-0.81c1.62-0.32,3.05-0.62,4.3-0.91l1.86-0.41
		l-1.11,16.54c0.08,0.42,0.22,0.65,0.42,0.68c0.2,0.03,0.33,0.05,0.39,0.05C99.55,51.01,99.8,50.93,100.05,50.76 M67.05,45.93
		c-0.69-0.81-1.23-2.14-1.63-4c-0.3-1.49-0.45-3.17-0.45-5.05c0-2.92,0.37-5.95,1.11-9.08c1.18-4.71,3.49-10.02,6.93-15.93
		c0.79-1.34,1.76-2.87,2.92-4.58c0.87,0.16,1.64,0.51,2.31,1.07c1.15,0.93,2.08,2.28,2.8,4.05c0.62,1.72,0.96,3.3,1.02,4.73
		c0.06,1.43,0.09,2.42,0.09,2.99c0,3.88-0.68,7.95-2.05,12.22c-0.8,2.5-1.79,4.84-2.95,7.01c-1.16,2.17-2.36,3.93-3.59,5.28
		c-1.23,1.35-2.55,2.17-3.96,2.48c-0.12,0.03-0.24,0.04-0.36,0.04C68.46,47.14,67.74,46.74,67.05,45.93 M69.66,48.7
		c3-0.75,5.88-3.72,8.64-8.9c2.54-4.76,4.2-9.61,4.99-14.55c0.24-1.64,0.36-3.28,0.36-4.91c0-3.14-0.45-5.96-1.36-8.45
		c-0.7-1.95-1.75-3.51-3.16-4.68c-0.74-0.58-1.56-1-2.47-1.26c0.5-0.75,0.91-1.34,1.22-1.78c0.26-0.29,0.4-0.58,0.4-0.87
		c0-0.13-0.03-0.27-0.1-0.41c-0.21-0.42-0.47-0.7-0.79-0.84c-0.32-0.14-0.55-0.21-0.71-0.21c-0.24,0-0.45,0.08-0.63,0.24
		c-0.36,0.42-0.92,1.22-1.7,2.39L73.81,5.3h-0.73l0.1,1.01c-0.79,1.22-1.64,2.62-2.57,4.2c-1.41,2.47-2.67,5.2-3.79,8.17
		c-2.55,6.84-3.83,12.91-3.83,18.2c0,4.76,0.86,8.21,2.59,10.34c0.89,1.05,1.95,1.58,3.18,1.58C69.06,48.8,69.36,48.77,69.66,48.7"
		/>
	<path class="st2" d="M100.05,50.76c0.33-0.21,0.49-0.51,0.49-0.89l1.46-32.31c0-0.5-0.2-0.75-0.59-0.75
		c-0.12,0-0.24,0.04-0.38,0.12c-0.26,0.13-0.39,0.38-0.39,0.73l-0.91,14.92l-3.91,0.89c-2.74,0.55-4.7,0.83-5.9,0.83
		c-0.84,0-1.28-0.14-1.3-0.43l9.45-30.2c0.05-0.24,0.08-0.45,0.08-0.65c0-0.4-0.12-0.71-0.36-0.95c-0.24-0.24-0.53-0.35-0.86-0.35
		c-0.74,0-1.33,0.46-1.78,1.38c-0.95,5.49-2.06,10.45-3.34,14.88c-1.28,4.43-2.42,8.12-3.43,11.07c-1.18,3.5-1.78,5.57-1.78,6.2
		c0,0.2,0.04,0.34,0.12,0.41c0.14,0.15,0.5,0.22,1.07,0.22c1.09,0,2.97-0.27,5.62-0.81c1.62-0.32,3.05-0.62,4.3-0.91l1.86-0.41
		l-1.11,16.54c0.08,0.42,0.22,0.65,0.42,0.68c0.2,0.03,0.33,0.05,0.39,0.05C99.55,51.01,99.8,50.93,100.05,50.76z M67.05,45.93
		c-0.69-0.81-1.23-2.14-1.63-4c-0.3-1.49-0.45-3.17-0.45-5.05c0-2.92,0.37-5.95,1.11-9.08c1.18-4.71,3.49-10.02,6.93-15.93
		c0.79-1.34,1.76-2.87,2.92-4.58c0.87,0.16,1.64,0.51,2.31,1.07c1.15,0.93,2.08,2.28,2.8,4.05c0.62,1.72,0.96,3.3,1.02,4.73
		c0.06,1.43,0.09,2.42,0.09,2.99c0,3.88-0.68,7.95-2.05,12.22c-0.8,2.5-1.79,4.84-2.95,7.01c-1.16,2.17-2.36,3.93-3.59,5.28
		c-1.23,1.35-2.55,2.17-3.96,2.48c-0.12,0.03-0.24,0.04-0.36,0.04C68.46,47.14,67.74,46.74,67.05,45.93z M69.66,48.7
		c3-0.75,5.88-3.72,8.64-8.9c2.54-4.76,4.2-9.61,4.99-14.55c0.24-1.64,0.36-3.28,0.36-4.91c0-3.14-0.45-5.96-1.36-8.45
		c-0.7-1.95-1.75-3.51-3.16-4.68c-0.74-0.58-1.56-1-2.47-1.26c0.5-0.75,0.91-1.34,1.22-1.78c0.26-0.29,0.4-0.58,0.4-0.87
		c0-0.13-0.03-0.27-0.1-0.41c-0.21-0.42-0.47-0.7-0.79-0.84c-0.32-0.14-0.55-0.21-0.71-0.21c-0.24,0-0.45,0.08-0.63,0.24
		c-0.36,0.42-0.92,1.22-1.7,2.39L73.81,5.3h-0.73l0.1,1.01c-0.79,1.22-1.64,2.62-2.57,4.2c-1.41,2.47-2.67,5.2-3.79,8.17
		c-2.55,6.84-3.83,12.91-3.83,18.2c0,4.76,0.86,8.21,2.59,10.34c0.89,1.05,1.95,1.58,3.18,1.58C69.06,48.8,69.36,48.77,69.66,48.7z"
		/>
</g>
</svg>
