<?xml version="1.0" encoding="utf-8"?>
<!-- Generator: Adobe Illustrator 25.0.1, SVG Export Plug-In . SVG Version: 6.00 Build 0)  -->
<svg version="1.1" id="Ebene_1" xmlns="http://www.w3.org/2000/svg" xmlns:xlink="http://www.w3.org/1999/xlink" x="0px" y="0px"
	 viewBox="0 0 165 174.14" style="enable-background:new 0 0 165 174.14;" xml:space="preserve">
<style type="text/css">
	.st0{fill:#EAE5DF;}
	.st1{clip-path:url(#SVGID_2_);fill:#A09696;}
	.st2{clip-path:url(#SVGID_2_);fill:none;stroke:#A09696;stroke-width:1.7;}
</style>
<rect y="22.14" class="st0" width="165" height="152"/>
<g>
	<defs>
		<rect id="SVGID_1_" x="0.08" y="1.49" width="165" height="172.1"/>
	</defs>
	<clipPath id="SVGID_2_">
		<use xlink:href="#SVGID_1_"  style="overflow:visible;"/>
	</clipPath>
	<path class="st1" d="M97.01,49c2.7-0.81,5.35-2.07,7.96-3.78c2.61-1.7,4.87-3.77,6.77-6.2c2.77-3.53,4.16-7.6,4.16-12.21
		c0-2.37-0.5-4.41-1.5-6.1c-0.75-1.17-1.71-2.05-2.89-2.65c-1.17-0.6-2.39-1.08-3.64-1.44c-1.08-0.34-2.14-0.53-3.19-0.56
		c-1.05-0.03-1.86-0.05-2.44-0.05c-0.85,0-1.65,0.03-2.4,0.08c0.98-0.43,2.11-1.12,3.38-2.04c1.27-0.93,2.24-1.76,2.92-2.49
		c1.08-1.27,1.62-2.61,1.62-4.01c0-1.25-0.49-2.32-1.47-3.21c-1.43-1.33-3.42-1.99-5.98-1.99c-1.41,0-2.76,0.24-4.07,0.73
		c-2.7,1.14-4.89,2.97-6.59,5.49c-0.5,0.77-0.88,1.41-1.13,1.91l-0.38,0.77l-0.03,0.2c0,0.28,0.11,0.5,0.33,0.66
		c0.22,0.16,0.52,0.23,0.91,0.23c0.37,0,0.7-0.05,1.01-0.15c0.31-0.1,0.49-0.23,0.55-0.38l0.55-0.53c1.04-0.99,1.88-2.31,2.51-3.95
		c1.73-1.83,3.22-3.01,4.45-3.54c1.1-0.45,2.07-0.67,2.92-0.67c0.31,0,0.61,0.03,0.9,0.1c1,0.23,1.77,0.69,2.31,1.38
		c0.64,0.81,0.95,1.59,0.95,2.34c0,0.99-0.6,2.16-1.79,3.52c-0.81,0.91-1.69,1.75-2.63,2.51c-0.94,0.77-1.76,1.39-2.46,1.88
		l-1.04,0.73c-0.6,0.39-0.9,0.75-0.9,1.06c0,0.11,0.05,0.22,0.14,0.33c0.25,0.27,0.67,0.41,1.27,0.41c0.1,0,0.67-0.05,1.73-0.16
		c0.64-0.05,1.23-0.08,1.79-0.08c1.98,0,3.76,0.24,5.32,0.71c2.1,0.65,3.7,1.86,4.79,3.62c0.87,1.42,1.3,3.21,1.3,5.35
		c0,4.22-1.29,8.01-3.87,11.38c-1.77,2.31-3.84,4.28-6.21,5.92c-4.04,2.81-7.91,4.21-11.58,4.21c-1.64,0-2.87-0.26-3.7-0.79
		c-0.77-0.46-1.17-1.01-1.18-1.66c-0.02-0.64-0.03-1-0.03-1.07c0-1.22,0.53-2.93,1.59-5.13v-0.16c0-0.31-0.19-0.57-0.58-0.76
		c-0.39-0.2-0.81-0.29-1.27-0.29c-0.65,0-1.11,0.21-1.36,0.63c-0.68,1.79-1.01,3.37-1.01,4.74c0,2.12,0.82,3.7,2.46,4.76
		c1.35,0.84,2.5,1.26,3.47,1.27c0.96,0.01,1.46,0.01,1.5,0.01C93.09,49.89,95.01,49.6,97.01,49 M55.2,47.83
		c-1.01-0.83-1.81-2.21-2.38-4.12c-0.44-1.53-0.66-3.27-0.66-5.21c0-3.01,0.54-6.13,1.62-9.36c1.73-4.86,5.11-10.33,10.14-16.42
		c1.16-1.38,2.58-2.96,4.27-4.72c1.27,0.16,2.4,0.53,3.38,1.1c1.68,0.96,3.04,2.35,4.1,4.17c0.9,1.78,1.4,3.4,1.49,4.87
		c0.09,1.47,0.13,2.5,0.13,3.08c0,4-1,8.2-3,12.6c-1.17,2.58-2.61,4.99-4.32,7.22c-1.7,2.24-3.46,4.05-5.26,5.44
		c-1.8,1.39-3.73,2.24-5.79,2.55c-0.17,0.03-0.35,0.04-0.52,0.04C57.27,49.08,56.21,48.66,55.2,47.83 M59.03,50.69
		c4.39-0.77,8.61-3.83,12.65-9.18c3.72-4.91,6.15-9.91,7.31-15c0.35-1.7,0.52-3.39,0.52-5.07c0-3.24-0.67-6.15-1.99-8.71
		c-1.02-2.01-2.56-3.62-4.62-4.82c-1.08-0.6-2.28-1.03-3.61-1.3c0.73-0.77,1.33-1.38,1.79-1.83c0.39-0.3,0.58-0.6,0.58-0.9
		c0-0.13-0.05-0.28-0.14-0.43c-0.31-0.43-0.69-0.72-1.16-0.87c-0.46-0.14-0.81-0.21-1.04-0.21c-0.35,0-0.66,0.08-0.92,0.24
		c-0.52,0.43-1.35,1.26-2.49,2.46l-0.81,0.85h-1.07l0.14,1.04c-1.15,1.26-2.41,2.71-3.76,4.33c-2.06,2.55-3.91,5.36-5.55,8.43
		c-3.74,7.05-5.6,13.31-5.6,18.76c0,4.91,1.26,8.46,3.78,10.66c1.31,1.08,2.86,1.63,4.65,1.63C58.14,50.79,58.58,50.76,59.03,50.69"
		/>
	<path class="st2" d="M97.01,49c2.7-0.81,5.35-2.07,7.96-3.78c2.61-1.7,4.87-3.77,6.77-6.2c2.77-3.53,4.16-7.6,4.16-12.21
		c0-2.37-0.5-4.41-1.5-6.1c-0.75-1.17-1.71-2.05-2.89-2.65c-1.17-0.6-2.39-1.08-3.64-1.44c-1.08-0.34-2.14-0.53-3.19-0.56
		c-1.05-0.03-1.86-0.05-2.44-0.05c-0.85,0-1.65,0.03-2.4,0.08c0.98-0.43,2.11-1.12,3.38-2.04c1.27-0.93,2.24-1.76,2.92-2.49
		c1.08-1.27,1.62-2.61,1.62-4.01c0-1.25-0.49-2.32-1.47-3.21c-1.43-1.33-3.42-1.99-5.98-1.99c-1.41,0-2.76,0.24-4.07,0.73
		c-2.7,1.14-4.89,2.97-6.59,5.49c-0.5,0.77-0.88,1.41-1.13,1.91l-0.38,0.77l-0.03,0.2c0,0.28,0.11,0.5,0.33,0.66
		c0.22,0.16,0.52,0.23,0.91,0.23c0.37,0,0.7-0.05,1.01-0.15c0.31-0.1,0.49-0.23,0.55-0.38l0.55-0.53c1.04-0.99,1.88-2.31,2.51-3.95
		c1.73-1.83,3.22-3.01,4.45-3.54c1.1-0.45,2.07-0.67,2.92-0.67c0.31,0,0.61,0.03,0.9,0.1c1,0.23,1.77,0.69,2.31,1.38
		c0.64,0.81,0.95,1.59,0.95,2.34c0,0.99-0.6,2.16-1.79,3.52c-0.81,0.91-1.69,1.75-2.63,2.51c-0.94,0.77-1.76,1.39-2.46,1.88
		l-1.04,0.73c-0.6,0.39-0.9,0.75-0.9,1.06c0,0.11,0.05,0.22,0.14,0.33c0.25,0.27,0.67,0.41,1.27,0.41c0.1,0,0.67-0.05,1.73-0.16
		c0.64-0.05,1.23-0.08,1.79-0.08c1.98,0,3.76,0.24,5.32,0.71c2.1,0.65,3.7,1.86,4.79,3.62c0.87,1.42,1.3,3.21,1.3,5.35
		c0,4.22-1.29,8.01-3.87,11.38c-1.77,2.31-3.84,4.28-6.21,5.92c-4.04,2.81-7.91,4.21-11.58,4.21c-1.64,0-2.87-0.26-3.7-0.79
		c-0.77-0.46-1.17-1.01-1.18-1.66c-0.02-0.64-0.03-1-0.03-1.07c0-1.22,0.53-2.93,1.59-5.13v-0.16c0-0.31-0.19-0.57-0.58-0.76
		c-0.39-0.2-0.81-0.29-1.27-0.29c-0.65,0-1.11,0.21-1.36,0.63c-0.68,1.79-1.01,3.37-1.01,4.74c0,2.12,0.82,3.7,2.46,4.76
		c1.35,0.84,2.5,1.26,3.47,1.27c0.96,0.01,1.46,0.01,1.5,0.01C93.09,49.89,95.01,49.6,97.01,49z M55.2,47.83
		c-1.01-0.83-1.81-2.21-2.38-4.12c-0.44-1.53-0.66-3.27-0.66-5.21c0-3.01,0.54-6.13,1.62-9.36c1.73-4.86,5.11-10.33,10.14-16.42
		c1.16-1.38,2.58-2.96,4.27-4.72c1.27,0.16,2.4,0.53,3.38,1.1c1.68,0.96,3.04,2.35,4.1,4.17c0.9,1.78,1.4,3.4,1.49,4.87
		c0.09,1.47,0.13,2.5,0.13,3.08c0,4-1,8.2-3,12.6c-1.17,2.58-2.61,4.99-4.32,7.22c-1.7,2.24-3.46,4.05-5.26,5.44
		c-1.8,1.39-3.73,2.24-5.79,2.55c-0.17,0.03-0.35,0.04-0.52,0.04C57.27,49.08,56.21,48.66,55.2,47.83z M59.03,50.69
		c4.39-0.77,8.61-3.83,12.65-9.18c3.72-4.91,6.15-9.91,7.31-15c0.35-1.7,0.52-3.39,0.52-5.07c0-3.24-0.67-6.15-1.99-8.71
		c-1.02-2.01-2.56-3.62-4.62-4.82c-1.08-0.6-2.28-1.03-3.61-1.3c0.73-0.77,1.33-1.38,1.79-1.83c0.39-0.3,0.58-0.6,0.58-0.9
		c0-0.13-0.05-0.28-0.14-0.43c-0.31-0.43-0.69-0.72-1.16-0.87c-0.46-0.14-0.81-0.21-1.04-0.21c-0.35,0-0.66,0.08-0.92,0.24
		c-0.52,0.43-1.35,1.26-2.49,2.46l-0.81,0.85h-1.07l0.14,1.04c-1.15,1.26-2.41,2.71-3.76,4.33c-2.06,2.55-3.91,5.36-5.55,8.43
		c-3.74,7.05-5.6,13.31-5.6,18.76c0,4.91,1.26,8.46,3.78,10.66c1.31,1.08,2.86,1.63,4.65,1.63C58.14,50.79,58.58,50.76,59.03,50.69z
		"/>
</g>
</svg>
