<?xml version="1.0" encoding="utf-8"?>
<!-- Generator: Adobe Illustrator 25.0.1, SVG Export Plug-In . SVG Version: 6.00 Build 0)  -->
<svg version="1.1" id="Ebene_1" xmlns="http://www.w3.org/2000/svg" xmlns:xlink="http://www.w3.org/1999/xlink" x="0px" y="0px"
	 viewBox="0 0 165 174.14" style="enable-background:new 0 0 165 174.14;" xml:space="preserve">
<style type="text/css">
	.st0{fill:#EAE5DF;}
	.st1{clip-path:url(#SVGID_2_);fill:#A09696;}
	.st2{clip-path:url(#SVGID_2_);fill:none;stroke:#A09696;stroke-width:1.7;}
</style>
<rect y="22.87" class="st0" width="165" height="151.45"/>
<g>
	<defs>
		<rect id="SVGID_1_" y="0.76" width="165" height="173.57"/>
	</defs>
	<clipPath id="SVGID_2_">
		<use xlink:href="#SVGID_1_"  style="overflow:visible;"/>
	</clipPath>
	<path class="st1" d="M115.65,48.18c0.71-0.18,1.07-0.54,1.07-1.07c0-0.23-0.11-0.47-0.33-0.71c-5.08-2.1-11.65-3.16-19.7-3.16
		c-3.62,0-7.56,0.22-11.8,0.65c1.46-1.3,4.36-4.33,8.72-9.09c3.13-3.13,6.33-6.64,9.59-10.55c4.33-5.31,7.19-9.76,8.58-13.36
		c0.51-1.27,0.76-2.47,0.76-3.58c0-0.61-0.08-1.2-0.25-1.76c-0.51-1.63-1.92-2.78-4.23-3.45c-1.4-0.33-2.75-0.5-4.04-0.5
		c-1.64,0-3.18,0.22-4.62,0.65c-2.29,0.69-4.39,1.8-6.28,3.33c-1.95,1.6-3.46,3.18-4.54,4.77l-0.6,0.86l-0.03,0.29
		c0,0.49,0.15,0.77,0.46,0.84c0.16,0.04,0.3,0.06,0.41,0.06c0.29,0,0.61-0.06,0.96-0.17c0.45-0.16,0.89-0.34,1.31-0.54
		c1.22-0.69,2.57-2.3,4.04-4.84c2.06-1.68,3.86-2.78,5.41-3.27c1.55-0.5,2.96-0.75,4.23-0.75c0.62,0,1.2,0.06,1.75,0.17
		c1.68,0.36,2.75,1.19,3.22,2.51c0.09,0.33,0.14,0.73,0.14,1.19c0,3.67-3.01,9.21-9.04,16.59c-4.39,5.27-9.75,10.83-16.09,16.67
		l-2.79,2.32c-0.65,0.59-0.98,1.07-0.98,1.46c0,0.61,0.86,0.95,2.57,1.01c3.35-0.49,7.64-0.73,12.87-0.73l2.24,0.02
		c6.25,0.06,11.47,1.38,15.68,3.94c0.27,0.17,0.56,0.25,0.87,0.25C115.36,48.23,115.5,48.21,115.65,48.18 M53.9,46.41
		c-0.96-0.79-1.71-2.08-2.25-3.88c-0.42-1.44-0.63-3.08-0.63-4.9c0-2.83,0.51-5.77,1.53-8.8c1.64-4.57,4.83-9.72,9.59-15.45
		c1.09-1.3,2.44-2.78,4.04-4.44c1.2,0.15,2.27,0.5,3.2,1.03c1.58,0.91,2.88,2.21,3.88,3.92c0.86,1.67,1.33,3.2,1.41,4.58
		c0.08,1.38,0.12,2.35,0.12,2.9c0,3.76-0.95,7.71-2.84,11.85c-1.11,2.42-2.47,4.69-4.08,6.79c-1.61,2.1-3.27,3.81-4.97,5.12
		c-1.7,1.31-3.53,2.11-5.48,2.4c-0.16,0.03-0.33,0.04-0.49,0.04C55.86,47.58,54.85,47.19,53.9,46.41 M57.52,49.09
		c4.15-0.73,8.14-3.6,11.96-8.63c3.51-4.62,5.82-9.32,6.91-14.11c0.33-1.6,0.49-3.18,0.49-4.77c0-3.05-0.63-5.78-1.89-8.19
		c-0.96-1.89-2.42-3.4-4.37-4.54c-1.02-0.56-2.16-0.97-3.42-1.23c0.69-0.73,1.26-1.3,1.69-1.72c0.36-0.28,0.55-0.56,0.55-0.84
		c0-0.13-0.05-0.26-0.14-0.4c-0.29-0.41-0.65-0.68-1.09-0.81c-0.44-0.13-0.76-0.2-0.98-0.2c-0.33,0-0.62,0.08-0.87,0.23
		c-0.49,0.41-1.28,1.18-2.35,2.32l-0.76,0.8h-1.01l0.14,0.98c-1.09,1.19-2.28,2.55-3.55,4.08c-1.95,2.4-3.7,5.04-5.24,7.92
		c-3.53,6.64-5.3,12.52-5.3,17.65c0,4.62,1.19,7.96,3.58,10.03c1.24,1.02,2.71,1.53,4.4,1.53C56.68,49.19,57.1,49.16,57.52,49.09"/>
	<path class="st2" d="M115.65,48.18c0.71-0.18,1.07-0.54,1.07-1.07c0-0.23-0.11-0.47-0.33-0.71c-5.08-2.1-11.65-3.16-19.7-3.16
		c-3.62,0-7.56,0.22-11.8,0.65c1.46-1.3,4.36-4.33,8.72-9.09c3.13-3.13,6.33-6.64,9.59-10.55c4.33-5.31,7.19-9.76,8.58-13.36
		c0.51-1.27,0.76-2.47,0.76-3.58c0-0.61-0.08-1.2-0.25-1.76c-0.51-1.63-1.92-2.78-4.23-3.45c-1.4-0.33-2.75-0.5-4.04-0.5
		c-1.64,0-3.18,0.22-4.62,0.65c-2.29,0.69-4.39,1.8-6.28,3.33c-1.95,1.6-3.46,3.18-4.54,4.77l-0.6,0.86l-0.03,0.29
		c0,0.49,0.15,0.77,0.46,0.84c0.16,0.04,0.3,0.06,0.41,0.06c0.29,0,0.61-0.06,0.96-0.17c0.45-0.16,0.89-0.34,1.31-0.54
		c1.22-0.69,2.57-2.3,4.04-4.84c2.06-1.68,3.86-2.78,5.41-3.27c1.55-0.5,2.96-0.75,4.23-0.75c0.62,0,1.2,0.06,1.75,0.17
		c1.68,0.36,2.75,1.19,3.22,2.51c0.09,0.33,0.14,0.73,0.14,1.19c0,3.67-3.01,9.21-9.04,16.59c-4.39,5.27-9.75,10.83-16.09,16.67
		l-2.79,2.32c-0.65,0.59-0.98,1.07-0.98,1.46c0,0.61,0.86,0.95,2.57,1.01c3.35-0.49,7.64-0.73,12.87-0.73l2.24,0.02
		c6.25,0.06,11.47,1.38,15.68,3.94c0.27,0.17,0.56,0.25,0.87,0.25C115.36,48.23,115.5,48.21,115.65,48.18z M53.9,46.41
		c-0.96-0.79-1.71-2.08-2.25-3.88c-0.42-1.44-0.63-3.08-0.63-4.9c0-2.83,0.51-5.77,1.53-8.8c1.64-4.57,4.83-9.72,9.59-15.45
		c1.09-1.3,2.44-2.78,4.04-4.44c1.2,0.15,2.27,0.5,3.2,1.03c1.58,0.91,2.88,2.21,3.88,3.92c0.86,1.67,1.33,3.2,1.41,4.58
		c0.08,1.38,0.12,2.35,0.12,2.9c0,3.76-0.95,7.71-2.84,11.85c-1.11,2.42-2.47,4.69-4.08,6.79c-1.61,2.1-3.27,3.81-4.97,5.12
		c-1.7,1.31-3.53,2.11-5.48,2.4c-0.16,0.03-0.33,0.04-0.49,0.04C55.86,47.58,54.85,47.19,53.9,46.41z M57.52,49.09
		c4.15-0.73,8.14-3.6,11.96-8.63c3.51-4.62,5.82-9.32,6.91-14.11c0.33-1.6,0.49-3.18,0.49-4.77c0-3.05-0.63-5.78-1.89-8.19
		c-0.96-1.89-2.42-3.4-4.37-4.54c-1.02-0.56-2.16-0.97-3.42-1.23c0.69-0.73,1.26-1.3,1.69-1.72c0.36-0.28,0.55-0.56,0.55-0.84
		c0-0.13-0.05-0.26-0.14-0.4c-0.29-0.41-0.65-0.68-1.09-0.81c-0.44-0.13-0.76-0.2-0.98-0.2c-0.33,0-0.62,0.08-0.87,0.23
		c-0.49,0.41-1.28,1.18-2.35,2.32l-0.76,0.8h-1.01l0.14,0.98c-1.09,1.19-2.28,2.55-3.55,4.08c-1.95,2.4-3.7,5.04-5.24,7.92
		c-3.53,6.64-5.3,12.52-5.3,17.65c0,4.62,1.19,7.96,3.58,10.03c1.24,1.02,2.71,1.53,4.4,1.53C56.68,49.19,57.1,49.16,57.52,49.09z"
		/>
</g>
</svg>
