<?xml version="1.0" encoding="utf-8"?>
<!-- Generator: Adobe Illustrator 25.0.1, SVG Export Plug-In . SVG Version: 6.00 Build 0)  -->
<svg version="1.1" id="Ebene_1" xmlns="http://www.w3.org/2000/svg" xmlns:xlink="http://www.w3.org/1999/xlink" x="0px" y="0px"
	 viewBox="0 0 165 173" style="enable-background:new 0 0 165 173;" xml:space="preserve">
<style type="text/css">
	.st0{fill:#EAE5DF;}
	.st1{clip-path:url(#SVGID_2_);fill:#A09696;}
	.st2{clip-path:url(#SVGID_2_);fill:none;stroke:#A09696;stroke-width:1.7;}
</style>
<rect y="21.18" class="st0" width="165" height="151.45"/>
<g>
	<defs>
		<rect id="SVGID_1_" y="0.17" width="165" height="172.47"/>
	</defs>
	<clipPath id="SVGID_2_">
		<use xlink:href="#SVGID_1_"  style="overflow:visible;"/>
	</clipPath>
	<path class="st1" d="M97.11,48.4c0.59-0.2,0.89-0.64,0.91-1.31c0.21-9.92,1.18-18.73,2.91-26.41c1.74-7.69,4.22-13.79,7.44-18.31
		l-0.08-0.53c-0.17-0.56-0.52-0.83-1.04-0.83c-0.22,0-0.52,0.09-0.88,0.27c-5.47,3.57-10.17,7.81-14.09,12.74
		c-1.57,1.98-2.75,3.61-3.52,4.88l-1.19,1.92v0.14c0,0.35,0.11,0.53,0.34,0.53c0.1,0,0.22-0.04,0.34-0.13l0.26-0.18
		c2.85-5.72,8.36-11.51,16.52-17.37c-3.25,4.85-5.77,11.02-7.57,18.52c-1.8,7.5-2.8,15.59-2.99,24.28v0.07
		c0,0.79,0.29,1.32,0.85,1.6c0.35,0.16,0.69,0.23,1.04,0.23C96.6,48.53,96.85,48.49,97.11,48.4 M61.9,44.26
		c-0.91-0.74-1.62-1.97-2.14-3.67c-0.4-1.37-0.6-2.91-0.6-4.64c0-2.68,0.48-5.46,1.45-8.34c1.55-4.33,4.58-9.2,9.09-14.63
		c1.04-1.23,2.31-2.63,3.83-4.21c1.14,0.14,2.15,0.47,3.03,0.98c1.5,0.86,2.73,2.1,3.68,3.72c0.81,1.58,1.26,3.03,1.33,4.34
		c0.08,1.31,0.12,2.23,0.12,2.75c0,3.57-0.9,7.31-2.69,11.22c-1.05,2.3-2.34,4.44-3.87,6.44s-3.1,3.61-4.71,4.85
		c-1.61,1.24-3.35,2-5.19,2.28c-0.15,0.02-0.31,0.04-0.47,0.04C63.76,45.38,62.81,45.01,61.9,44.26 M65.33,46.81
		c3.94-0.69,7.72-3.41,11.34-8.18c3.33-4.38,5.52-8.83,6.55-13.36c0.31-1.51,0.47-3.01,0.47-4.51c0-2.89-0.6-5.48-1.79-7.76
		c-0.92-1.79-2.3-3.22-4.14-4.3c-0.97-0.53-2.05-0.92-3.24-1.16c0.66-0.69,1.19-1.23,1.61-1.63c0.35-0.27,0.52-0.53,0.52-0.8
		c0-0.12-0.04-0.25-0.13-0.38c-0.28-0.39-0.62-0.64-1.04-0.77c-0.41-0.13-0.73-0.19-0.93-0.19c-0.31,0-0.59,0.07-0.83,0.22
		c-0.47,0.39-1.21,1.12-2.23,2.19l-0.72,0.76h-0.96l0.13,0.93c-1.04,1.12-2.16,2.41-3.37,3.86c-1.85,2.27-3.5,4.77-4.97,7.5
		c-3.35,6.29-5.03,11.86-5.03,16.72c0,4.38,1.13,7.54,3.39,9.5c1.17,0.97,2.56,1.45,4.17,1.45C64.54,46.9,64.94,46.87,65.33,46.81"
		/>
	<path class="st2" d="M97.11,48.4c0.59-0.2,0.89-0.64,0.91-1.31c0.21-9.92,1.18-18.73,2.91-26.41c1.74-7.69,4.22-13.79,7.44-18.31
		l-0.08-0.53c-0.17-0.56-0.52-0.83-1.04-0.83c-0.22,0-0.52,0.09-0.88,0.27c-5.47,3.57-10.17,7.81-14.09,12.74
		c-1.57,1.98-2.75,3.61-3.52,4.88l-1.19,1.92v0.14c0,0.35,0.11,0.53,0.34,0.53c0.1,0,0.22-0.04,0.34-0.13l0.26-0.18
		c2.85-5.72,8.36-11.51,16.52-17.37c-3.25,4.85-5.77,11.02-7.57,18.52c-1.8,7.5-2.8,15.59-2.99,24.28v0.07
		c0,0.79,0.29,1.32,0.85,1.6c0.35,0.16,0.69,0.23,1.04,0.23C96.6,48.53,96.85,48.49,97.11,48.4z M61.9,44.26
		c-0.91-0.74-1.62-1.97-2.14-3.67c-0.4-1.37-0.6-2.91-0.6-4.64c0-2.68,0.48-5.46,1.45-8.34c1.55-4.33,4.58-9.2,9.09-14.63
		c1.04-1.23,2.31-2.63,3.83-4.21c1.14,0.14,2.15,0.47,3.03,0.98c1.5,0.86,2.73,2.1,3.68,3.72c0.81,1.58,1.26,3.03,1.33,4.34
		c0.08,1.31,0.12,2.23,0.12,2.75c0,3.57-0.9,7.31-2.69,11.22c-1.05,2.3-2.34,4.44-3.87,6.44s-3.1,3.61-4.71,4.85
		c-1.61,1.24-3.35,2-5.19,2.28c-0.15,0.02-0.31,0.04-0.47,0.04C63.76,45.38,62.81,45.01,61.9,44.26z M65.33,46.81
		c3.94-0.69,7.72-3.41,11.34-8.18c3.33-4.38,5.52-8.83,6.55-13.36c0.31-1.51,0.47-3.01,0.47-4.51c0-2.89-0.6-5.48-1.79-7.76
		c-0.92-1.79-2.3-3.22-4.14-4.3c-0.97-0.53-2.05-0.92-3.24-1.16c0.66-0.69,1.19-1.23,1.61-1.63c0.35-0.27,0.52-0.53,0.52-0.8
		c0-0.12-0.04-0.25-0.13-0.38c-0.28-0.39-0.62-0.64-1.04-0.77c-0.41-0.13-0.73-0.19-0.93-0.19c-0.31,0-0.59,0.07-0.83,0.22
		c-0.47,0.39-1.21,1.12-2.23,2.19l-0.72,0.76h-0.96l0.13,0.93c-1.04,1.12-2.16,2.41-3.37,3.86c-1.85,2.27-3.5,4.77-4.97,7.5
		c-3.35,6.29-5.03,11.86-5.03,16.72c0,4.38,1.13,7.54,3.39,9.5c1.17,0.97,2.56,1.45,4.17,1.45C64.54,46.9,64.94,46.87,65.33,46.81z"
		/>
</g>
</svg>
